<svg xmlns="http://www.w3.org/2000/svg" viewBox="0 0 177.99 178"><path d="M122.81,178H27.62A27.65,27.65,0,0,1,0,150.37V55.19A27.65,27.65,0,0,1,27.62,27.56h47.6a8.9,8.9,0,1,1,0,17.8H27.62a9.84,9.84,0,0,0-9.82,9.83v95.18a9.84,9.84,0,0,0,9.82,9.83h95.19a9.84,9.84,0,0,0,9.83-9.83V102.78a8.9,8.9,0,0,1,17.8,0v47.59A27.66,27.66,0,0,1,122.81,178Z"/><path d="M76.72,110.17A8.9,8.9,0,0,1,70.43,95L147.61,17.8h-37.7a8.9,8.9,0,1,1,0-17.8h59.18A8.89,8.89,0,0,1,178,8.9V68.09a8.9,8.9,0,0,1-17.8,0V30.39L83,107.56A8.86,8.86,0,0,1,76.72,110.17Z"/></svg>