<svg xmlns="http://www.w3.org/2000/svg" viewBox="0 0 857.46 433.14"><defs><style>.cls-1,.cls-5{fill:#009245;}.cls-1{stroke:gray;stroke-miterlimit:10;}.cls-2{fill:#fbfbfb;}.cls-3{font-size:32px;font-family:MrEavesModOT-Book, Mr Eaves Mod OT;letter-spacing:0.01em;}.cls-17,.cls-21,.cls-3,.cls-6,.cls-9{fill:#fff;}.cls-4{font-size:18.16px;fill:#006837;font-family:MrEavesModOT-Reg, Mr Eaves Mod OT;}.cls-17,.cls-21,.cls-6,.cls-9{font-size:16.5px;font-family:MrEavesModOT-Bold, Mr Eaves Mod OT;font-weight:700;}.cls-10,.cls-6{letter-spacing:-0.07em;}.cls-7{letter-spacing:0.02em;}.cls-8,.cls-9{letter-spacing:0.03em;}.cls-11{letter-spacing:0.03em;}.cls-12,.cls-17{letter-spacing:0.03em;}.cls-13{letter-spacing:0.02em;}.cls-14{letter-spacing:-0.01em;}.cls-15{letter-spacing:0.02em;}.cls-16{letter-spacing:0.03em;}.cls-18{letter-spacing:0.03em;}.cls-19{letter-spacing:-0.04em;}.cls-20{letter-spacing:-0.01em;}</style></defs><g id="Layer_2" data-name="Layer 2"><g id="Cards"><path class="cls-1" d="M10.5.5h836a10,10,0,0,1,10,10v74a0,0,0,0,1,0,0H.5a0,0,0,0,1,0,0v-74A10,10,0,0,1,10.5.5Z"/><path class="cls-2" d="M.29,84.55H857.46a0,0,0,0,1,0,0V423.14a10,10,0,0,1-10,10H10.29a10,10,0,0,1-10-10V84.55A0,0,0,0,1,.29,84.55Z"/><text class="cls-3" transform="translate(15.11 52.38) scale(0.89 1)">Xi Davidson</text><text class="cls-4" transform="translate(15.69 143.63) scale(0.89 1)">Age:</text><rect class="cls-5" x="106.78" y="123.31" width="235.29" height="30.48" rx="13.15"/><text class="cls-6" transform="translate(117.99 143.18) scale(0.89 1)">T<tspan class="cls-7" x="7.91" y="0">w</tspan><tspan class="cls-8" x="18.58" y="0">enty Nine</tspan></text><text class="cls-4" transform="translate(15.69 222.14) scale(0.89 1)">Occupation:</text><rect class="cls-5" x="106.78" y="201.82" width="235.08" height="30.48" rx="13.15"/><text class="cls-9" transform="translate(118.72 221.69) scale(0.89 1)">Stay at home mother</text><text class="cls-4" transform="translate(15.69 300.78) scale(0.89 1)">Status:</text><rect class="cls-5" x="106.78" y="280.46" width="235.08" height="30.48" rx="13.15"/><text class="cls-9" transform="translate(118.72 300.33) scale(0.89 1)">Married - <tspan class="cls-10" x="65.82" y="0">T</tspan><tspan class="cls-7" x="73.73" y="0">w</tspan><tspan x="84.4" y="0">o child</tspan><tspan class="cls-11" x="128.59" y="0">r</tspan><tspan class="cls-12" x="134.16" y="0">en</tspan></text><text class="cls-4" transform="translate(15.67 378.98) scale(0.89 1)">Location:</text><rect class="cls-5" x="106.76" y="358.66" width="235.1" height="30.48" rx="13.15"/><text class="cls-9" transform="translate(118.7 378.53) scale(0.89 1)">De<tspan class="cls-13" x="18.82" y="0">n</tspan><tspan class="cls-7" x="27.03" y="0">v</tspan><tspan class="cls-12" x="34.08" y="0">e</tspan><tspan class="cls-14" x="41.59" y="0">r</tspan><tspan class="cls-12" x="46.59" y="0">, </tspan><tspan class="cls-15" x="54.63" y="0">C</tspan><tspan class="cls-16" x="65.04" y="0">O</tspan></text><text class="cls-4" transform="translate(415.87 144.06) scale(0.89 1)">Goals:</text><rect class="cls-5" x="470.88" y="123.51" width="362" height="30" rx="13.15"/><text class="cls-17" transform="translate(484.8 143.61) scale(0.89 1)">Spend higher quality time with child<tspan class="cls-11" x="239.64" y="0">r</tspan><tspan x="245.22" y="0">en</tspan></text><rect class="cls-5" x="470.88" y="165.01" width="362" height="30" rx="13.15"/><text class="cls-17" transform="translate(485.78 185.07) scale(0.89 1)">Inc<tspan class="cls-11" x="20.07" y="0">r</tspan><tspan class="cls-18" x="25.65" y="0">ease connection with divinity</tspan></text><rect class="cls-5" x="470.88" y="206.51" width="362" height="30" rx="13.15"/><text class="cls-17" transform="translate(486.1 226.86) scale(0.89 1)">Mediate twice a day</text><text class="cls-4" transform="translate(381.47 298.87) scale(0.89 1)"><tspan class="cls-19">F</tspan><tspan x="7.33" y="0">rust</tspan><tspan class="cls-20" x="32.17" y="0">r</tspan><tspan x="37.27" y="0">ations:</tspan></text><rect class="cls-5" x="465.88" y="279.51" width="367" height="30" rx="13.15"/><text class="cls-17" transform="translate(480.04 299.28) scale(0.89 1)">English as second language</text><rect class="cls-5" x="465.88" y="319.51" width="366" height="30" rx="13.15"/><text class="cls-17" transform="translate(481.03 339.49) scale(0.89 1)">Little things that change her schedule</text><rect class="cls-5" x="465.88" y="358.51" width="366" height="30" rx="13.15"/><text class="cls-21" transform="translate(481.35 378.53) scale(0.89 1)">P<tspan class="cls-12" x="8.52" y="0">olitics being shouted at her</tspan></text></g></g></svg>