<svg xmlns="http://www.w3.org/2000/svg" viewBox="0 0 858.58 433.46"><defs><style>.cls-1{fill:#fbfbfb;}.cls-2,.cls-6{fill:#009245;}.cls-2{stroke:gray;stroke-miterlimit:10;}.cls-3{font-size:32px;font-family:MrEavesModOT-Book, Mr Eaves Mod OT;}.cls-11,.cls-3,.cls-7{fill:#fff;}.cls-4{letter-spacing:0.01em;}.cls-5{font-size:18.16px;fill:#006837;font-family:MrEavesModOT-Reg, Mr Eaves Mod OT;}.cls-11,.cls-7{font-size:16.5px;font-family:MrEavesModOT-Bold, Mr Eaves Mod OT;font-weight:700;}.cls-13,.cls-7{letter-spacing:0.03em;}.cls-8{letter-spacing:0.04em;}.cls-9{letter-spacing:-0.07em;}.cls-10{letter-spacing:0.02em;}.cls-11{letter-spacing:0.03em;}.cls-12{letter-spacing:0.01em;}.cls-14{letter-spacing:0.03em;}.cls-15{letter-spacing:0.02em;}.cls-16{letter-spacing:0.05em;}.cls-17{letter-spacing:0.03em;}.cls-18{letter-spacing:0.02em;}.cls-19{letter-spacing:0.03em;}.cls-20{letter-spacing:-0.04em;}.cls-21{letter-spacing:-0.01em;}.cls-22{letter-spacing:-0.02em;}.cls-23{letter-spacing:0.02em;}.cls-24{letter-spacing:0.04em;}</style></defs><g id="Layer_2" data-name="Layer 2"><g id="Cards"><path class="cls-1" d="M.85,84.88H858a0,0,0,0,1,0,0V423.46a10,10,0,0,1-10,10H10.85a10,10,0,0,1-10-10V84.88A0,0,0,0,1,.85,84.88Z"/><path class="cls-2" d="M10.5.5H848.08a10,10,0,0,1,10,10V84.67a0,0,0,0,1,0,0H.5a0,0,0,0,1,0,0V10.5A10,10,0,0,1,10.5.5Z"/><text class="cls-3" transform="translate(15.14 52.47) scale(0.89 1)"><tspan class="cls-4">Amanda And</tspan><tspan x="154.4" y="0">re</tspan><tspan class="cls-4" x="175.87" y="0">ws</tspan></text><text class="cls-5" transform="translate(15.72 144.67) scale(0.89 1)">Age:</text><rect class="cls-6" x="106.98" y="124.32" width="235.73" height="30.53" rx="12.71"/><text class="cls-7" transform="translate(118.21 144.22) scale(0.89 1)">Thi<tspan class="cls-8" x="22.31" y="0">r</tspan><tspan x="28.14" y="0">ty </tspan><tspan class="cls-9" x="44.22" y="0">T</tspan><tspan class="cls-10" x="52.12" y="0">w</tspan><tspan x="62.8" y="0">o</tspan></text><text class="cls-5" transform="translate(15.72 223.79) scale(0.89 1)">Occupation:</text><rect class="cls-6" x="106.98" y="203.44" width="235.52" height="30.53" rx="12.71"/><text class="cls-11" transform="translate(118.94 223.33) scale(0.89 1)">Mar<tspan class="cls-12" x="27.68" y="0">k</tspan><tspan class="cls-13" x="35.17" y="0">eting Di</tspan><tspan class="cls-14" x="88.46" y="0">r</tspan><tspan x="94.04" y="0">ector (La</tspan><tspan class="cls-14" x="154.09" y="0">r</tspan><tspan x="159.66" y="0" xml:space="preserve">ge Firm)  </tspan></text><text class="cls-5" transform="translate(15.72 299.76) scale(0.89 1)">Status:</text><rect class="cls-6" x="106.98" y="279.41" width="235.52" height="30.53" rx="12.71"/><text class="cls-11" transform="translate(118.94 299.31) scale(0.89 1)">Married - No child<tspan class="cls-14" x="121.08" y="0">r</tspan><tspan class="cls-13" x="126.65" y="0">en</tspan></text><text class="cls-5" transform="translate(15.7 379.69) scale(0.89 1)">Location:</text><rect class="cls-6" x="106.96" y="359.33" width="235.54" height="30.53" rx="12.71"/><text class="cls-7" transform="translate(118.92 379.23) scale(0.89 1)">Henderson, NV</text><text class="cls-5" transform="translate(416.29 144.67) scale(0.89 1)">Goals:</text><rect class="cls-6" x="471.25" y="124.32" width="362.67" height="30.53" rx="12.71"/><text class="cls-7" transform="translate(485.7 144.21) scale(0.89 1)">Loose <tspan class="cls-15" x="42" y="0">w</tspan><tspan x="52.68" y="0">eight (undefined amount)</tspan></text><rect class="cls-6" x="471.25" y="163.88" width="362.67" height="30.53" rx="12.71"/><text class="cls-7" transform="translate(486.68 183.77) scale(0.89 1)">Get o<tspan class="cls-16" x="36.14" y="0">f</tspan><tspan class="cls-17" x="41.66" y="0">f high blood p</tspan><tspan class="cls-14" x="133.4" y="0">r</tspan><tspan class="cls-17" x="138.98" y="0">essu</tspan><tspan class="cls-18" x="167.63" y="0">r</tspan><tspan x="173.21" y="0">e medication</tspan></text><rect class="cls-6" x="471.25" y="203.44" width="362.67" height="30.53" rx="12.71"/><text class="cls-7" transform="translate(487.01 223.33) scale(0.89 1)">App<tspan class="cls-18" x="27.93" y="0">r</tspan><tspan class="cls-19" x="33.5" y="0">oach day-to-day inte</tspan><tspan class="cls-14" x="171.58" y="0">r</tspan><tspan x="177.16" y="0">actions with mo</tspan><tspan class="cls-18" x="281.8" y="0">r</tspan><tspan x="287.37" y="0">e peace</tspan></text><text class="cls-5" transform="translate(381.89 299.76) scale(0.89 1)"><tspan class="cls-20">F</tspan><tspan x="7.33" y="0">rust</tspan><tspan class="cls-21" x="32.17" y="0">r</tspan><tspan x="37.27" y="0">ations:</tspan></text><rect class="cls-6" x="466.72" y="279.41" width="367.45" height="30.53" rx="12.71"/><text class="cls-7" transform="translate(480.93 299.31) scale(0.89 1)">Things that just do<tspan class="cls-22" x="125.22" y="0">n</tspan><tspan x="132.86" y="0">&apos;t </tspan><tspan class="cls-23" x="146.06" y="0">w</tspan><tspan class="cls-19" x="156.74" y="0">ork (designed poorly?)</tspan></text><rect class="cls-6" x="466.72" y="319.37" width="367.45" height="30.53" rx="12.71"/><text class="cls-7" transform="translate(481.92 339.73) scale(0.89 1)">Being called into <tspan class="cls-23" x="115.07" y="0">w</tspan><tspan x="125.75" y="0">ork on days o</tspan><tspan class="cls-24" x="213.27" y="0">f</tspan><tspan class="cls-17" x="218.78" y="0">f</tspan></text><rect class="cls-6" x="466.72" y="359.33" width="367.45" height="30.53" rx="12.71"/><text class="cls-7" transform="translate(482.25 379.23) scale(0.89 1)">Husband<tspan class="cls-22" x="60.39" y="0">&apos;</tspan><tspan x="63.94" y="0">s laziness</tspan></text></g></g></svg>