<svg xmlns="http://www.w3.org/2000/svg" viewBox="0 0 857.46 433.07"><defs><style>.cls-1,.cls-5{fill:#009245;}.cls-1{stroke:gray;stroke-miterlimit:10;}.cls-2{fill:#fbfbfb;}.cls-3{font-size:32px;font-family:MrEavesModOT-Book, Mr Eaves Mod OT;letter-spacing:0.01em;}.cls-11,.cls-14,.cls-3,.cls-6,.cls-9{fill:#fff;}.cls-4{font-size:18.16px;fill:#006837;font-family:MrEavesModOT-Reg, Mr Eaves Mod OT;}.cls-11,.cls-14,.cls-6,.cls-9{font-size:16.5px;font-family:MrEavesModOT-Bold, Mr Eaves Mod OT;font-weight:700;}.cls-6{letter-spacing:-0.02em;}.cls-7,.cls-9{letter-spacing:0.03em;}.cls-8{letter-spacing:0.04em;}.cls-10{letter-spacing:0.01em;}.cls-11{letter-spacing:0.03em;}.cls-12{letter-spacing:0.02em;}.cls-13{letter-spacing:0.03em;}.cls-14{letter-spacing:-0.04em;}.cls-15{letter-spacing:0.03em;}.cls-16{letter-spacing:-0.04em;}.cls-17{letter-spacing:-0.01em;}.cls-18{letter-spacing:0.03em;}</style></defs><g id="Layer_2" data-name="Layer 2"><g id="Cards"><path class="cls-1" d="M10.5.5h836a10,10,0,0,1,10,10v74a0,0,0,0,1,0,0H.5a0,0,0,0,1,0,0v-74A10,10,0,0,1,10.5.5Z"/><path class="cls-2" d="M.29,84.49H857.46a0,0,0,0,1,0,0V423.07a10,10,0,0,1-10,10H10.29a10,10,0,0,1-10-10V84.49A0,0,0,0,1,.29,84.49Z"/><text class="cls-3" transform="translate(15.11 52.38) scale(0.89 1)">Scott Richmond</text><text class="cls-4" transform="translate(15.69 144.86) scale(0.89 1)">Age:</text><rect class="cls-5" x="106.78" y="124.54" width="235.08" height="30.48" rx="13.15"/><text class="cls-6" transform="translate(117.99 144.41) scale(0.89 1)">F<tspan class="cls-7" x="7.38" y="0">o</tspan><tspan class="cls-8" x="15.66" y="0">r</tspan><tspan class="cls-7" x="21.49" y="0">ty One</tspan></text><text class="cls-4" transform="translate(15.69 224.12) scale(0.89 1)">Occupation:</text><rect class="cls-5" x="106.78" y="203.8" width="235.08" height="30.48" rx="13.15"/><text class="cls-9" transform="translate(118.72 223.66) scale(0.89 1)">C<tspan class="cls-10" x="10.58" y="0">E</tspan><tspan x="19.08" y="0">O (small business)</tspan></text><text class="cls-4" transform="translate(15.69 299.21) scale(0.89 1)">Status:</text><rect class="cls-5" x="106.78" y="278.89" width="235.08" height="30.48" rx="13.15"/><text class="cls-11" transform="translate(118.72 298.76) scale(0.89 1)">Di<tspan class="cls-12" x="15.6" y="0">v</tspan><tspan x="22.64" y="0">o</tspan><tspan class="cls-13" x="30.93" y="0">r</tspan><tspan class="cls-7" x="36.51" y="0">ced - No child</tspan><tspan class="cls-13" x="126.87" y="0">r</tspan><tspan class="cls-7" x="132.45" y="0">en</tspan></text><text class="cls-4" transform="translate(15.67 378.99) scale(0.89 1)">Location:</text><rect class="cls-5" x="106.76" y="358.66" width="235.1" height="30.48" rx="13.15"/><text class="cls-9" transform="translate(118.7 378.53) scale(0.89 1)">Houston, TX</text><text class="cls-4" transform="translate(367.16 144.86) scale(0.89 1)">Goals:</text><rect class="cls-5" x="470.38" y="124.54" width="362" height="30.48" rx="13.15"/><text class="cls-9" transform="translate(484.8 144.41) scale(0.89 1)">Bench-p<tspan class="cls-13" x="54.79" y="0">r</tspan><tspan x="60.37" y="0">ess 250 LBS</tspan></text><rect class="cls-5" x="470.38" y="164.17" width="362" height="30.48" rx="13.15"/><text class="cls-9" transform="translate(485.78 184.48) scale(0.89 1)">Find n<tspan class="cls-12" x="41.28" y="0">e</tspan><tspan x="48.62" y="0">w l</tspan><tspan class="cls-12" x="67.11" y="0">ov</tspan><tspan x="82.27" y="0">e</tspan></text><rect class="cls-5" x="470.38" y="203.8" width="362" height="30.48" rx="13.15"/><text class="cls-14" transform="translate(486.1 223.66) scale(0.89 1)">W<tspan class="cls-7" x="13.68" y="0">ork less, </tspan><tspan class="cls-13" x="71.23" y="0">r</tspan><tspan class="cls-15" x="76.81" y="0">elax mo</tspan><tspan class="cls-13" x="128.55" y="0">r</tspan><tspan class="cls-15" x="134.13" y="0">e</tspan></text><text class="cls-4" transform="translate(360.22 299.21) scale(0.89 1)"><tspan class="cls-16">F</tspan><tspan x="7.33" y="0">rust</tspan><tspan class="cls-17" x="32.17" y="0">r</tspan><tspan x="37.27" y="0">ations:</tspan></text><rect class="cls-5" x="465.85" y="278.89" width="366.57" height="30.48" rx="13.15"/><text class="cls-9" transform="translate(480.04 298.76) scale(0.89 1)">Ex-wife</text><rect class="cls-5" x="465.85" y="318.78" width="366.2" height="30.48" rx="13.15"/><text class="cls-11" transform="translate(481.03 339.09) scale(0.89 1)">Unexpected expenses</text><rect class="cls-5" x="465.85" y="358.66" width="366.2" height="30.48" rx="13.15"/><text class="cls-9" transform="translate(481.35 378.53) scale(0.89 1)">Expectation to kn<tspan class="cls-12" x="116.6" y="0">o</tspan><tspan class="cls-18" x="124.72" y="0">w h</tspan><tspan class="cls-12" x="147.38" y="0">o</tspan><tspan class="cls-18" x="155.5" y="0">w to do technology</tspan></text></g></g></svg>