<svg xmlns="http://www.w3.org/2000/svg" viewBox="0 0 620.25 302.44"><defs><style>.cls-1,.cls-10,.cls-11,.cls-12,.cls-3,.cls-4,.cls-7,.cls-8{font-size:25.73px;}.cls-1,.cls-3{fill:lime;}.cls-1,.cls-11,.cls-4,.cls-8{font-family:MrEavesModOT-Reg, Mr Eaves Mod OT;}.cls-2{letter-spacing:-0.01em;}.cls-10,.cls-12,.cls-13,.cls-3,.cls-7{font-family:MrEavesModOT-Book, Mr Eaves Mod OT;}.cls-4,.cls-7{fill:#daccff;}.cls-5{letter-spacing:-0.01em;}.cls-6{letter-spacing:-0.01em;}.cls-10,.cls-8{fill:aqua;}.cls-9{letter-spacing:-0.02em;}.cls-11,.cls-12{fill:#fff;}.cls-13{font-size:30.87px;fill:#f2f2f2;}.cls-14{letter-spacing:-0.02em;}.cls-15{letter-spacing:-0.01em;}.cls-16{letter-spacing:-0.03em;}.cls-17{letter-spacing:0.01em;}.cls-18{letter-spacing:-0.04em;}.cls-19{fill:none;stroke:#f2f2f2;stroke-miterlimit:10;}</style></defs><g id="Layer_2" data-name="Layer 2"><g id="Layer_1-2" data-name="Layer 1"><text class="cls-1" transform="translate(5.21 243.3)">Inc<tspan class="cls-2" x="27.32" y="0">r</tspan><tspan x="34.55" y="0">ease Unique Visitors</tspan></text><text class="cls-3" transform="translate(328.76 243.35)">4</text><text class="cls-3" transform="translate(515.73 243.35)">2</text><text class="cls-4" transform="translate(5.21 82.3)">Inc<tspan class="cls-2" x="27.32" y="0">r</tspan><tspan x="34.55" y="0">ease Co</tspan><tspan class="cls-5" x="109" y="0">n</tspan><tspan class="cls-6" x="120.49" y="0">v</tspan><tspan x="130.09" y="0">ersion Rate to </tspan><tspan x="0" y="30.87">email-list signed up</tspan></text><text class="cls-7" transform="translate(328.76 82.37)">5</text><text class="cls-7" transform="translate(515.73 82.37)">4</text><text class="cls-8" transform="translate(5.21 163.26)"><tspan class="cls-9">P</tspan><tspan class="cls-2" x="11.78" y="0">ro</tspan><tspan x="30.9" y="0">vide a Unique Aesthetic </tspan><tspan x="0" y="30.87">&amp; B</tspan><tspan class="cls-2" x="34.24" y="30.87">r</tspan><tspan x="41.47" y="30.87">and Solidification</tspan></text><text class="cls-10" transform="translate(328.76 163.26)">3</text><text class="cls-10" transform="translate(515.73 163.26)">4</text><text class="cls-11" transform="translate(5.21 295.99)">Inc<tspan class="cls-2" x="27.32" y="0">r</tspan><tspan x="34.55" y="0">ease Reoccurring Visitors</tspan></text><text class="cls-12" transform="translate(328.76 296.07)">3</text><text class="cls-12" transform="translate(515.73 296.07)">2</text><text class="cls-13" transform="translate(0 24.7)"><tspan class="cls-14">P</tspan><tspan class="cls-15" x="13.52" y="0">r</tspan><tspan x="21.58" y="0">oblem</tspan><tspan class="cls-16" x="88.2" y="0">/</tspan><tspan x="96.81" y="0">Oppo</tspan><tspan class="cls-17" x="160.77" y="0">r</tspan><tspan x="169.45" y="0">tunity</tspan></text><text class="cls-13" transform="translate(314.55 24.7)">Impo<tspan class="cls-17" x="54.76" y="0">r</tspan><tspan x="63.44" y="0">tance</tspan></text><text class="cls-13" transform="translate(501.52 24.7)"><tspan class="cls-18">F</tspan><tspan x="11.7" y="0">easibility</tspan></text><line class="cls-19" y1="38.7" x2="620.25" y2="37.94"/></g></g></svg>