<svg xmlns="http://www.w3.org/2000/svg" viewBox="0 0 1626 885.71"><defs><style>.cls-1{fill:#b6fab1;}.cls-13,.cls-2{font-size:22px;}.cls-13,.cls-2,.cls-35{font-family:MrEavesModOT-Reg, Mr Eaves Mod OT;}.cls-13,.cls-3,.cls-35,.cls-41{fill:#fff;}.cls-3{stroke:#333;stroke-linejoin:round;}.cls-4{letter-spacing:-0.02em;}.cls-5{letter-spacing:-0.01em;}.cls-6{letter-spacing:-0.05em;}.cls-7{letter-spacing:0.01em;}.cls-8{letter-spacing:-0.02em;}.cls-9{letter-spacing:-0.03em;}.cls-10{letter-spacing:0em;}.cls-11{letter-spacing:0.02em;}.cls-12{fill:#327a2d;}.cls-14{letter-spacing:0em;}.cls-15{letter-spacing:-0.01em;}.cls-16{letter-spacing:0.01em;}.cls-17{letter-spacing:0em;}.cls-18{fill:#71fb67;}.cls-19{letter-spacing:-0.01em;}.cls-20{letter-spacing:-0.04em;}.cls-21,.cls-29,.cls-31,.cls-33,.cls-42{fill:none;}.cls-21{stroke:#ff7bac;}.cls-21,.cls-29,.cls-30,.cls-31,.cls-33,.cls-42{stroke-miterlimit:10;}.cls-21,.cls-29,.cls-30,.cls-31,.cls-33{stroke-width:2px;}.cls-22{letter-spacing:-0.09em;}.cls-23{letter-spacing:0.03em;}.cls-24{letter-spacing:-0.04em;}.cls-25{letter-spacing:-0.03em;}.cls-26{letter-spacing:-0.07em;}.cls-27{fill:#597a57;}.cls-28{letter-spacing:-0.05em;}.cls-29{stroke:#f0f;}.cls-30,.cls-31{stroke:blue;}.cls-32{font-size:20.65px;font-family:NHaasGroteskDSPro-45Lt, Neue Haas Grotesk Display Pro;}.cls-33{stroke:#fbb03b;}.cls-34{fill:#333;}.cls-35{font-size:30px;}.cls-36{letter-spacing:-0.03em;}.cls-37{fill:blue;}.cls-38{fill:#fbb03b;}.cls-39{fill:#ff7bac;}.cls-40{fill:#f0f;}.cls-42{stroke:#666;}</style></defs><g id="Layer_2" data-name="Layer 2"><g id="Working_Layer" data-name="Working Layer"><rect class="cls-1" x="671.16" width="223" height="51" rx="12"/><text class="cls-2" transform="translate(758.39 31.66)">Home</text><rect class="cls-3" x="671.16" y="114.21" width="223" height="72" rx="12"/><text class="cls-2" transform="translate(686.96 144.11)"><tspan class="cls-4">P</tspan><tspan class="cls-5" x="10.08" y="0">r</tspan><tspan x="16.26" y="0">ominent Display of </tspan><tspan x="0" y="26.4">N</tspan><tspan class="cls-5" x="13.46" y="26.4">e</tspan><tspan x="22.37" y="26.4">w &amp; </tspan><tspan class="cls-6" x="57.77" y="26.4">F</tspan><tspan x="66.55" y="26.4">eatu</tspan><tspan class="cls-5" x="102.43" y="26.4">r</tspan><tspan x="108.61" y="26.4">ed A</tspan><tspan class="cls-7" x="144.91" y="26.4">r</tspan><tspan x="151.53" y="26.4">ticles</tspan></text><rect class="cls-3" x="671.16" y="204.21" width="223" height="51" rx="12"/><text class="cls-2" transform="translate(684.48 236.46)"><tspan xml:space="preserve">Email  Subscription </tspan><tspan class="cls-6" x="155.58" y="0">F</tspan><tspan x="164.36" y="0">orm</tspan></text><rect class="cls-3" x="671.16" y="274.21" width="223" height="72" rx="12"/><text class="cls-2" transform="translate(688.5 304.03)">Displays Me<tspan class="cls-5" x="96.05" y="0">r</tspan><tspan x="102.23" y="0">chandise </tspan><tspan x="0" y="26.4">&amp; Link to Ama</tspan><tspan class="cls-8" x="114.07" y="26.4">z</tspan><tspan x="121.61" y="26.4">on Sto</tspan><tspan class="cls-5" x="173" y="26.4">r</tspan><tspan x="179.19" y="26.4">e</tspan></text><rect class="cls-3" x="671.16" y="364.21" width="223" height="51" rx="12"/><text class="cls-2" transform="translate(700.89 396.47)">Highlights an author</text><rect class="cls-3" x="671.16" y="434.21" width="223" height="73" rx="12"/><text class="cls-2" transform="translate(704.63 466.09)">Dedicated <tspan class="cls-9" x="86.13" y="0">P</tspan><tspan class="cls-10" x="95.98" y="0">a</tspan><tspan class="cls-7" x="106.41" y="0">r</tspan><tspan x="113.03" y="0">tners </tspan><tspan x="0" y="26.4">Section</tspan></text><rect class="cls-3" x="353.75" y="232.21" width="223" height="50" rx="12"/><text class="cls-2" transform="translate(418.63 264.06)">He<tspan class="cls-5" x="22.92" y="0">r</tspan><tspan x="29.11" y="0">o Image</tspan></text><rect class="cls-3" x="353.75" y="299.21" width="223" height="50" rx="12"/><text class="cls-2" transform="translate(397.26 331.3)">Author “By-Lin<tspan class="cls-6" x="119.04" y="0">e</tspan><tspan x="127.18" y="0">”</tspan></text><rect class="cls-3" x="353.75" y="366.21" width="223" height="50" rx="12"/><text class="cls-2" transform="translate(385.21 398.53)">Social <tspan class="cls-11" x="52.31" y="0">“</tspan><tspan x="61.55" y="0">Sha</tspan><tspan class="cls-5" x="92.64" y="0">r</tspan><tspan class="cls-6" x="98.82" y="0">e</tspan><tspan x="106.96" y="0">” Links</tspan></text><rect class="cls-12" x="353.75" y="164.71" width="223" height="51" rx="12"/><text class="cls-13" transform="translate(401.93 196.58)">Single Blog <tspan class="cls-9" x="92.88" y="0">P</tspan><tspan class="cls-14" x="102.74" y="0">ost</tspan></text><rect class="cls-3" x="36.5" y="628.21" width="223" height="72" rx="12"/><text class="cls-2" transform="translate(52.3 658.46)"><tspan class="cls-4">P</tspan><tspan class="cls-5" x="10.08" y="0">r</tspan><tspan x="16.26" y="0">ominent Display of </tspan><tspan x="0" y="26.4">N</tspan><tspan class="cls-5" x="13.46" y="26.4">e</tspan><tspan x="22.37" y="26.4">w &amp; </tspan><tspan class="cls-6" x="57.77" y="26.4">F</tspan><tspan x="66.55" y="26.4">eatu</tspan><tspan class="cls-5" x="102.43" y="26.4">r</tspan><tspan x="108.61" y="26.4">ed A</tspan><tspan class="cls-7" x="144.91" y="26.4">r</tspan><tspan x="151.53" y="26.4">ticles</tspan></text><rect class="cls-3" x="36.5" y="731.21" width="223" height="51" rx="12"/><text class="cls-2" transform="translate(49.82 762.99)"><tspan xml:space="preserve">Email  Subscription </tspan><tspan class="cls-6" x="155.58" y="0">F</tspan><tspan x="164.36" y="0">orm</tspan></text><rect class="cls-3" x="36.5" y="813.21" width="223" height="72" rx="12"/><text class="cls-2" transform="translate(86.87 843.24)">B<tspan class="cls-15" x="11.11" y="0">ro</tspan><tspan x="27.46" y="0">wse a</tspan><tspan class="cls-16" x="71.61" y="0">r</tspan><tspan class="cls-17" x="78.23" y="0">ticles </tspan><tspan x="0" y="26.4">(sea</tspan><tspan class="cls-5" x="34.01" y="26.4">r</tspan><tspan x="40.19" y="26.4">ch &amp; tags)</tspan></text><rect class="cls-18" x="38" y="64.71" width="220" height="51" rx="12"/><text class="cls-2" transform="translate(103.92 97.04)">Meditation</text><rect class="cls-18" x="38" y="151.11" width="220" height="51" rx="12"/><text class="cls-2" transform="translate(120.97 183.36)">Health</text><rect class="cls-18" x="38" y="237.51" width="220" height="51" rx="12"/><text class="cls-2" transform="translate(104.91 269.11)">Spirituality</text><rect class="cls-18" x="38" y="323.91" width="220" height="78" rx="12"/><text class="cls-2" transform="translate(96.17 356.92)">Alternati<tspan class="cls-5" x="70.13" y="0">v</tspan><tspan x="78.34" y="0">e </tspan><tspan x="0" y="26.4">The</tspan><tspan class="cls-19" x="30.98" y="26.4">r</tspan><tspan x="37.16" y="26.4">apeutics</tspan></text><rect class="cls-18" x="38" y="437.31" width="220" height="51" rx="12"/><text class="cls-2" transform="translate(110.92 469.62)">Daily Life</text><rect class="cls-18" x="38" y="523.71" width="220" height="51" rx="12"/><text class="cls-2" transform="translate(92.22 556.38)"><tspan class="cls-20">F</tspan><tspan class="cls-14" x="8.78" y="0">ar Out The</tspan><tspan class="cls-19" x="96.25" y="0">r</tspan><tspan x="102.43" y="0">e</tspan></text><line class="cls-21" x1="972" y1="87.71" x2="1030" y2="87.71"/><line class="cls-21" x1="972" y1="290.71" x2="1030" y2="290.71"/><line class="cls-21" x1="972" y1="538.71" x2="1030" y2="538.71"/><rect class="cls-3" x="1320.5" y="6.21" width="223" height="72" rx="12"/><text class="cls-2" transform="translate(1345.95 36.61)">Expanded <tspan class="cls-22" x="84.3" y="0">V</tspan><tspan x="95.26" y="0">ersion of</tspan><tspan x="0" y="26.4">“Highlighted Autho</tspan><tspan class="cls-23" x="156.24" y="26.4">r</tspan><tspan x="163.3" y="26.4">”</tspan></text><rect class="cls-3" x="1320.5" y="97.21" width="223" height="72" rx="12"/><text class="cls-2" transform="translate(1340.44 127.61)">Sh<tspan class="cls-5" x="20.66" y="0">o</tspan><tspan x="30.82" y="0">ws All Authors and </tspan><tspan x="0" y="26.4">their Contact Info.</tspan></text><rect class="cls-3" x="1320.5" y="302.21" width="223" height="50" rx="12"/><text class="cls-2" transform="translate(1351.17 334.02)">Di<tspan class="cls-5" x="18.17" y="0">r</tspan><tspan x="24.35" y="0">ect Contact </tspan><tspan class="cls-24" x="120.87" y="0">F</tspan><tspan class="cls-17" x="129.64" y="0">orm</tspan></text><rect class="cls-3" x="1320.5" y="230.21" width="223" height="51" rx="12"/><text class="cls-2" transform="translate(1341.05 261.98)">Compa<tspan class="cls-8" x="59.88" y="0">n</tspan><tspan x="69.72" y="0">y Contact Info</tspan></text><rect class="cls-3" x="1320.5" y="591.21" width="223" height="72" rx="12"/><text class="cls-2" transform="translate(1353.97 623.29)">Section for <tspan x="0" y="26.4">Becoming a </tspan><tspan class="cls-25" x="97.3" y="26.4">P</tspan><tspan x="107.16" y="26.4">a</tspan><tspan class="cls-7" x="117.59" y="26.4">r</tspan><tspan x="124.21" y="26.4">tner</tspan></text><rect class="cls-3" x="1320.5" y="525.21" width="223" height="50" rx="12"/><text class="cls-2" transform="translate(1338.03 556.71)">Links to <tspan class="cls-25" x="64.68" y="0">P</tspan><tspan x="74.53" y="0">a</tspan><tspan class="cls-16" x="84.96" y="0">r</tspan><tspan class="cls-17" x="91.58" y="0">ter </tspan><tspan class="cls-26" x="117.08" y="0">W</tspan><tspan x="133.98" y="0">ebsites</tspan></text><rect class="cls-3" x="1320.5" y="413.21" width="223" height="95" rx="12"/><text class="cls-2" transform="translate(1351.54 442.84)">Cur<tspan class="cls-5" x="29.99" y="0">r</tspan><tspan x="36.17" y="0">ent O</tspan><tspan class="cls-11" x="81.16" y="0">f</tspan><tspan class="cls-10" x="87.27" y="0">fers f</tspan><tspan class="cls-5" x="125.33" y="0">r</tspan><tspan x="131.51" y="0">om </tspan><tspan class="cls-9" x="0" y="26.4">P</tspan><tspan class="cls-10" x="9.86" y="26.4">a</tspan><tspan class="cls-7" x="20.28" y="26.4">r</tspan><tspan x="26.91" y="26.4">tners for Email </tspan><tspan x="0" y="52.8">En</tspan><tspan class="cls-5" x="20.72" y="52.8">r</tspan><tspan x="26.91" y="52.8">olled Audience</tspan></text><rect class="cls-3" x="1320.5" y="724.21" width="223" height="72" rx="12"/><text class="cls-2" transform="translate(1363.63 754.65)">Basic Statistics of<tspan x="0" y="26.4">Audience, etc...</tspan></text><rect class="cls-3" x="1320.5" y="813.21" width="223" height="72" rx="12"/><text class="cls-2" transform="translate(1357.05 843.65)"><tspan class="cls-4">P</tspan><tspan class="cls-5" x="10.08" y="0">r</tspan><tspan x="16.26" y="0">ospecti</tspan><tspan class="cls-5" x="72.55" y="0">v</tspan><tspan x="80.76" y="0">e Author</tspan><tspan x="0" y="26.4">Contact </tspan><tspan class="cls-6" x="68.97" y="26.4">F</tspan><tspan x="77.75" y="26.4">orm</tspan></text><rect class="cls-27" x="1039.5" y="61.71" width="223" height="51" rx="12"/><text class="cls-13" transform="translate(1119.21 93.86)">Authors</text><rect class="cls-27" x="1039.5" y="265.71" width="223" height="51" rx="12"/><text class="cls-13" transform="translate(1105.62 297.57)">Contact Us</text><rect class="cls-27" x="1039.5" y="512.71" width="223" height="51" rx="12"/><text class="cls-13" transform="translate(1117.94 545.11)"><tspan class="cls-9">P</tspan><tspan class="cls-10" x="9.86" y="0">a</tspan><tspan class="cls-7" x="20.28" y="0">r</tspan><tspan x="26.91" y="0">tners</tspan></text><rect class="cls-27" x="1039.5" y="779.71" width="223" height="51" rx="12"/><text class="cls-13" transform="translate(1101.81 811.32)"><tspan class="cls-28">W</tspan><tspan class="cls-14" x="17.34" y="0">rite </tspan><tspan class="cls-6" x="47.21" y="0">F</tspan><tspan x="55.99" y="0">or Us</tspan></text><path class="cls-21" d="M907,24.71h57a7,7,0,0,1,7,7l.18,766a7,7,0,0,0,7,7l50.8-.11"/><line class="cls-29" x1="1272" y1="290.71" x2="1307" y2="290.71"/><line class="cls-29" x1="1272" y1="86.71" x2="1307" y2="86.71"/><line class="cls-29" x1="1272" y1="537.71" x2="1307" y2="537.71"/><line class="cls-29" x1="1272" y1="804.71" x2="1307" y2="804.71"/><path class="cls-29" d="M1557,536.71h28a7,7,0,0,0,7-7l-.1-233a7,7,0,0,0-7-7H1557"/><path class="cls-29" d="M1557,804.71h61a7,7,0,0,0,7-7l-.2-704a7,7,0,0,0-7-7H1557"/><line class="cls-30" x1="29" y1="91.62" x2="1" y2="91.62"/><line class="cls-30" x1="29" y1="176.15" x2="1" y2="176.15"/><line class="cls-30" x1="29" y1="259.55" x2="1" y2="259.55"/><line class="cls-30" x1="29" y1="357.79" x2="1" y2="357.79"/><line class="cls-30" x1="29" y1="461.75" x2="1" y2="461.75"/><path class="cls-31" d="M29,549.71H19.49C9.28,549.71,1,540.25,1,528.58V43.07C1,31.41,9.27,22,19.49,21.94L315,21.71"/><line class="cls-31" x1="661" y1="22.71" x2="371" y2="22.71"/><text class="cls-32" transform="translate(323.24 29.76)">Blog</text><line class="cls-31" x1="267" y1="174.17" x2="295" y2="174.17"/><line class="cls-31" x1="267" y1="257.49" x2="295" y2="257.49"/><line class="cls-31" x1="267" y1="355.65" x2="295" y2="355.65"/><line class="cls-31" x1="267" y1="459.52" x2="295" y2="459.52"/><path class="cls-31" d="M267,547.4h21c3.86,0,7-3.57,7-8l.27-449.71H267"/><path class="cls-31" d="M295,89.71l110-.4a7,7,0,0,1,7,7v49.4"/><polyline class="cls-31" points="424.19 129.44 411.69 147.02 398.81 129.76"/><path class="cls-33" d="M783,62.71v17a7,7,0,0,1-7,7H517a7,7,0,0,0-7,7.05l.39,52"/><polyline class="cls-33" points="497.59 128.45 510.09 146.03 522.96 128.78"/><rect class="cls-34" x="343.5" y="628.71" width="551" height="257" rx="7"/><text class="cls-35" transform="translate(351.14 663.51)"><tspan class="cls-36">P</tspan><tspan x="13.44" y="0">ages</tspan></text><text class="cls-13" transform="translate(750.29 841.76)">Routes</text><rect class="cls-37" x="635.29" y="763.1" width="39" height="39"/><rect class="cls-38" x="635.29" y="816.1" width="39" height="39"/><rect class="cls-39" x="685.65" y="763.1" width="39" height="39"/><rect class="cls-40" x="685.65" y="816.1" width="39" height="39"/><text class="cls-13" transform="translate(725.07 708.65)">Impo<tspan class="cls-7" x="40.79" y="0">r</tspan><tspan x="47.41" y="0">tant Content</tspan></text><rect class="cls-41" x="635.29" y="667.99" width="69" height="69"/><rect class="cls-3" x="639.29" y="671.99" width="61" height="61" rx="7"/><text class="cls-13" transform="translate(427.48 708.65)">Most Impo<tspan class="cls-16" x="85.05" y="0">r</tspan><tspan x="91.67" y="0">tant</tspan></text><rect class="cls-1" x="370.14" y="682.99" width="39" height="39"/><rect class="cls-18" x="370.14" y="749.54" width="39" height="39"/><text class="cls-13" transform="translate(427.33 841.76)">Least Impo<tspan class="cls-7" x="87.45" y="0">r</tspan><tspan x="94.07" y="0">tant</tspan></text><rect class="cls-27" x="370" y="816.1" width="39" height="39"/><line class="cls-42" x1="596" y1="646.71" x2="596" y2="867.71"/></g></g></svg>