<svg xmlns="http://www.w3.org/2000/svg" viewBox="0 0 187.64 102.89"><line x1="58.69" y1="102.53" x2="7.01" y2="51.39" style="fill:#cad08f;stroke:#fff;stroke-miterlimit:10"/><line x1="55.43" y1="102.53" x2="3.83" y2="51.39" style="fill:#cad08f;stroke:#fff;stroke-miterlimit:10"/><line x1="52.1" y1="102.53" x2="0.5" y2="51.39" style="fill:#cad08f;stroke:#fff;stroke-miterlimit:10"/><polyline points="58.69 0.5 55.43 0.52 52.1 0.54 7.09 0.77 3.83 0.78 0.5 0.8" style="fill:#cad08f;stroke:#fff;stroke-miterlimit:10"/><polyline points="58.69 2.78 55.43 2.8 52.1 2.81 7.09 3.01 3.83 3.02 0.5 3.04" style="fill:#cad08f;stroke:#fff;stroke-miterlimit:10"/><polyline points="58.69 5.13 55.43 5.14 52.1 5.16 7.09 5.36 3.83 5.37 0.5 5.39" style="fill:#cad08f;stroke:#fff;stroke-miterlimit:10"/><line x1="58.69" y1="0.45" x2="58.69" y2="102.38" style="fill:#cad08f;stroke:#fff;stroke-miterlimit:10"/><line x1="55.43" y1="0.45" x2="55.43" y2="102.38" style="fill:#cad08f;stroke:#fff;stroke-miterlimit:10"/><line x1="52.1" y1="0.45" x2="52.1" y2="102.38" style="fill:#cad08f;stroke:#fff;stroke-miterlimit:10"/><line x1="32.97" y1="0.45" x2="32.97" y2="102.38" style="fill:#cad08f;stroke:#fff;stroke-miterlimit:10"/><line x1="29.71" y1="0.45" x2="29.71" y2="102.38" style="fill:#cad08f;stroke:#fff;stroke-miterlimit:10"/><line x1="26.38" y1="0.45" x2="26.38" y2="102.38" style="fill:#cad08f;stroke:#fff;stroke-miterlimit:10"/><line x1="7.09" y1="0.45" x2="7.09" y2="102.38" style="fill:#cad08f;stroke:#fff;stroke-miterlimit:10"/><line x1="3.83" y1="0.45" x2="3.83" y2="102.38" style="fill:#cad08f;stroke:#fff;stroke-miterlimit:10"/><line x1="0.5" y1="0.45" x2="0.5" y2="102.38" style="fill:#cad08f;stroke:#fff;stroke-miterlimit:10"/><path d="M71.18,57.56c0,2.9,1.58,5.22,5.1,5.22a4.12,4.12,0,0,0,4.35-2.9h1.3c-.58,2.24-2.46,3.9-5.65,3.9-4.21,0-6.48-2.62-6.48-6.33A6.44,6.44,0,0,1,79.94,52.3c1.58,1.24,2.1,3,2.07,5.26Zm5-5.44a4.66,4.66,0,0,0-5,4.51h9.42C80.55,54.24,79.33,52.12,76.17,52.12Z" style="fill:#fff"/><path d="M85.36,51.39h1.45L90,59.06c.5,1.24,1.31,3.39,1.31,3.39h0s.83-2.15,1.36-3.39L96,51.39h1.39L92.15,63.48H90.46Z" style="fill:#fff"/><path d="M102.12,57.56c0,2.9,1.58,5.22,5.1,5.22a4.12,4.12,0,0,0,4.35-2.9h1.3c-.58,2.24-2.46,3.9-5.65,3.9-4.21,0-6.48-2.62-6.48-6.33a6.44,6.44,0,0,1,10.14-5.15c1.58,1.24,2.11,3,2.08,5.26Zm5-5.44a4.66,4.66,0,0,0-5,4.51h9.42C111.49,54.24,110.27,52.12,107.11,52.12Z" style="fill:#fff"/><path d="M119.22,53.78h0a4.75,4.75,0,0,1,2-1.92,5.38,5.38,0,0,1,2.63-.54v1.15a5.25,5.25,0,0,0-2,.28,4,4,0,0,0-2.68,3.74v7h-1.36V51.39h1.36Z" style="fill:#fff"/><path d="M129.05,67.33v-1h.06a5.2,5.2,0,0,0,1.13.11,2.53,2.53,0,0,0,2.58-1.75l.41-1-5.48-12.27h1.41l3.49,8c.53,1.19,1.25,3,1.25,3H134s.66-1.8,1.16-3l3.32-8h1.39l-5.76,13.54a3.68,3.68,0,0,1-3.94,2.54A4.17,4.17,0,0,1,129.05,67.33Z" style="fill:#fff"/><path d="M143,57.47c0-4,2.69-6.34,6-6.34a5.28,5.28,0,0,1,4.85,2.46H154V46.76h1.36V63.48H154v-2h-.06a5.45,5.45,0,0,1-4.82,2.31C145.26,63.78,143,61.07,143,57.47Zm11.06,0c0-3.06-1.75-5.37-4.94-5.37-2.93,0-4.73,2.15-4.73,5.37,0,2.9,1.49,5.33,4.71,5.33S154.1,60.7,154.1,57.49Z" style="fill:#fff"/><path d="M170,62v-.42h-.09a6.21,6.21,0,0,1-5.18,2.17c-2.63,0-4.57-1.14-4.57-3.37,0-2.87,2.66-3.46,5.65-3.71,3.38-.28,4.16-.42,4.16-1.54v-.43c0-1.82-1.28-2.61-3.6-2.61-2.69,0-4.13.93-4.33,2.71h-1.38c.28-2.34,2.13-3.7,5.71-3.7,3.18,0,5,1.2,5,3.67v7.11c0,.66.41.84.91.84a2.52,2.52,0,0,0,.67-.11H173v.84a2.84,2.84,0,0,1-1.11.18C170.77,63.66,170,63.15,170,62Zm0-2.85V56.93a15.21,15.21,0,0,1-4,.73c-2.52.23-4.43.51-4.43,2.8,0,1.71,1.49,2.36,3.32,2.36C168.11,62.82,170,61,170,59.18Z" style="fill:#fff"/><path d="M176.87,67.33v-1h0a5.32,5.32,0,0,0,1.14.11,2.51,2.51,0,0,0,2.57-1.75l.42-1-5.49-12.27H177l3.49,8c.52,1.19,1.24,3,1.24,3h.06s.66-1.8,1.16-3l3.33-8h1.38l-5.76,13.54A3.67,3.67,0,0,1,178,67.47,4.1,4.1,0,0,1,176.87,67.33Z" style="fill:#fff"/><path d="M70.44,98.17l20.33-19.3v-.12h-19V73.91h28v4.84L80.08,97.49v.12h20v4.92H70.44Z" style="fill:#fff"/><path d="M113.44,73.91h27.42v4.88H121V85.2h17.41V90H121v7.73h20v4.84H113.44Z" style="fill:#fff"/><path d="M154.62,73.91h7.66l12.41,16a43.6,43.6,0,0,1,2.6,4h.11s-.21-3-.21-5v-15h7.45v28.62h-7.29L164.63,86.72a46.38,46.38,0,0,1-2.66-4h-.11s.21,3,.21,5v14.77h-7.45Z" style="fill:#fff"/></svg>