<svg xmlns="http://www.w3.org/2000/svg" viewBox="0 0 210.24 125.42"><line x1="71.54" y1="125.07" x2="8.45" y2="62.63" style="fill:#80443b;stroke:#40221d;stroke-miterlimit:10"/><line x1="67.56" y1="125.07" x2="4.57" y2="62.63" style="fill:#80443b;stroke:#40221d;stroke-miterlimit:10"/><line x1="63.49" y1="125.07" x2="0.5" y2="62.63" style="fill:#80443b;stroke:#40221d;stroke-miterlimit:10"/><polyline points="71.54 0.5 67.56 0.52 63.49 0.54 8.54 0.83 4.57 0.84 0.5 0.87" style="fill:#80443b;stroke:#40221d;stroke-miterlimit:10"/><polyline points="71.54 3.29 67.56 3.31 63.49 3.32 8.54 3.56 4.57 3.58 0.5 3.6" style="fill:#80443b;stroke:#40221d;stroke-miterlimit:10"/><polyline points="71.54 6.15 67.56 6.17 63.49 6.19 8.54 6.43 4.57 6.45 0.5 6.47" style="fill:#80443b;stroke:#40221d;stroke-miterlimit:10"/><line x1="71.54" y1="0.44" x2="71.54" y2="124.87" style="fill:#80443b;stroke:#40221d;stroke-miterlimit:10"/><line x1="67.56" y1="0.44" x2="67.56" y2="124.87" style="fill:#80443b;stroke:#40221d;stroke-miterlimit:10"/><line x1="63.49" y1="0.44" x2="63.49" y2="124.87" style="fill:#80443b;stroke:#40221d;stroke-miterlimit:10"/><line x1="40.14" y1="0.44" x2="40.14" y2="124.87" style="fill:#80443b;stroke:#40221d;stroke-miterlimit:10"/><line x1="36.16" y1="0.44" x2="36.16" y2="124.87" style="fill:#80443b;stroke:#40221d;stroke-miterlimit:10"/><line x1="32.09" y1="0.44" x2="32.09" y2="124.87" style="fill:#80443b;stroke:#40221d;stroke-miterlimit:10"/><line x1="8.54" y1="0.44" x2="8.54" y2="124.87" style="fill:#80443b;stroke:#40221d;stroke-miterlimit:10"/><line x1="4.57" y1="0.44" x2="4.57" y2="124.87" style="fill:#80443b;stroke:#40221d;stroke-miterlimit:10"/><line x1="0.5" y1="0.44" x2="0.5" y2="124.87" style="fill:#80443b;stroke:#40221d;stroke-miterlimit:10"/><path d="M82.8,76.1c0,2.89,1.73,5.21,5.58,5.21,2.82,0,4.12-1.26,4.76-2.9h1.42c-.64,2.24-2.7,3.9-6.18,3.9-4.61,0-7.1-2.61-7.1-6.33s2.7-6.31,7-6.31a6.92,6.92,0,0,1,4.13,1.17c1.73,1.24,2.3,3,2.27,5.26Zm5.45-5.45c-3.39,0-5.12,2-5.42,4.51H93.14C93.05,72.78,91.71,70.65,88.25,70.65Z" style="fill:#40221d"/><path d="M98.32,69.92h1.57l3.46,7.67c.55,1.24,1.43,3.39,1.43,3.39h.06s.91-2.15,1.48-3.39L110,69.92h1.52L105.75,82H103.9Z" style="fill:#40221d"/><path d="M116.66,76.1c0,2.89,1.73,5.21,5.58,5.21,2.82,0,4.12-1.26,4.76-2.9h1.42c-.64,2.24-2.7,3.9-6.18,3.9-4.61,0-7.1-2.61-7.1-6.33s2.7-6.31,7-6.31a6.91,6.91,0,0,1,4.12,1.17c1.73,1.24,2.3,3,2.27,5.26Zm5.46-5.45c-3.4,0-5.13,2-5.43,4.51H127C126.91,72.78,125.57,70.65,122.12,70.65Z" style="fill:#40221d"/><path d="M135.36,72.31h.06a5.12,5.12,0,0,1,2.22-1.92,6.39,6.39,0,0,1,2.88-.54V71a6.48,6.48,0,0,0-2.22.28A4.06,4.06,0,0,0,135.36,75v7h-1.48V69.92h1.48Z" style="fill:#40221d"/><path d="M146.12,85.87v-1h.06a5.43,5.43,0,0,0,1.25.12,2.77,2.77,0,0,0,2.82-1.76l.45-1-6-12.28h1.54l3.82,8c.58,1.19,1.37,3,1.37,3h.06s.73-1.8,1.27-3l3.64-8h1.52l-6.31,13.54c-.91,2-2.18,2.55-4.31,2.55A5,5,0,0,1,146.12,85.87Z" style="fill:#40221d"/><path d="M161.43,76c0-4,2.94-6.33,6.58-6.33,2.52,0,4.3.91,5.31,2.45h.06V65.3h1.48V82h-1.48V80h-.06A6.17,6.17,0,0,1,168,82.31C163.86,82.31,161.43,79.6,161.43,76Zm12.1,0a5,5,0,0,0-5.4-5.38c-3.21,0-5.18,2.15-5.18,5.38,0,2.89,1.63,5.33,5.15,5.33S173.53,79.23,173.53,76Z" style="fill:#40221d"/><path d="M190.93,80.56v-.42h-.09c-.88,1-2.46,2.17-5.67,2.17-2.88,0-5-1.14-5-3.36,0-2.88,2.91-3.46,6.19-3.72,3.7-.28,4.55-.42,4.55-1.54v-.42c0-1.83-1.4-2.62-3.94-2.62-3,0-4.52.93-4.73,2.71h-1.52C181,71,183,69.67,187,69.67c3.48,0,5.42,1.19,5.42,3.67v7.1c0,.66.46.85,1,.85a3,3,0,0,0,.73-.12h.09V82a3.29,3.29,0,0,1-1.21.19C191.78,82.2,190.93,81.68,190.93,80.56Zm0-2.85V75.46a17.56,17.56,0,0,1-4.37.73c-2.76.23-4.85.51-4.85,2.8,0,1.71,1.64,2.37,3.64,2.37C188.87,81.36,190.9,79.53,190.9,77.71Z" style="fill:#40221d"/><path d="M198.44,85.87v-1h.06a5.51,5.51,0,0,0,1.25.12,2.77,2.77,0,0,0,2.82-1.76l.45-1-6-12.28h1.54l3.82,8c.58,1.19,1.37,3,1.37,3h.06s.73-1.8,1.27-3l3.64-8h1.52l-6.31,13.54c-.91,2-2.18,2.55-4.3,2.55A5,5,0,0,1,198.44,85.87Z" style="fill:#40221d"/><path d="M81.93,120.7l22.83-19.3v-.12H83.39V96.44h31.44v4.84L92.76,120v.12h22.48v4.93H81.93Z" style="fill:#40221d"/><path d="M130.23,96.44H161v4.88h-22.3v6.41h19.55v4.77H138.72v7.72H161.2v4.85h-31Z" style="fill:#40221d"/><path d="M176.48,96.44h8.6l13.94,16a46.61,46.61,0,0,1,2.92,4h.12s-.23-3-.23-5v-15h8.37v28.63H202l-14.28-15.82a46.1,46.1,0,0,1-3-4h-.12s.24,3,.24,5v14.78h-8.37Z" style="fill:#40221d"/></svg>