<svg xmlns="http://www.w3.org/2000/svg" viewBox="0 0 738 1085"><defs><style>.a{fill:#1a1a1a;}.b{fill:#fff;}.c{fill:#fbfbfa;}.d{fill:#cfdacb;}.e{fill:#bac4b6;}.f{fill:#445e34;}.g{fill:#de0018;}.h{fill:#80000e;}.i{fill:#382513;}.j{fill:#333;}</style></defs><rect class="a" width="738" height="1090"/><rect class="b" x="51" y="75" width="90" height="60"/><path class="b" d="M168.43,86.23h-2.19l.3-1.71h2.16l.67-3.88h-2.2l.3-1.71h2.17l.69-3.93H172l-.66,3.93h2.92L174.9,75h1.62l-.66,3.93h2.19l-.33,1.71h-2.13l-.69,3.88h2.22l-.33,1.71h-2.16l-.7,4h-1.62l.69-4h-2.94l-.69,4h-1.63Zm4.84-1.71.66-3.88H171l-.69,3.88Z"/><path class="b" d="M180.73,75h10.91v2h-8.51V82.5h7v2h-7V93h-2.4Z"/><path class="b" d="M194.08,75H205v2h-8.51V82.5h7v2h-7V93h-2.4Z"/><path class="b" d="M207.42,75h10.91v2h-8.5V82.5h7v2h-7V93h-2.41Z"/><path class="b" d="M220.77,75h10.91v2h-8.51V82.5h7v2h-7V93h-2.4Z"/><path class="b" d="M234.12,75H245v2h-8.5V82.5h7v2h-7V93h-2.4Z"/><path class="b" d="M247.46,75h10.91v2h-8.5V82.5h7v2h-7V93h-2.41Z"/><path class="b" d="M172.4,113H166v-2h15.21v2h-6.4v16H172.4Z"/><path class="b" d="M188.48,123.62h-7.36c-.18,1.65.51,4.08,3.88,4.08a5.36,5.36,0,0,0,3.45-1.44V128a6.06,6.06,0,0,1-4.08,1.41,5.21,5.21,0,0,1-5.41-5.53,5.14,5.14,0,0,1,5.11-5.49,4.31,4.31,0,0,1,4.56,4.11A4.71,4.71,0,0,1,188.48,123.62ZM184.1,120a2.79,2.79,0,0,0-2.8,2.19h5.17a1.14,1.14,0,0,0,0-.24C186.5,121,185.69,120,184.1,120Z"/><path class="b" d="M199.37,129l-3.13-3.88L193.08,129h-2.43l4.42-5.2-4.21-5h2.43l3,3.69,3-3.69h2.34l-4.18,5,4.39,5.23Z"/><path class="b" d="M207.69,120.23V129H205.5v-8.8h-2.07v-1.44h2.07v-3.45h2.19v3.45h2.05v1.44Z"/><path class="b" d="M223.08,129.48a5.58,5.58,0,1,1,5.92-5.59A5.76,5.76,0,0,1,223.08,129.48Zm0-9.43a3.86,3.86,0,1,0,3.73,3.84A3.66,3.66,0,0,0,223.08,120.05Z"/><path class="b" d="M240,129v-6c0-1.95-.82-2.82-2.38-2.82s-3.33,1.29-3.33,3V129h-2.2V118.79h2l.15,1.77a5.16,5.16,0,0,1,4.14-2.16c2.77,0,3.85,1.92,3.85,4.47V129Z"/><path class="b" d="M251.31,111h5.59c7,0,10,4.06,10,9s-3,9-10,9h-5.59Zm5.62,15.91c5.86,0,7.51-3.3,7.51-6.9s-1.65-6.9-7.51-6.9h-3.21v13.8Z"/><path class="b" d="M278.51,129l-.12-1.63a4.83,4.83,0,0,1-4,2c-2.74,0-5-2.26-5-5.53s2.25-5.49,5-5.49a4.93,4.93,0,0,1,4,2l.12-1.62h2V129Zm-6.88-5.11c0,2.52,1.65,3.81,3.31,3.81a3.85,3.85,0,0,0,0-7.65C273.28,120.08,271.63,121.4,271.63,123.92Z"/><path class="b" d="M286.45,123.08v6h-2.19V118.79h1.95l.15,1.77a4.85,4.85,0,0,1,4-2.16v2.22C288.4,120.26,286.45,121.37,286.45,123.08Z"/><path class="b" d="M300,129l-4.75-5.29V129H293V111h2.2v12.16l4.75-4.38h2.49l-5.05,4.56,5.26,5.68Z"/><path class="b" d="M315.64,111h5.95c3.67,0,5.23,2.14,5.23,4.72a4.76,4.76,0,0,1-1.89,3.54,4.89,4.89,0,0,1,2.85,4.47c0,2.91-1.77,5.29-5.89,5.29h-6.25Zm5.95,7.45c2.25,0,3-1.35,3-2.73s-.7-2.7-3-2.7H318v5.43Zm.3,8.55c2.71,0,3.52-1.62,3.52-3.27s-.81-3.27-3.52-3.27H318V127Z"/><path class="b" d="M339.18,129l-.12-1.63a4.86,4.86,0,0,1-4,2c-2.74,0-5-2.26-5-5.53s2.25-5.49,5-5.49a5,5,0,0,1,4,2l.12-1.62h1.95V129Zm-6.89-5.11c0,2.52,1.66,3.81,3.31,3.81a3.84,3.84,0,0,0,0-7.65C334,120.08,332.29,121.4,332.29,123.92Z"/><path class="b" d="M349.88,129.36a5.45,5.45,0,1,1,0-10.9,5.73,5.73,0,0,1,3.57,1.17v1.83a4.77,4.77,0,0,0-3.39-1.29,3.74,3.74,0,0,0,0,7.47,4.77,4.77,0,0,0,3.39-1.29v1.84A5.73,5.73,0,0,1,349.88,129.36Z"/><path class="b" d="M363.4,129l-4.74-5.29V129h-2.2V111h2.2v12.16l4.74-4.38h2.5l-5,4.56,5.26,5.68Z"/><path class="b" d="M372.84,135a8.54,8.54,0,0,1-4.23-1.26v-1.89a7.25,7.25,0,0,0,4.47,1.38c1.72,0,3.43-1,3.43-4v-1.62a4.77,4.77,0,0,1-3.85,1.86c-2.73,0-5-2.29-5-5.5s2.26-5.52,5-5.52a4.85,4.85,0,0,1,4,2l.12-1.62h1.95v10.06C378.7,133.89,375.52,135,372.84,135Zm.33-14.92c-1.65,0-3.3,1.29-3.3,3.81s1.65,3.84,3.3,3.84a3.84,3.84,0,0,0,0-7.65Z"/><path class="b" d="M384.69,123.08v6h-2.2V118.79h2l.15,1.77a4.84,4.84,0,0,1,4-2.16v2.22C386.64,120.26,384.69,121.37,384.69,123.08Z"/><path class="b" d="M396.14,129.48a5.58,5.58,0,1,1,5.92-5.59A5.75,5.75,0,0,1,396.14,129.48Zm0-9.43a3.86,3.86,0,1,0,3.73,3.84A3.67,3.67,0,0,0,396.14,120.05Z"/><path class="b" d="M413.27,129l-.15-1.78a5.15,5.15,0,0,1-4.14,2.17c-2.77,0-3.85-1.92-3.85-4.48v-6.15h2.19v6c0,2,.81,2.82,2.38,2.82s3.33-1.29,3.33-3v-5.85h2.2V129Z"/><path class="b" d="M426.92,129v-6c0-1.95-.81-2.82-2.37-2.82s-3.34,1.29-3.34,3V129H419V118.79h2l.15,1.77a5.18,5.18,0,0,1,4.15-2.16c2.76,0,3.85,1.92,3.85,4.47V129Z"/><path class="b" d="M441.41,129l-.12-1.63a4.84,4.84,0,0,1-4,2c-2.73,0-5-2.26-5-5.53a5.16,5.16,0,0,1,5-5.49,4.77,4.77,0,0,1,3.85,1.86V111h2.19v18Zm-6.88-5.11c0,2.52,1.65,3.81,3.3,3.81a3.84,3.84,0,0,0,0-7.65C436.18,120.08,434.53,121.4,434.53,123.92Z"/><rect class="c" x="50" y="185" width="90" height="60"/><path class="b" d="M168.19,196.23H166l.3-1.71h2.16l.67-3.88h-2.2l.3-1.71h2.17l.69-3.93h1.62l-.66,3.93H174l.7-3.93h1.62l-.66,3.93h2.19l-.33,1.71h-2.13l-.69,3.88h2.22l-.33,1.71h-2.17l-.69,4h-1.62l.69-4h-2.94l-.69,4H167.5Zm4.84-1.71.66-3.88h-2.91l-.69,3.88Z"/><path class="b" d="M180.49,185H191.4v2h-8.51v5.49h7v2h-7V203h-2.4Z"/><path class="b" d="M193.84,185h5.95c3.66,0,5.23,2.13,5.23,4.71a4.79,4.79,0,0,1-1.9,3.55,4.89,4.89,0,0,1,2.86,4.47c0,2.91-1.78,5.28-5.89,5.28h-6.25Zm5.95,7.44c2.25,0,2.94-1.35,2.94-2.73s-.69-2.7-2.94-2.7h-3.55v5.43Zm.3,8.56c2.7,0,3.51-1.62,3.51-3.27s-.81-3.27-3.51-3.27h-3.85V201Z"/><path class="b" d="M209,185h10.9v2h-8.5v5.49h7v2h-7V203H209Z"/><path class="b" d="M222.36,185h5.95c3.67,0,5.23,2.13,5.23,4.71a4.78,4.78,0,0,1-1.89,3.55,4.89,4.89,0,0,1,2.85,4.47c0,2.91-1.77,5.28-5.89,5.28h-6.25Zm5.95,7.44c2.26,0,2.95-1.35,2.95-2.73s-.69-2.7-2.95-2.7h-3.54v5.43Zm.3,8.56c2.71,0,3.52-1.62,3.52-3.27s-.81-3.27-3.52-3.27h-3.84V201Z"/><path class="b" d="M237.54,185h10.91v2H240v5.49h7v2h-7V203h-2.41Z"/><path class="b" d="M254.68,185h1.56L264,203h-2.46l-2.17-5h-7.93l-2.16,5h-2.35Zm3.87,11-3.15-7.42L252.24,196Z"/><path class="b" d="M167.44,221h2.35l7,15,7-15H186v18h-2.32V226.75c0-.45.06-1.47.06-1.5s-.45,1.08-.63,1.5L177.45,239h-1.62l-5.62-12.28c-.21-.42-.6-1.41-.63-1.5s.06,1.05.06,1.5V239h-2.2Z"/><path class="b" d="M198.4,239l-.12-1.62a4.85,4.85,0,0,1-4,2c-2.74,0-5-2.25-5-5.53s2.25-5.49,5-5.49a4.93,4.93,0,0,1,4,2l.12-1.62h2V239Zm-6.88-5.11c0,2.52,1.65,3.82,3.31,3.82a3.85,3.85,0,0,0,0-7.66C193.17,230.08,191.52,231.4,191.52,233.92Z"/><path class="b" d="M204.15,225.31v-2.4h2.19v2.4Zm0,13.72V228.79h2.19V239Z"/><path class="b" d="M218,239v-6c0-2-.81-2.82-2.37-2.82s-3.34,1.29-3.34,3V239h-2.19V228.79h2l.15,1.77a5.18,5.18,0,0,1,4.15-2.16c2.76,0,3.85,1.92,3.85,4.47V239Z"/><path class="b" d="M234.57,221h6c3.66,0,5.23,2.14,5.23,4.72a4.74,4.74,0,0,1-1.9,3.54,4.89,4.89,0,0,1,2.86,4.47c0,2.91-1.77,5.29-5.89,5.29h-6.25Zm6,7.45c2.25,0,2.94-1.35,2.94-2.73s-.69-2.7-2.94-2.7H237v5.43Zm.3,8.55c2.7,0,3.51-1.62,3.51-3.27s-.81-3.27-3.51-3.27H237V237Z"/><path class="b" d="M258.1,239l-.12-1.62a4.85,4.85,0,0,1-4,2c-2.74,0-5-2.25-5-5.53s2.25-5.49,5-5.49a4.93,4.93,0,0,1,4,2l.12-1.62h2V239Zm-6.88-5.11c0,2.52,1.65,3.82,3.31,3.82a3.85,3.85,0,0,0,0-7.66C252.87,230.08,251.22,231.4,251.22,233.92Z"/><path class="b" d="M268.81,239.36a5.45,5.45,0,1,1,0-10.9,5.73,5.73,0,0,1,3.57,1.17v1.83a4.77,4.77,0,0,0-3.39-1.29,3.74,3.74,0,0,0,0,7.47,4.73,4.73,0,0,0,3.39-1.29v1.84A5.73,5.73,0,0,1,268.81,239.36Z"/><path class="b" d="M282.33,239l-4.75-5.29V239h-2.19V221h2.19v12.16l4.75-4.38h2.5l-5.05,4.56L285,239Z"/><path class="b" d="M291.77,245a8.61,8.61,0,0,1-4.24-1.26v-1.89a7.29,7.29,0,0,0,4.48,1.38c1.71,0,3.43-1,3.43-4v-1.62a4.78,4.78,0,0,1-3.85,1.86c-2.73,0-5-2.29-5-5.5s2.26-5.52,5-5.52a4.87,4.87,0,0,1,4,2l.12-1.62h1.95v10.06C297.63,243.89,294.45,245,291.77,245Zm.33-14.92c-1.65,0-3.3,1.29-3.3,3.81s1.65,3.85,3.3,3.85a3.85,3.85,0,0,0,0-7.66Z"/><path class="b" d="M303.62,233.08V239h-2.2V228.79h2l.15,1.77a4.83,4.83,0,0,1,4-2.16v2.22C305.57,230.26,303.62,231.37,303.62,233.08Z"/><path class="b" d="M315.07,239.48a5.58,5.58,0,1,1,5.92-5.59A5.75,5.75,0,0,1,315.07,239.48Zm0-9.43a3.86,3.86,0,1,0,3.72,3.84A3.66,3.66,0,0,0,315.07,230.05Z"/><path class="b" d="M332.2,239l-.15-1.78a5.15,5.15,0,0,1-4.15,2.17c-2.76,0-3.84-1.92-3.84-4.48v-6.15h2.19v6c0,2,.81,2.82,2.38,2.82s3.33-1.29,3.33-3v-5.85h2.19V239Z"/><path class="b" d="M345.85,239v-6c0-2-.81-2.82-2.38-2.82s-3.33,1.29-3.33,3V239h-2.2V228.79h2l.15,1.77a5.17,5.17,0,0,1,4.15-2.16c2.76,0,3.84,1.92,3.84,4.47V239Z"/><path class="b" d="M360.34,239l-.12-1.62a4.87,4.87,0,0,1-4,2c-2.73,0-5-2.25-5-5.53a5.16,5.16,0,0,1,5-5.49,4.78,4.78,0,0,1,3.85,1.86V221h2.19v18Zm-6.88-5.11c0,2.52,1.65,3.82,3.3,3.82a3.85,3.85,0,0,0,0-7.66C355.11,230.08,353.46,231.4,353.46,233.92Z"/><path class="b" d="M370.71,232h6.07v1.68h-6.07Z"/><path class="b" d="M384.48,230a9.57,9.57,0,1,1,9.59,9.52A9.25,9.25,0,0,1,384.48,230Zm16.65,0c0-4.38-2.95-7.51-7.06-7.51S387,225.64,387,230s2.95,7.51,7.1,7.51S401.13,234.37,401.13,230Z"/><path class="b" d="M409.4,230.23V239h-2.2v-8.8h-2v-1.44h2v-3.93c0-3,1.33-4.24,3.64-4.24a4.12,4.12,0,0,1,1.2.21v1.48a3.76,3.76,0,0,0-.9-.15c-1.2,0-1.74.57-1.74,2.49v4.14h2.67v1.44Z"/><path class="b" d="M417.75,230.23V239h-2.19v-8.8h-2v-1.44h2v-3.93c0-3,1.32-4.24,3.64-4.24a4.12,4.12,0,0,1,1.2.21v1.48a3.76,3.76,0,0,0-.9-.15c-1.21,0-1.75.57-1.75,2.49v4.14h2.68v1.44Z"/><path class="b" d="M425.81,239.42a7.68,7.68,0,0,1-3.91-1.14l.42-1.66a6.85,6.85,0,0,0,3.52,1.18c1.2,0,2-.49,2-1.48,0-.75-.57-1.26-2.25-1.65-2.25-.54-3.16-1.74-3.16-3.15,0-1.62,1.06-3.12,3.67-3.12a6.9,6.9,0,0,1,3.28,1l-.39,1.53a5.92,5.92,0,0,0-2.89-.93c-1.26,0-1.74.54-1.74,1.29s.66,1.17,1.89,1.47c2.44.57,3.52,1.74,3.52,3.33C429.72,238.07,428.3,239.42,425.81,239.42Z"/><path class="b" d="M441.77,233.62h-7.36c-.18,1.65.51,4.08,3.87,4.08a5.36,5.36,0,0,0,3.46-1.44V238a6.07,6.07,0,0,1-4.09,1.41,5.21,5.21,0,0,1-5.41-5.53,5.15,5.15,0,0,1,5.11-5.49,4.31,4.31,0,0,1,4.57,4.11A4.71,4.71,0,0,1,441.77,233.62ZM437.38,230a2.79,2.79,0,0,0-2.79,2.19h5.17a1.14,1.14,0,0,0,0-.24C439.79,231,439,230,437.38,230Z"/><path class="b" d="M448.78,230.23V239h-2.2v-8.8h-2.07v-1.44h2.07v-3.45h2.2v3.45h2v1.44Z"/><path class="b" d="M457.37,221h2.47l4.33,13.3c.09.3.21,1,.24,1.11a8,8,0,0,1,.3-1.11L469,221h1.5l4.27,13.3c.12.33.3,1.11.3,1.11a8.57,8.57,0,0,1,.24-1.11l4.32-13.3H482l-6.22,18h-1.5L470,226.69c-.09-.24-.27-.9-.3-1,0,.06-.21.75-.3,1L465.1,239h-1.5Z"/><path class="b" d="M492.06,239v-6c0-2-.81-2.82-2.37-2.82s-3.34,1.29-3.34,3V239h-2.19V221h2.19v9.55a5,5,0,0,1,4.06-2.16c2.76,0,3.85,1.92,3.85,4.47V239Z"/><path class="b" d="M498.05,225.31v-2.4h2.19v2.4Zm0,13.72V228.79h2.19V239Z"/><path class="b" d="M507.45,230.23V239h-2.19v-8.8h-2.07v-1.44h2.07v-3.45h2.19v3.45h2.05v1.44Z"/><path class="b" d="M521.34,233.62H514c-.18,1.65.51,4.08,3.87,4.08a5.36,5.36,0,0,0,3.46-1.44V238a6.07,6.07,0,0,1-4.09,1.41,5.21,5.21,0,0,1-5.41-5.53,5.15,5.15,0,0,1,5.11-5.49,4.31,4.31,0,0,1,4.57,4.11A4.71,4.71,0,0,1,521.34,233.62ZM517,230a2.79,2.79,0,0,0-2.79,2.19h5.17a1.14,1.14,0,0,0,0-.24C519.36,231,518.55,230,517,230Z"/><rect class="d" x="50" y="295" width="90" height="60"/><path class="b" d="M168.18,306.54H166l.3-1.7h2.15l.66-3.84h-2.18l.29-1.7h2.15l.69-3.91h1.61L171,299.3h2.89l.69-3.91h1.61l-.65,3.91h2.17l-.32,1.7h-2.12l-.69,3.84h2.21l-.33,1.7h-2.15l-.69,3.94H172l.69-3.94h-2.93l-.68,3.94h-1.62Zm4.81-1.7.65-3.84h-2.89l-.69,3.84Z"/><path class="b" d="M179.53,304.34c0-5.79,4.36-9.34,9.52-9.34a11,11,0,0,1,6.21,1.88v2.47a8.94,8.94,0,0,0-6.21-2.35c-4.12,0-7,2.86-7,7.34s2.92,7.33,7,7.33a8.94,8.94,0,0,0,6.21-2.35v2.47a10.88,10.88,0,0,1-6.21,1.88C183.89,313.67,179.53,310.12,179.53,304.34Z"/><path class="b" d="M198.61,295.39h10.84v2H201v5.45h7v2h-7v8.44h-2.39Z"/><path class="b" d="M211.87,295.39h5.56c6.95,0,10,4,10,8.95s-3,8.94-10,8.94h-5.56Zm5.59,15.81c5.82,0,7.46-3.29,7.46-6.86s-1.64-6.86-7.46-6.86h-3.2V311.2Z"/><path class="b" d="M235.38,295.39h1.55l7.7,17.89h-2.45l-2.15-5h-7.88l-2.15,5h-2.33Zm3.85,10.94L236.09,299,233,306.33Z"/><path class="b" d="M244.91,304.34c0-5.79,4.36-9.34,9.52-9.34a11,11,0,0,1,6.21,1.88v2.47a8.94,8.94,0,0,0-6.21-2.35c-4.12,0-7.05,2.86-7.05,7.34s2.93,7.33,7.05,7.33a8.94,8.94,0,0,0,6.21-2.35v2.47a10.88,10.88,0,0,1-6.21,1.88C249.27,313.67,244.91,310.12,244.91,304.34Z"/><path class="b" d="M264,295.39h5.91c3.64,0,5.2,2.12,5.2,4.68a4.76,4.76,0,0,1-1.88,3.52,4.86,4.86,0,0,1,2.83,4.44c0,2.9-1.76,5.25-5.85,5.25H264Zm5.91,7.4c2.24,0,2.93-1.35,2.93-2.72s-.69-2.68-2.93-2.68h-3.52v5.4Zm.3,8.5c2.69,0,3.49-1.62,3.49-3.26s-.8-3.25-3.49-3.25h-3.82v6.51Z"/><path class="b" d="M167.43,331.17h5.92c4.09,0,5.85,2.5,5.85,5.4s-1.76,5.4-5.85,5.4h-3.53v7.09h-2.39Zm5.92,8.8a3.4,3.4,0,1,0,0-6.8h-3.53V340Z"/><path class="b" d="M183.14,343.16v5.9H181V338.89h1.94l.15,1.76a4.82,4.82,0,0,1,4-2.14v2.2C185.08,340.36,183.14,341.46,183.14,343.16Z"/><path class="b" d="M189.65,335.43v-2.38h2.18v2.38Zm0,13.63V338.89h2.18v10.17Z"/><path class="b" d="M210.32,349.06v-6c0-1.91-.63-2.77-2.15-2.77a3.12,3.12,0,0,0-3,3v5.81h-2.18v-6c0-1.91-.6-2.77-2.15-2.77a3.09,3.09,0,0,0-3,3v5.81H195.6V338.89h1.94l.15,1.76a4.57,4.57,0,0,1,3.82-2.14,3.15,3.15,0,0,1,3.37,2.32,4.91,4.91,0,0,1,4-2.32c2.75,0,3.62,1.91,3.62,4.44v6.11Z"/><path class="b" d="M224.71,349.06l-.12-1.61a4.79,4.79,0,0,1-3.94,2c-2.71,0-5-2.24-5-5.49s2.24-5.45,5-5.45a4.89,4.89,0,0,1,3.94,2l.12-1.61h1.94v10.17ZM217.88,344c0,2.51,1.64,3.79,3.28,3.79a3.82,3.82,0,0,0,0-7.6C219.52,340.18,217.88,341.49,217.88,344Z"/><path class="b" d="M232.6,343.16v5.9h-2.18V338.89h1.94l.15,1.76a4.82,4.82,0,0,1,4-2.14v2.2C234.54,340.36,232.6,341.46,232.6,343.16Z"/><path class="b" d="M241.89,354.88h-2.18l2.77-6.29-4.33-9.7h2.15l3.26,7.67,3.22-7.67h2.15Z"/><path class="b" d="M255.6,340.12c0-5.79,4.36-9.34,9.52-9.34a11,11,0,0,1,6.21,1.88v2.48a8.9,8.9,0,0,0-6.21-2.36c-4.12,0-7.05,2.86-7.05,7.34s2.93,7.45,7.05,7.45a9.38,9.38,0,0,0,4.57-1v-4.06H266v-2h6.06v7.22a16.46,16.46,0,0,1-7,1.88A9.2,9.2,0,0,1,255.6,340.12Z"/><path class="b" d="M278.17,343.16v5.9H276V338.89h1.95l.14,1.76a4.82,4.82,0,0,1,4-2.14v2.2C280.11,340.36,278.17,341.46,278.17,343.16Z"/><path class="b" d="M293.23,343.7h-7.32c-.18,1.64.51,4.05,3.85,4.05a5.32,5.32,0,0,0,3.44-1.43v1.73a6.08,6.08,0,0,1-4.07,1.4,5.17,5.17,0,0,1-5.37-5.49,5.11,5.11,0,0,1,5.08-5.45,4.28,4.28,0,0,1,4.53,4.08A5.27,5.27,0,0,1,293.23,343.7Zm-4.36-3.61a2.77,2.77,0,0,0-2.78,2.17h5.13a1.11,1.11,0,0,0,0-.23C291.25,341,290.45,340.09,288.87,340.09Z"/><path class="b" d="M305.62,343.7H298.3c-.18,1.64.51,4.05,3.86,4.05a5.32,5.32,0,0,0,3.43-1.43v1.73a6.07,6.07,0,0,1-4.06,1.4,5.17,5.17,0,0,1-5.38-5.49,5.11,5.11,0,0,1,5.08-5.45,4.29,4.29,0,0,1,4.54,4.08A4.71,4.71,0,0,1,305.62,343.7Zm-4.36-3.61a2.78,2.78,0,0,0-2.78,2.17h5.14a1.11,1.11,0,0,0,0-.23C303.65,341,302.84,340.09,301.26,340.09Z"/><path class="b" d="M317,349.06v-6c0-1.94-.81-2.8-2.36-2.8s-3.32,1.28-3.32,3v5.81h-2.17V338.89h1.94l.15,1.76a5.12,5.12,0,0,1,4.12-2.14c2.74,0,3.82,1.91,3.82,4.44v6.11Z"/><path class="b" d="M327.57,342.11h6v1.68h-6Z"/><path class="b" d="M341.19,347.27l.54-2.2a7.31,7.31,0,0,0,5.43,2.44c2.12,0,3.77-1.19,3.77-3.13s-.9-2.83-4.24-3.73-5-2.71-5-5.22,2.09-4.65,5.76-4.65a8.12,8.12,0,0,1,4.87,1.64l-.54,1.88a8,8,0,0,0-4.33-1.58c-2.24,0-3.52,1-3.52,2.71,0,1.29.8,2.36,3.61,3.11,3.85,1,5.61,2.68,5.61,5.63,0,3.49-2.92,5.28-6,5.28A8.38,8.38,0,0,1,341.19,347.27Z"/><path class="b" d="M356.21,335.43v-2.38h2.18v2.38Zm0,13.63V338.89h2.18v10.17Z"/><path class="b" d="M370.61,349.06l-.12-1.61a4.82,4.82,0,0,1-3.94,2c-2.72,0-5-2.24-5-5.49a5.12,5.12,0,0,1,5-5.45,4.73,4.73,0,0,1,3.82,1.85v-9.19h2.18v17.89ZM363.77,344c0,2.51,1.64,3.79,3.28,3.79a3.82,3.82,0,0,0,0-7.6C365.41,340.18,363.77,341.49,363.77,344Z"/><path class="b" d="M385.15,343.7h-7.31c-.18,1.64.5,4.05,3.85,4.05a5.32,5.32,0,0,0,3.43-1.43v1.73a6.05,6.05,0,0,1-4.06,1.4,5.17,5.17,0,0,1-5.37-5.49,5.11,5.11,0,0,1,5.07-5.45,4.29,4.29,0,0,1,4.54,4.08A4.71,4.71,0,0,1,385.15,343.7Zm-4.36-3.61a2.76,2.76,0,0,0-2.77,2.17h5.13a1.11,1.11,0,0,0,0-.23C383.18,341,382.37,340.09,380.79,340.09Z"/><path class="b" d="M391.69,349.45a7.6,7.6,0,0,1-3.88-1.13l.42-1.64a6.83,6.83,0,0,0,3.49,1.16c1.2,0,1.94-.48,1.94-1.46,0-.75-.56-1.25-2.24-1.64-2.24-.54-3.13-1.73-3.13-3.13,0-1.61,1-3.1,3.64-3.1a6.87,6.87,0,0,1,3.26.95L394.8,341a5.81,5.81,0,0,0-2.87-.92c-1.25,0-1.73.53-1.73,1.28s.66,1.16,1.88,1.46c2.42.57,3.5,1.73,3.5,3.31C395.58,348.11,394.17,349.45,391.69,349.45Z"/><path class="b" d="M409,349.51a5.54,5.54,0,1,1,5.89-5.55A5.71,5.71,0,0,1,409,349.51Zm0-9.36a3.83,3.83,0,1,0,3.71,3.81A3.63,3.63,0,0,0,409,340.15Z"/><path class="b" d="M420.66,340.33v8.73h-2.18v-8.73h-2v-1.44h2V335c0-3,1.32-4.21,3.62-4.21a4.1,4.1,0,0,1,1.19.21v1.46a4.34,4.34,0,0,0-.9-.15c-1.19,0-1.73.57-1.73,2.48v4.11h2.66v1.44Z"/><path class="b" d="M431,331.17h5.91c4.09,0,5.85,2.5,5.85,5.4S441,342,436.91,342h-3.52v7.09H431Zm5.91,8.8a3.4,3.4,0,1,0,0-6.8h-3.52V340Z"/><path class="b" d="M452.68,349.06l-.12-1.61a4.82,4.82,0,0,1-3.94,2c-2.72,0-5-2.24-5-5.49a5.12,5.12,0,0,1,5-5.45,4.91,4.91,0,0,1,3.94,2l.12-1.61h1.94v10.17ZM445.84,344c0,2.51,1.64,3.79,3.28,3.79a3.82,3.82,0,0,0,0-7.6C447.48,340.18,445.84,341.49,445.84,344Z"/><path class="b" d="M463,355a8.59,8.59,0,0,1-4.21-1.25v-1.88a7.24,7.24,0,0,0,4.45,1.37c1.7,0,3.41-1,3.41-4V347.6a4.76,4.76,0,0,1-3.83,1.85c-2.71,0-4.95-2.26-4.95-5.46s2.24-5.48,4.95-5.48a4.81,4.81,0,0,1,3.94,2l.12-1.61h1.94v10C468.77,353.9,465.61,355,463,355Zm.33-14.82c-1.64,0-3.28,1.28-3.28,3.78s1.64,3.82,3.28,3.82a3.82,3.82,0,0,0,0-7.6Z"/><path class="b" d="M481.38,343.7h-7.32c-.18,1.64.51,4.05,3.86,4.05a5.32,5.32,0,0,0,3.43-1.43v1.73a6.07,6.07,0,0,1-4.06,1.4,5.17,5.17,0,0,1-5.38-5.49,5.11,5.11,0,0,1,5.08-5.45,4.29,4.29,0,0,1,4.54,4.08A4.71,4.71,0,0,1,481.38,343.7ZM477,340.09a2.78,2.78,0,0,0-2.78,2.17h5.14a1.11,1.11,0,0,0,0-.23C479.41,341,478.6,340.09,477,340.09Z"/><path class="b" d="M487.92,349.45a7.6,7.6,0,0,1-3.88-1.13l.42-1.64a6.8,6.8,0,0,0,3.49,1.16c1.19,0,1.94-.48,1.94-1.46,0-.75-.57-1.25-2.24-1.64-2.24-.54-3.13-1.73-3.13-3.13,0-1.61,1-3.1,3.64-3.1a6.77,6.77,0,0,1,3.25.95L491,341a5.84,5.84,0,0,0-2.87-.92c-1.25,0-1.73.53-1.73,1.28s.65,1.16,1.88,1.46c2.42.57,3.49,1.73,3.49,3.31C491.8,348.11,490.4,349.45,487.92,349.45Z"/><rect class="e" x="50" y="405" width="90" height="60"/><path class="b" d="M168.17,416.66H166l.3-1.69h2.14l.66-3.84h-2.18l.3-1.7h2.15l.68-3.89h1.61l-.66,3.89h2.89l.69-3.89h1.61l-.66,3.89h2.18l-.33,1.7h-2.12l-.68,3.84h2.2l-.33,1.69h-2.14l-.68,3.93H172l.68-3.93h-2.92l-.68,3.93h-1.61ZM173,415l.66-3.84h-2.89l-.69,3.84Z"/><path class="b" d="M180.36,405.54h5.9c3.63,0,5.18,2.11,5.18,4.67a4.71,4.71,0,0,1-1.88,3.51,4.85,4.85,0,0,1,2.83,4.43c0,2.89-1.75,5.24-5.84,5.24h-6.19Zm5.9,7.37c2.23,0,2.92-1.33,2.92-2.7s-.69-2.68-2.92-2.68h-3.52v5.38Zm.29,8.48c2.68,0,3.49-1.6,3.49-3.24s-.81-3.24-3.49-3.24h-3.81v6.48Z"/><path class="b" d="M201.36,405.54h1.55l7.68,17.85h-2.44l-2.14-5h-7.87l-2.14,5h-2.32Zm3.84,10.92-3.12-7.35L199,416.46Z"/><path class="b" d="M210.87,414.46c0-5.77,4.35-9.31,9.5-9.31a10.91,10.91,0,0,1,6.19,1.87v2.47a8.91,8.91,0,0,0-6.19-2.35c-4.11,0-7,2.86-7,7.32s2.92,7.32,7,7.32a8.91,8.91,0,0,0,6.19-2.35v2.47a10.91,10.91,0,0,1-6.19,1.87C215.22,423.77,210.87,420.23,210.87,414.46Z"/><path class="b" d="M237.17,418.75h-8.4v-1.31L238,405.21h1.39V416.9h3.25v1.85h-3.25v4.64h-2.26Zm0-1.85v-7.79l-5.93,7.79Z"/><path class="b" d="M245.22,405.54h5.89c3.64,0,5.19,2.11,5.19,4.67a4.74,4.74,0,0,1-1.88,3.51,4.85,4.85,0,0,1,2.83,4.43c0,2.89-1.76,5.24-5.84,5.24h-6.19Zm5.89,7.37c2.24,0,2.92-1.33,2.92-2.7s-.68-2.68-2.92-2.68H247.6v5.38Zm.3,8.48c2.68,0,3.49-1.6,3.49-3.24s-.81-3.24-3.49-3.24H247.6v6.48Z"/><path class="b" d="M259.81,415.47c0-6.3,2.42-10.47,7.48-10.47a6.79,6.79,0,0,1,3.84,1.13v2.05a6.89,6.89,0,0,0-3.81-1.28c-3,0-5.12,2-5.24,7.5a5.18,5.18,0,0,1,4.56-2.41c3.15,0,5.57,2.35,5.57,6a5.9,5.9,0,0,1-6,5.89C263.51,423.89,259.81,422.41,259.81,415.47ZM269.88,418c0-2.41-1.22-4.19-3.72-4.19a3.94,3.94,0,0,0-4,3.69c0,3.09,2,4.61,3.81,4.61C268.36,422.11,269.88,420.47,269.88,418Z"/><path class="b" d="M167.43,441.23h2.38v7.44h9.86v-7.44h2.38v17.85h-2.38v-8.42h-9.86v8.42h-2.38Z"/><path class="b" d="M186,445.48V443.1h2.17v2.38Zm0,13.6V448.93h2.17v10.15Z"/><path class="b" d="M196.45,465a8.52,8.52,0,0,1-4.2-1.25v-1.87a7.21,7.21,0,0,0,4.43,1.37c1.7,0,3.4-1,3.4-4v-1.61a4.73,4.73,0,0,1-3.81,1.85,5.13,5.13,0,0,1-5-5.45c0-3.24,2.24-5.47,5-5.47a4.8,4.8,0,0,1,3.93,2l.12-1.61h1.93v10C202.25,463.9,199.1,465,196.45,465Zm.32-14.79c-1.63,0-3.27,1.28-3.27,3.78s1.64,3.81,3.27,3.81a3.81,3.81,0,0,0,0-7.59Z"/><path class="b" d="M213.84,459.08v-6c0-1.93-.8-2.8-2.35-2.8s-3.31,1.28-3.31,3v5.8H206V441.23h2.17v9.46a5,5,0,0,1,4-2.14c2.74,0,3.81,1.9,3.81,4.43v6.1Z"/><path class="b" d="M224.21,450.15c0-5.77,4.35-9.31,9.5-9.31a10.92,10.92,0,0,1,6.2,1.88v2.47a8.94,8.94,0,0,0-6.2-2.36c-4.11,0-7,2.86-7,7.32s2.91,7.32,7,7.32a8.93,8.93,0,0,0,6.2-2.35v2.47a10.92,10.92,0,0,1-6.2,1.88C228.56,459.47,224.21,455.93,224.21,450.15Z"/><path class="b" d="M248.25,459.53a5.53,5.53,0,1,1,5.87-5.54A5.7,5.7,0,0,1,248.25,459.53Zm0-9.35A3.83,3.83,0,1,0,252,454,3.63,3.63,0,0,0,248.25,450.18Z"/><path class="b" d="M265,459.08v-6c0-1.93-.81-2.8-2.36-2.8s-3.3,1.28-3.3,3v5.8h-2.18V448.93h1.94l.15,1.76a5.12,5.12,0,0,1,4.11-2.14c2.74,0,3.81,1.9,3.81,4.43v6.1Z"/><path class="b" d="M274.32,450.36v8.72h-2.17v-8.72h-2.06v-1.43h2.06v-3.42h2.17v3.42h2v1.43Z"/><path class="b" d="M281.44,453.19v5.89h-2.17V448.93h1.93l.15,1.76a4.81,4.81,0,0,1,4-2.14v2.2C283.38,450.39,281.44,451.49,281.44,453.19Z"/><path class="b" d="M296.07,459.08l-.12-1.61a4.81,4.81,0,0,1-3.93,2c-2.71,0-4.95-2.23-4.95-5.48a5.12,5.12,0,0,1,4.95-5.44,4.88,4.88,0,0,1,3.93,2l.12-1.61H298v10.15ZM289.25,454c0,2.5,1.64,3.78,3.27,3.78a3.81,3.81,0,0,0,0-7.59C290.89,450.21,289.25,451.52,289.25,454Z"/><path class="b" d="M304.74,459.47a7.59,7.59,0,0,1-3.87-1.13l.41-1.64a6.83,6.83,0,0,0,3.49,1.16c1.19,0,1.94-.48,1.94-1.46,0-.74-.57-1.25-2.24-1.63-2.23-.54-3.13-1.73-3.13-3.13,0-1.6,1.05-3.09,3.64-3.09a6.72,6.72,0,0,1,3.24.95l-.38,1.52a5.81,5.81,0,0,0-2.86-.93c-1.25,0-1.73.54-1.73,1.28s.66,1.16,1.88,1.46c2.41.57,3.48,1.73,3.48,3.3C308.61,458.13,307.21,459.47,304.74,459.47Z"/><path class="b" d="M315.14,450.36v8.72H313v-8.72h-2v-1.43h2v-3.42h2.18v3.42h2v1.43Z"/><path class="b" d="M325.39,441.23h5.89c3.64,0,5.19,2.11,5.19,4.67a4.72,4.72,0,0,1-1.88,3.51,4.85,4.85,0,0,1,2.83,4.43c0,2.89-1.76,5.24-5.84,5.24h-6.19Zm5.89,7.38c2.24,0,2.92-1.34,2.92-2.71s-.68-2.68-2.92-2.68h-3.51v5.39Zm.3,8.48c2.68,0,3.49-1.61,3.49-3.25s-.81-3.24-3.49-3.24h-3.81v6.49Z"/><path class="b" d="M348.71,459.08l-.12-1.61a4.81,4.81,0,0,1-3.93,2c-2.71,0-4.94-2.23-4.94-5.48s2.23-5.44,4.94-5.44a4.88,4.88,0,0,1,3.93,2l.12-1.61h1.94v10.15ZM341.89,454c0,2.5,1.64,3.78,3.28,3.78a3.82,3.82,0,0,0,0-7.59C343.53,450.21,341.89,451.52,341.89,454Z"/><path class="b" d="M359.32,459.41a5.4,5.4,0,1,1,0-10.8,5.64,5.64,0,0,1,3.54,1.16v1.81a4.73,4.73,0,0,0-3.36-1.28,3.71,3.71,0,0,0,0,7.41,4.73,4.73,0,0,0,3.36-1.28v1.82A5.7,5.7,0,0,1,359.32,459.41Z"/><path class="b" d="M372.72,459.08l-4.7-5.24v5.24h-2.18V441.23H368v12l4.7-4.35h2.48l-5,4.53,5.21,5.62Z"/><path class="b" d="M382.08,465a8.52,8.52,0,0,1-4.2-1.25v-1.87a7.21,7.21,0,0,0,4.44,1.37c1.7,0,3.39-1,3.39-4v-1.61a4.73,4.73,0,0,1-3.81,1.85c-2.71,0-4.94-2.27-4.94-5.45s2.23-5.47,4.94-5.47a4.8,4.8,0,0,1,3.93,2l.12-1.61h1.94v10C387.89,463.9,384.73,465,382.08,465Zm.33-14.79c-1.64,0-3.28,1.28-3.28,3.78s1.64,3.81,3.28,3.81a3.82,3.82,0,0,0,0-7.59Z"/><path class="b" d="M393.82,453.19v5.89h-2.18V448.93h1.94l.15,1.76a4.79,4.79,0,0,1,4-2.14v2.2C395.75,450.39,393.82,451.49,393.82,453.19Z"/><path class="b" d="M405.17,459.53A5.53,5.53,0,1,1,411,454,5.7,5.7,0,0,1,405.17,459.53Zm0-9.35a3.83,3.83,0,1,0,3.69,3.81A3.63,3.63,0,0,0,405.17,450.18Z"/><path class="b" d="M422.15,459.08l-.15-1.76a5.11,5.11,0,0,1-4.11,2.15c-2.74,0-3.81-1.91-3.81-4.44v-6.1h2.17v6c0,1.94.81,2.8,2.35,2.8s3.31-1.28,3.31-3v-5.81h2.17v10.15Z"/><path class="b" d="M435.67,459.08v-6c0-1.93-.8-2.8-2.35-2.8s-3.31,1.28-3.31,3v5.8h-2.17V448.93h1.94l.15,1.76a5.12,5.12,0,0,1,4.11-2.14c2.74,0,3.81,1.9,3.81,4.43v6.1Z"/><path class="b" d="M450,459.08l-.12-1.61a4.81,4.81,0,0,1-3.93,2c-2.71,0-4.94-2.23-4.94-5.48s2.23-5.44,4.94-5.44a4.75,4.75,0,0,1,3.82,1.84v-9.16H452v17.85ZM443.21,454c0,2.5,1.64,3.78,3.28,3.78a3.82,3.82,0,0,0,0-7.59C444.85,450.21,443.21,451.52,443.21,454Z"/><path class="b" d="M460.31,452.15h6v1.66h-6Z"/><path class="b" d="M474.82,441.23h5.9c4.08,0,5.84,2.5,5.84,5.38S484.8,452,480.72,452H477.2v7.08h-2.38Zm5.9,8.78a3.4,3.4,0,1,0,0-6.79H477.2V450Z"/><path class="b" d="M496.45,459.08l-.12-1.61a4.81,4.81,0,0,1-3.93,2c-2.71,0-4.95-2.23-4.95-5.48a5.12,5.12,0,0,1,4.95-5.44,4.88,4.88,0,0,1,3.93,2l.12-1.61h1.94v10.15ZM489.63,454c0,2.5,1.64,3.78,3.27,3.78a3.81,3.81,0,0,0,0-7.59C491.27,450.21,489.63,451.52,489.63,454Z"/><path class="b" d="M506.7,465a8.52,8.52,0,0,1-4.2-1.25v-1.87a7.21,7.21,0,0,0,4.44,1.37c1.69,0,3.39-1,3.39-4v-1.61a4.73,4.73,0,0,1-3.81,1.85c-2.71,0-4.94-2.27-4.94-5.45s2.23-5.47,4.94-5.47a4.8,4.8,0,0,1,3.93,2l.12-1.61h1.94v10C512.51,463.9,509.35,465,506.7,465Zm.33-14.79c-1.64,0-3.28,1.28-3.28,3.78s1.64,3.81,3.28,3.81a3.82,3.82,0,0,0,0-7.59Z"/><path class="b" d="M525.08,453.72h-7.3c-.18,1.64.51,4,3.85,4a5.27,5.27,0,0,0,3.42-1.43v1.73a6,6,0,0,1-4,1.4,5.15,5.15,0,0,1-5.36-5.48,5.1,5.1,0,0,1,5.06-5.44,4.28,4.28,0,0,1,4.53,4.07A4.56,4.56,0,0,1,525.08,453.72Zm-4.35-3.6A2.78,2.78,0,0,0,518,452.3h5.12a1.14,1.14,0,0,0,0-.24C523.11,451.08,522.31,450.12,520.73,450.12Z"/><path class="b" d="M533,457.29l.53-2.2a7.29,7.29,0,0,0,5.42,2.44c2.12,0,3.76-1.19,3.76-3.12s-.9-2.83-4.23-3.72-5-2.71-5-5.21,2.09-4.64,5.75-4.64a8,8,0,0,1,4.86,1.64l-.54,1.87a8,8,0,0,0-4.32-1.57c-2.23,0-3.51,1-3.51,2.7,0,1.28.8,2.35,3.6,3.1,3.84,1,5.6,2.67,5.6,5.62,0,3.48-2.92,5.27-6,5.27A8.31,8.31,0,0,1,533,457.29Z"/><path class="b" d="M556.81,453.72h-7.3c-.18,1.64.51,4,3.84,4a5.32,5.32,0,0,0,3.43-1.43v1.73a6,6,0,0,1-4,1.4,5.15,5.15,0,0,1-5.36-5.48,5.1,5.1,0,0,1,5.06-5.44,4.28,4.28,0,0,1,4.53,4.07A4.56,4.56,0,0,1,556.81,453.72Zm-4.35-3.6a2.78,2.78,0,0,0-2.77,2.18h5.12a1.14,1.14,0,0,0,0-.24C554.84,451.08,554,450.12,552.46,450.12Z"/><path class="b" d="M565.27,459.41a5.4,5.4,0,1,1,0-10.8,5.64,5.64,0,0,1,3.54,1.16v1.81a4.73,4.73,0,0,0-3.36-1.28,3.71,3.71,0,0,0,0,7.41,4.73,4.73,0,0,0,3.36-1.28v1.82A5.7,5.7,0,0,1,565.27,459.41Z"/><path class="b" d="M575.19,450.36v8.72H573v-8.72H571v-1.43H573v-3.42h2.17v3.42h2v1.43Z"/><path class="b" d="M580.14,445.48V443.1h2.17v2.38Zm0,13.6V448.93h2.17v10.15Z"/><path class="b" d="M591.22,459.53a5.53,5.53,0,1,1,5.87-5.54A5.7,5.7,0,0,1,591.22,459.53Zm0-9.35a3.83,3.83,0,1,0,3.69,3.81A3.63,3.63,0,0,0,591.22,450.18Z"/><path class="b" d="M608,459.08v-6c0-1.93-.8-2.8-2.35-2.8s-3.31,1.28-3.31,3v5.8h-2.17V448.93h1.93l.15,1.76a5.13,5.13,0,0,1,4.11-2.14c2.74,0,3.81,1.9,3.81,4.43v6.1Z"/><path class="b" d="M616.87,459.47a7.55,7.55,0,0,1-3.87-1.13l.41-1.64a6.83,6.83,0,0,0,3.49,1.16c1.19,0,1.94-.48,1.94-1.46,0-.74-.57-1.25-2.24-1.63-2.23-.54-3.13-1.73-3.13-3.13,0-1.6,1-3.09,3.64-3.09a6.72,6.72,0,0,1,3.24.95L620,451a5.81,5.81,0,0,0-2.86-.93c-1.25,0-1.73.54-1.73,1.28s.66,1.16,1.88,1.46c2.41.57,3.48,1.73,3.48,3.3C620.74,458.13,619.34,459.47,616.87,459.47Z"/><rect class="f" x="50" y="515" width="90" height="60"/><path class="b" d="M168.18,526.49H166l.3-1.7h2.15l.66-3.85h-2.18l.3-1.7h2.15l.68-3.91h1.62l-.66,3.91h2.9l.69-3.91h1.61l-.66,3.91h2.19l-.33,1.7H175.3l-.69,3.85h2.21l-.33,1.7h-2.15l-.69,4H172l.69-4H169.8l-.69,4h-1.62Zm4.81-1.7.66-3.85h-2.9l-.69,3.85Z"/><path class="b" d="M187.7,528.58h-8.43v-1.31l9.3-12.27H190v11.73h3.26v1.85H190v4.66H187.7Zm0-1.85v-7.82l-5.95,7.82Z"/><path class="b" d="M203.07,528.58h-8.43v-1.31l9.3-12.27h1.4v11.73h3.26v1.85h-3.26v4.66h-2.27Zm0-1.85v-7.82l-5.95,7.82Z"/><path class="b" d="M210.54,532v-2.24a6.9,6.9,0,0,0,5,2.18,4.14,4.14,0,0,0,4.12-4.45c0-2.21-1.19-4-3.65-4a3.66,3.66,0,0,0-3.64,2.36l-1.2-.75v-9.73h10.05v2H213v5.55a4.81,4.81,0,0,1,3.34-1.28,5.5,5.5,0,0,1,5.56,5.88,6.08,6.08,0,0,1-6.36,6.27A7.87,7.87,0,0,1,210.54,532Z"/><path class="b" d="M225.16,515.33H236v2h-8.46v5.46h7v2h-7v6.45H236v2H225.16Z"/><path class="b" d="M238.92,532v-2.24a7,7,0,0,0,5,2.18,4,4,0,0,0,4.12-4.27c0-2.21-1.19-3.91-3.64-3.91a4,4,0,0,0-2.9,1.16l-1-1.07,6.43-6.51h-8v-2h11.11v1.19L244.72,522a5.34,5.34,0,0,1,5.58,5.7c0,3.73-2.72,6.06-6.36,6.06A7.84,7.84,0,0,1,238.92,532Z"/><path class="b" d="M261.07,528.58h-8.43v-1.31L261.93,515h1.41v11.73h3.26v1.85h-3.26v4.66h-2.27Zm0-1.85v-7.82l-5.95,7.82Z"/><path class="b" d="M167.43,551.15H173c7,0,10,4,10,9s-3,9-10,9h-5.56ZM173,567c5.83,0,7.48-3.28,7.48-6.87s-1.65-6.86-7.48-6.86h-3.19V567Z"/><path class="b" d="M194.49,569.06l-.12-1.61a4.85,4.85,0,0,1-4,2c-2.72,0-5-2.24-5-5.5s2.24-5.46,5-5.46a4.93,4.93,0,0,1,4,2l.12-1.61h1.94v10.18ZM187.64,564c0,2.51,1.65,3.8,3.29,3.8a3.83,3.83,0,0,0,0-7.62C189.29,560.16,187.64,561.48,187.64,564Z"/><path class="b" d="M202.38,563.15v5.91H200.2V558.88h1.94l.15,1.76a4.83,4.83,0,0,1,4-2.15v2.21C204.33,560.34,202.38,561.45,202.38,563.15Z"/><path class="b" d="M215.81,569.06l-4.73-5.26v5.26H208.9V551.15h2.18v12.09l4.73-4.36h2.48l-5,4.54,5.24,5.64Z"/><path class="b" d="M225.37,560.1c0-5.79,4.37-9.34,9.54-9.34a10.93,10.93,0,0,1,6.22,1.88v2.48a8.94,8.94,0,0,0-6.22-2.36c-4.13,0-7.06,2.86-7.06,7.34s2.93,7.47,7.06,7.47a9.27,9.27,0,0,0,4.57-1.05v-4.06H235.8v-2h6.07v7.22a16.38,16.38,0,0,1-7,1.89A9.22,9.22,0,0,1,225.37,560.1Z"/><path class="b" d="M248,563.15v5.91h-2.18V558.88h1.94l.15,1.76a4.85,4.85,0,0,1,4-2.15v2.21C249.92,560.34,248,561.45,248,563.15Z"/><path class="b" d="M263,563.69h-7.32c-.18,1.64.51,4,3.85,4a5.32,5.32,0,0,0,3.44-1.43V568a6,6,0,0,1-4.06,1.41,5.18,5.18,0,0,1-5.38-5.5,5.12,5.12,0,0,1,5.08-5.46,4.29,4.29,0,0,1,4.54,4.09A4.71,4.71,0,0,1,263,563.69Zm-4.36-3.62a2.78,2.78,0,0,0-2.78,2.18H261a1.14,1.14,0,0,0,0-.24C261.07,561,260.26,560.07,258.68,560.07Z"/><path class="b" d="M275.45,563.69h-7.33c-.18,1.64.51,4,3.86,4a5.32,5.32,0,0,0,3.44-1.43V568a6,6,0,0,1-4.07,1.41A5.18,5.18,0,0,1,266,564a5.12,5.12,0,0,1,5.08-5.46,4.3,4.3,0,0,1,4.55,4.09A4.71,4.71,0,0,1,275.45,563.69Zm-4.37-3.62a2.79,2.79,0,0,0-2.78,2.18h5.14a1.14,1.14,0,0,0,0-.24C273.47,561,272.67,560.07,271.08,560.07Z"/><path class="b" d="M286.87,569.06v-6c0-1.94-.81-2.81-2.36-2.81s-3.32,1.29-3.32,3v5.82H279V558.88H281l.15,1.76a5.16,5.16,0,0,1,4.12-2.15c2.75,0,3.83,1.91,3.83,4.45v6.12Z"/><path class="b" d="M298.14,551.15h2.33L307.41,566l6.93-14.86h2.21v17.91h-2.3V556.85c0-.45.06-1.47.06-1.5s-.45,1.08-.63,1.5l-5.59,12.21h-1.61l-5.59-12.21c-.21-.42-.6-1.41-.63-1.5s.06,1,.06,1.5v12.21h-2.18Z"/><path class="b" d="M320.47,555.41V553h2.18v2.38Zm0,13.65V558.88h2.18v10.18Z"/><path class="b" d="M334.88,569.06l-.12-1.61a4.84,4.84,0,0,1-3.94,2c-2.72,0-5-2.24-5-5.5a5.14,5.14,0,0,1,5-5.46,4.74,4.74,0,0,1,3.82,1.85v-9.19h2.18v17.91ZM328,564c0,2.51,1.64,3.8,3.28,3.8a3.83,3.83,0,0,0,0-7.62C329.68,560.16,328,561.48,328,564Z"/><path class="b" d="M345.17,575a8.6,8.6,0,0,1-4.22-1.25v-1.89a7.21,7.21,0,0,0,4.45,1.38c1.71,0,3.41-1,3.41-4V567.6a4.74,4.74,0,0,1-3.82,1.85c-2.72,0-5-2.27-5-5.47s2.25-5.49,5-5.49a4.84,4.84,0,0,1,3.94,2l.12-1.61H351v10C351,573.9,347.83,575,345.17,575Zm.32-14.84c-1.64,0-3.28,1.29-3.28,3.79s1.64,3.83,3.28,3.83a3.83,3.83,0,0,0,0-7.62Z"/><path class="b" d="M357,563.15v5.91h-2.19V558.88h1.95l.15,1.76a4.81,4.81,0,0,1,4-2.15v2.21C358.89,560.34,357,561.45,357,563.15Z"/><path class="b" d="M368.33,569.51a5.55,5.55,0,1,1,5.89-5.56A5.72,5.72,0,0,1,368.33,569.51Zm0-9.38A3.84,3.84,0,1,0,372,564,3.64,3.64,0,0,0,368.33,560.13Z"/><path class="b" d="M385.37,569.06l-.14-1.76a5.18,5.18,0,0,1-4.13,2.15c-2.75,0-3.83-1.91-3.83-4.45v-6.12h2.19v6c0,1.94.8,2.8,2.36,2.8s3.32-1.28,3.32-3v-5.82h2.18v10.18Z"/><path class="b" d="M399,569.06v-6c0-1.94-.81-2.81-2.36-2.81s-3.32,1.29-3.32,3v5.82h-2.18V558.88H393l.15,1.76a5.16,5.16,0,0,1,4.12-2.15c2.75,0,3.83,1.91,3.83,4.45v6.12Z"/><path class="b" d="M413.36,569.06l-.12-1.61a4.85,4.85,0,0,1-3.95,2c-2.72,0-5-2.24-5-5.5s2.24-5.46,5-5.46a4.76,4.76,0,0,1,3.83,1.85v-9.19h2.18v17.91ZM406.51,564c0,2.51,1.65,3.8,3.29,3.8a3.83,3.83,0,0,0,0-7.62C408.16,560.16,406.51,561.48,406.51,564Z"/><path class="b" d="M423.67,562.1h6v1.67h-6Z"/><path class="b" d="M437.37,560.1a9.52,9.52,0,1,1,9.53,9.47A9.19,9.19,0,0,1,437.37,560.1Zm16.55,0c0-4.36-2.92-7.46-7-7.46s-7,3.1-7,7.46,2.93,7.47,7,7.47S453.92,564.43,453.92,560.1Z"/><path class="b" d="M464.12,569.15h-1.64l-4.58-10.27h2.16l3.25,7.67,3.23-7.67h2.16Z"/><path class="b" d="M479.46,563.69h-7.33c-.18,1.64.51,4,3.86,4a5.32,5.32,0,0,0,3.44-1.43V568a6,6,0,0,1-4.07,1.41A5.18,5.18,0,0,1,470,564a5.12,5.12,0,0,1,5.08-5.46,4.3,4.3,0,0,1,4.55,4.09A4.71,4.71,0,0,1,479.46,563.69Zm-4.37-3.62a2.79,2.79,0,0,0-2.78,2.18h5.14a1.14,1.14,0,0,0,0-.24C477.48,561,476.68,560.07,475.09,560.07Z"/><path class="b" d="M485.2,563.15v5.91H483V558.88H485l.15,1.76a4.83,4.83,0,0,1,4-2.15v2.21C487.14,560.34,485.2,561.45,485.2,563.15Z"/><path class="b" d="M496.89,569.06V551.15h2.18v17.91Z"/><path class="b" d="M502.84,555.41V553H505v2.38Zm0,13.65V558.88H505v10.18Z"/><path class="b" d="M513.36,575a8.56,8.56,0,0,1-4.21-1.25v-1.89a7.19,7.19,0,0,0,4.45,1.38c1.7,0,3.41-1,3.41-4V567.6a4.76,4.76,0,0,1-3.83,1.85c-2.72,0-5-2.27-5-5.47s2.24-5.49,5-5.49a4.85,4.85,0,0,1,4,2l.12-1.61h1.94v10C519.19,573.9,516,575,513.36,575Zm.33-14.84c-1.65,0-3.29,1.29-3.29,3.79s1.64,3.83,3.29,3.83a3.83,3.83,0,0,0,0-7.62Z"/><path class="b" d="M530.82,569.06v-6c0-1.94-.81-2.81-2.36-2.81s-3.32,1.29-3.32,3v5.82H523V551.15h2.18v9.49a5,5,0,0,1,4-2.15c2.75,0,3.83,1.91,3.83,4.45v6.12Z"/><path class="b" d="M540.18,560.31v8.75H538v-8.75h-2.06v-1.43H538v-3.44h2.19v3.44h2v1.43Z"/><path class="b" d="M550.46,551.15h5.92c3.65,0,5.2,2.12,5.2,4.68a4.76,4.76,0,0,1-1.88,3.53,4.86,4.86,0,0,1,2.84,4.44c0,2.9-1.77,5.26-5.86,5.26h-6.22Zm5.92,7.4c2.24,0,2.93-1.34,2.93-2.72s-.69-2.68-2.93-2.68h-3.53v5.4Zm.3,8.51c2.69,0,3.5-1.61,3.5-3.26s-.81-3.25-3.5-3.25h-3.83v6.51Z"/><path class="b" d="M573.87,569.06l-.12-1.61a4.85,4.85,0,0,1-4,2c-2.72,0-5-2.24-5-5.5s2.24-5.46,5-5.46a4.93,4.93,0,0,1,4,2l.12-1.61h1.94v10.18ZM567,564c0,2.51,1.65,3.8,3.29,3.8a3.83,3.83,0,0,0,0-7.62C568.67,560.16,567,561.48,567,564Z"/><path class="b" d="M584.51,569.39a5.42,5.42,0,1,1,0-10.84,5.75,5.75,0,0,1,3.56,1.16v1.83a4.75,4.75,0,0,0-3.38-1.29,3.72,3.72,0,0,0,0,7.43,4.74,4.74,0,0,0,3.38-1.28v1.82A5.7,5.7,0,0,1,584.51,569.39Z"/><path class="b" d="M598,569.06l-4.72-5.26v5.26h-2.18V551.15h2.18v12.09l4.72-4.36h2.49l-5,4.54,5.24,5.64Z"/><path class="b" d="M607.35,575a8.56,8.56,0,0,1-4.21-1.25v-1.89a7.19,7.19,0,0,0,4.45,1.38c1.71,0,3.41-1,3.41-4V567.6a4.76,4.76,0,0,1-3.83,1.85c-2.72,0-5-2.27-5-5.47s2.24-5.49,5-5.49a4.85,4.85,0,0,1,4,2l.12-1.61h1.94v10C613.18,573.9,610,575,607.35,575Zm.33-14.84c-1.64,0-3.29,1.29-3.29,3.79s1.65,3.83,3.29,3.83a3.83,3.83,0,0,0,0-7.62Z"/><path class="b" d="M619.13,563.15v5.91H617V558.88h1.94l.15,1.76a4.83,4.83,0,0,1,4-2.15v2.21C621.08,560.34,619.13,561.45,619.13,563.15Z"/><path class="b" d="M630.52,569.51a5.55,5.55,0,1,1,5.89-5.56A5.73,5.73,0,0,1,630.52,569.51Zm0-9.38a3.84,3.84,0,1,0,3.71,3.82A3.64,3.64,0,0,0,630.52,560.13Z"/><path class="b" d="M647.56,569.06l-.15-1.76a5.14,5.14,0,0,1-4.12,2.15c-2.75,0-3.83-1.91-3.83-4.45v-6.12h2.18v6c0,1.94.81,2.8,2.37,2.8s3.31-1.28,3.31-3v-5.82h2.18v10.18Z"/><path class="b" d="M661.14,569.06v-6c0-1.94-.81-2.81-2.37-2.81s-3.31,1.29-3.31,3v5.82h-2.19V558.88h2l.15,1.76a5.14,5.14,0,0,1,4.12-2.15c2.75,0,3.83,1.91,3.83,4.45v6.12Z"/><path class="b" d="M675.55,569.06l-.12-1.61a4.85,4.85,0,0,1-3.95,2c-2.72,0-5-2.24-5-5.5s2.24-5.46,5-5.46a4.76,4.76,0,0,1,3.83,1.85v-9.19h2.18v17.91ZM668.7,564c0,2.51,1.64,3.8,3.29,3.8a3.83,3.83,0,0,0,0-7.62C670.34,560.16,668.7,561.48,668.7,564Z"/><path class="b" d="M684.25,569.45a7.58,7.58,0,0,1-3.89-1.14l.42-1.64a6.84,6.84,0,0,0,3.5,1.16c1.19,0,1.94-.47,1.94-1.46,0-.74-.57-1.25-2.24-1.64-2.24-.54-3.14-1.73-3.14-3.13,0-1.62,1-3.11,3.64-3.11a6.79,6.79,0,0,1,3.26,1l-.39,1.52a5.78,5.78,0,0,0-2.87-.93c-1.25,0-1.73.54-1.73,1.29s.66,1.16,1.88,1.46c2.43.57,3.5,1.73,3.5,3.31C688.13,568.1,686.73,569.45,684.25,569.45Z"/><rect class="g" x="50" y="625" width="90" height="60"/><path class="b" d="M168.18,636.73H166l.3-1.69h2.14l.66-3.85h-2.18l.3-1.69h2.15l.68-3.9h1.62l-.66,3.9h2.89l.69-3.9h1.61l-.66,3.9h2.18l-.33,1.69h-2.12l-.68,3.85h2.2l-.32,1.69h-2.15l-.69,3.94H172l.69-3.94h-2.92l-.69,3.94h-1.61ZM173,635l.65-3.85h-2.89l-.69,3.85Z"/><path class="b" d="M180.37,625.6h5.55c7,0,10,4,10,8.93s-3,8.93-10,8.93h-5.55ZM186,641.38c5.81,0,7.45-3.28,7.45-6.85s-1.64-6.85-7.45-6.85h-3.19v13.7Z"/><path class="b" d="M199.07,625.6H209.9v2h-8.44V633h6.95v2h-6.95v6.43h8.44v2H199.07Z"/><path class="b" d="M212.79,634.47c0-5.9,3-9.47,6.8-9.47s6.8,3.57,6.8,9.47-2.95,9.5-6.8,9.5S212.79,640.4,212.79,634.47Zm11.27,0c0-4.65-1.79-7.56-4.47-7.56s-4.47,2.91-4.47,7.56,1.79,7.59,4.47,7.59S224.06,639.15,224.06,634.47Z"/><path class="b" d="M229.25,634.47c0-5.9,3-9.47,6.8-9.47s6.8,3.57,6.8,9.47-2.95,9.5-6.8,9.5S229.25,640.4,229.25,634.47Zm11.27,0c0-4.65-1.79-7.56-4.47-7.56s-4.47,2.91-4.47,7.56,1.79,7.59,4.47,7.59S240.52,639.15,240.52,634.47Z"/><path class="b" d="M247.35,627.8h-1.9v-1.61l4.17-1v18.22h-2.27Z"/><path class="b" d="M253.83,638.7a5.41,5.41,0,0,1,4.08-5.21,4.29,4.29,0,0,1-3-4.17c0-2.47,2.56-4.32,5.45-4.32s5.43,1.85,5.43,4.32a4.29,4.29,0,0,1-3,4.17,5.41,5.41,0,0,1,4.08,5.21c0,3.13-2.86,5.27-6.5,5.27S253.83,641.83,253.83,638.7Zm10.76-.3a4.27,4.27,0,0,0-8.5,0c0,2.21,1.88,3.78,4.26,3.78S264.59,640.61,264.59,638.4Zm-1-8.78a3.24,3.24,0,0,0-6.44,0,3.23,3.23,0,0,0,6.44,0Z"/><path class="b" d="M166.51,677.41l.53-2.21a7.33,7.33,0,0,0,5.43,2.44c2.12,0,3.76-1.19,3.76-3.12s-.9-2.83-4.24-3.73-5-2.71-5-5.21,2.09-4.64,5.76-4.64a8.08,8.08,0,0,1,4.86,1.63l-.54,1.88a8,8,0,0,0-4.32-1.58c-2.24,0-3.52,1-3.52,2.71,0,1.28.8,2.36,3.61,3.1,3.84,1,5.6,2.68,5.6,5.63,0,3.48-2.92,5.27-6,5.27A8.38,8.38,0,0,1,166.51,677.41Z"/><path class="b" d="M190.33,673.83H183c-.18,1.64.5,4,3.84,4a5.27,5.27,0,0,0,3.43-1.43v1.73a6,6,0,0,1-4.05,1.4,5.16,5.16,0,0,1-5.37-5.48,5.11,5.11,0,0,1,5.07-5.45,4.28,4.28,0,0,1,4.53,4.08A4.62,4.62,0,0,1,190.33,673.83Zm-4.35-3.6a2.76,2.76,0,0,0-2.77,2.17h5.12a1.14,1.14,0,0,0,0-.24C188.36,671.18,187.56,670.23,186,670.23Z"/><path class="b" d="M198.8,679.52a5.41,5.41,0,1,1,0-10.81,5.72,5.72,0,0,1,3.55,1.16v1.82a4.71,4.71,0,0,0-3.37-1.28,3.71,3.71,0,0,0,0,7.41,4.71,4.71,0,0,0,3.37-1.28v1.82A5.72,5.72,0,0,1,198.8,679.52Z"/><path class="b" d="M210.49,679.64a5.54,5.54,0,1,1,5.88-5.54A5.7,5.7,0,0,1,210.49,679.64Zm0-9.35a3.83,3.83,0,1,0,3.7,3.81A3.63,3.63,0,0,0,210.49,670.29Z"/><path class="b" d="M227.25,679.19v-6c0-1.94-.8-2.8-2.35-2.8s-3.31,1.28-3.31,3v5.8h-2.18V669h1.94l.15,1.75a5.12,5.12,0,0,1,4.11-2.14c2.75,0,3.82,1.91,3.82,4.44v6.1Z"/><path class="b" d="M241.63,679.19l-.12-1.61a4.82,4.82,0,0,1-3.94,2c-2.71,0-4.95-2.23-4.95-5.48s2.24-5.45,4.95-5.45a4.76,4.76,0,0,1,3.82,1.85v-9.18h2.17v17.87Zm-6.83-5.06c0,2.5,1.64,3.78,3.28,3.78a3.81,3.81,0,0,0,0-7.59C236.44,670.32,234.8,671.63,234.8,674.13Z"/><path class="b" d="M255.76,679.19l-.12-1.61a4.78,4.78,0,0,1-3.93,2c-2.72,0-5-2.23-5-5.48s2.23-5.45,5-5.45a4.89,4.89,0,0,1,3.93,2l.12-1.61h1.94v10.15Zm-6.83-5.06c0,2.5,1.64,3.78,3.28,3.78a3.81,3.81,0,0,0,0-7.59C250.57,670.32,248.93,671.63,248.93,674.13Z"/><path class="b" d="M263.64,673.3v5.89h-2.18V669h1.94l.15,1.75a4.79,4.79,0,0,1,4-2.14v2.2C265.57,670.5,263.64,671.6,263.64,673.3Z"/><path class="b" d="M272.91,685h-2.18l2.78-6.28L269.18,669h2.15l3.25,7.65L277.8,669H280Z"/><path class="b" d="M287.46,661.32h2.39V677.2h8.44v2H287.46Z"/><path class="b" d="M300.56,665.58V663.2h2.17v2.38Zm0,13.61V669h2.17v10.15Z"/><path class="b" d="M314.33,679.19v-6c0-1.94-.8-2.8-2.35-2.8s-3.31,1.28-3.31,3v5.8h-2.18V669h1.94l.15,1.75a5.12,5.12,0,0,1,4.11-2.14c2.74,0,3.82,1.91,3.82,4.44v6.1Z"/><path class="b" d="M327.16,679.19,322.44,674v5.24h-2.17V661.32h2.17v12.07l4.72-4.35h2.47l-5,4.52,5.22,5.63Z"/><path class="b" d="M342.25,663.32h-6.36v-2H351v2h-6.35v15.87h-2.38Z"/><path class="b" d="M358.2,673.83h-7.3c-.18,1.64.5,4,3.84,4a5.32,5.32,0,0,0,3.43-1.43v1.73a6,6,0,0,1-4.05,1.4,5.16,5.16,0,0,1-5.37-5.48,5.1,5.1,0,0,1,5.07-5.45,4.28,4.28,0,0,1,4.53,4.08A4.62,4.62,0,0,1,358.2,673.83Zm-4.35-3.6a2.77,2.77,0,0,0-2.78,2.17h5.13a1.14,1.14,0,0,0,0-.24C356.23,671.18,355.43,670.23,353.85,670.23Z"/><path class="b" d="M369,679.19l-3.11-3.84-3.13,3.84h-2.41l4.38-5.15-4.17-5H363l3,3.66,3-3.66h2.32l-4.14,5,4.35,5.18Z"/><path class="b" d="M377.26,670.47v8.72h-2.18v-8.72H373V669h2.06v-3.43h2.18V669h2v1.43Z"/><path class="b" d="M386.8,672.25h6v1.67h-6Z"/><path class="b" d="M401.32,661.32h2.39v7.45h9.87v-7.45H416v17.87h-2.38v-8.43h-9.87v8.43h-2.39Z"/><path class="b" d="M425,679.64a5.54,5.54,0,1,1,5.88-5.54A5.7,5.7,0,0,1,425,679.64Zm0-9.35a3.83,3.83,0,1,0,3.7,3.81A3.63,3.63,0,0,0,425,670.29Z"/><path class="b" d="M438.3,679.28h-1.64L432.1,669h2.15l3.25,7.65,3.22-7.65h2.14Z"/><path class="b" d="M453.6,673.83h-7.3c-.18,1.64.5,4,3.84,4a5.3,5.3,0,0,0,3.43-1.43v1.73a6,6,0,0,1-4.05,1.4,5.16,5.16,0,0,1-5.37-5.48,5.1,5.1,0,0,1,5.07-5.45,4.28,4.28,0,0,1,4.53,4.08A4.62,4.62,0,0,1,453.6,673.83Zm-4.35-3.6a2.77,2.77,0,0,0-2.78,2.17h5.13a1.14,1.14,0,0,0,0-.24C451.63,671.18,450.83,670.23,449.25,670.23Z"/><path class="b" d="M459.33,673.3v5.89h-2.18V669h1.94l.15,1.75a4.79,4.79,0,0,1,4-2.14v2.2C461.27,670.5,459.33,671.6,459.33,673.3Z"/><path class="b" d="M470.21,677.41l.54-2.21a7.29,7.29,0,0,0,5.43,2.44c2.11,0,3.75-1.19,3.75-3.12s-.89-2.83-4.23-3.73-5-2.71-5-5.21,2.09-4.64,5.75-4.64a8.06,8.06,0,0,1,4.86,1.63l-.53,1.88a8.06,8.06,0,0,0-4.33-1.58c-2.23,0-3.51,1-3.51,2.71,0,1.28.8,2.36,3.6,3.1,3.85,1,5.61,2.68,5.61,5.63,0,3.48-2.92,5.27-6,5.27A8.41,8.41,0,0,1,470.21,677.41Z"/><path class="b" d="M488.61,670.47v8.72h-2.17v-8.72h-2.06V669h2.06v-3.43h2.17V669h2v1.43Z"/><path class="b" d="M502,679.19l-.12-1.61a4.78,4.78,0,0,1-3.93,2c-2.72,0-4.95-2.23-4.95-5.48s2.23-5.45,4.95-5.45a4.89,4.89,0,0,1,3.93,2L502,669h1.94v10.15Zm-6.83-5.06c0,2.5,1.64,3.78,3.28,3.78a3.81,3.81,0,0,0,0-7.59C496.81,670.32,495.17,671.63,495.17,674.13Z"/><path class="b" d="M511.1,670.47v8.72h-2.18v-8.72h-2.06V669h2.06v-3.43h2.18V669h2v1.43Z"/><path class="b" d="M524.87,673.83h-7.3c-.18,1.64.51,4,3.85,4a5.27,5.27,0,0,0,3.42-1.43v1.73a6,6,0,0,1-4.05,1.4,5.16,5.16,0,0,1-5.37-5.48,5.11,5.11,0,0,1,5.07-5.45,4.28,4.28,0,0,1,4.53,4.08A4.62,4.62,0,0,1,524.87,673.83Zm-4.35-3.6a2.77,2.77,0,0,0-2.77,2.17h5.13a1.14,1.14,0,0,0,0-.24C522.91,671.18,522.1,670.23,520.52,670.23Z"/><rect class="h" x="50" y="735" width="90" height="60"/><path class="b" d="M168.18,746.73H166l.3-1.69h2.14l.66-3.85h-2.18l.3-1.69h2.15l.68-3.91h1.62L171,739.5h2.89l.69-3.91h1.61l-.66,3.91h2.18l-.33,1.69h-2.12l-.68,3.85h2.2l-.32,1.69h-2.15l-.69,3.93H172l.69-3.93h-2.92l-.69,3.93h-1.61ZM173,745l.65-3.85h-2.89l-.69,3.85Z"/><path class="b" d="M179.78,748.7a5.42,5.42,0,0,1,4.08-5.21,4.29,4.29,0,0,1-3-4.17c0-2.47,2.56-4.32,5.46-4.32s5.42,1.85,5.42,4.32a4.29,4.29,0,0,1-3,4.17,5.42,5.42,0,0,1,4.09,5.21c0,3.13-2.87,5.27-6.5,5.27S179.78,751.83,179.78,748.7Zm10.76-.3a4.27,4.27,0,0,0-8.5,0c0,2.21,1.88,3.78,4.27,3.78S190.54,750.61,190.54,748.4Zm-1-8.78a3.24,3.24,0,0,0-6.44,0,3.23,3.23,0,0,0,6.44,0Z"/><path class="b" d="M195.67,744.47c0-5.9,3-9.47,6.8-9.47s6.8,3.57,6.8,9.47-3,9.5-6.8,9.5S195.67,750.4,195.67,744.47Zm11.27,0c0-4.65-1.79-7.56-4.47-7.56s-4.47,2.91-4.47,7.56,1.79,7.59,4.47,7.59S206.94,749.15,206.94,744.47Z"/><path class="b" d="M212.13,744.47c0-5.9,3-9.47,6.8-9.47s6.8,3.57,6.8,9.47-2.95,9.5-6.8,9.5S212.13,750.4,212.13,744.47Zm11.27,0c0-4.65-1.78-7.56-4.47-7.56s-4.47,2.91-4.47,7.56,1.79,7.59,4.47,7.59S223.4,749.15,223.4,744.47Z"/><path class="b" d="M228.6,744.47c0-5.9,3-9.47,6.79-9.47s6.8,3.57,6.8,9.47-2.95,9.5-6.8,9.5S228.6,750.4,228.6,744.47Zm11.27,0c0-4.65-1.79-7.56-4.48-7.56s-4.47,2.91-4.47,7.56,1.79,7.59,4.47,7.59S239.87,749.15,239.87,744.47Z"/><path class="b" d="M245.06,744.47c0-5.9,3-9.47,6.8-9.47s6.79,3.57,6.79,9.47-2.95,9.5-6.79,9.5S245.06,750.4,245.06,744.47Zm11.27,0c0-4.65-1.79-7.56-4.47-7.56s-4.48,2.91-4.48,7.56,1.79,7.59,4.48,7.59S256.33,749.15,256.33,744.47Z"/><path class="b" d="M262.12,735.59h10.82v2H264.5V743h6.95v2H264.5v6.43h8.44v2H262.12Z"/><path class="b" d="M167.43,771.32h5.9c4.09,0,5.85,2.51,5.85,5.39s-1.76,5.4-5.85,5.4h-3.51v7.08h-2.39Zm5.9,8.79a3.4,3.4,0,1,0,0-6.79h-3.51v6.79Z"/><path class="b" d="M183.12,783.3v5.89h-2.18V779h1.94l.15,1.75a4.79,4.79,0,0,1,4-2.14v2.2C185.06,780.5,183.12,781.6,183.12,783.3Z"/><path class="b" d="M189.62,775.58V773.2h2.18v2.38Zm0,13.61V779h2.18v10.15Z"/><path class="b" d="M210.25,789.19v-6c0-1.91-.62-2.77-2.14-2.77a3.12,3.12,0,0,0-3.05,3v5.8h-2.17v-6c0-1.91-.6-2.77-2.15-2.77a3.09,3.09,0,0,0-3,3v5.8h-2.18V779h1.94l.15,1.75a4.58,4.58,0,0,1,3.82-2.14,3.16,3.16,0,0,1,3.37,2.32,4.87,4.87,0,0,1,4-2.32c2.74,0,3.61,1.91,3.61,4.44v6.1Z"/><path class="b" d="M224.63,789.19l-.12-1.61a4.82,4.82,0,0,1-3.94,2c-2.71,0-4.95-2.23-4.95-5.48s2.24-5.45,4.95-5.45a4.92,4.92,0,0,1,3.94,2l.12-1.61h1.94v10.15Zm-6.83-5.06c0,2.5,1.64,3.78,3.28,3.78a3.81,3.81,0,0,0,0-7.59C219.44,780.32,217.8,781.63,217.8,784.13Z"/><path class="b" d="M232.5,783.3v5.89h-2.17V779h1.93l.15,1.75a4.82,4.82,0,0,1,4-2.14v2.2C234.44,780.5,232.5,781.6,232.5,783.3Z"/><path class="b" d="M241.78,795H239.6l2.77-6.28L238.05,779h2.15l3.25,7.65,3.22-7.65h2.14Z"/><path class="b" d="M256.33,771.32h2.39V787.2h8.43v2H256.33Z"/><path class="b" d="M269.42,775.58V773.2h2.18v2.38Zm0,13.61V779h2.18v10.15Z"/><path class="b" d="M283.2,789.19v-6c0-1.94-.81-2.8-2.36-2.8s-3.31,1.28-3.31,3v5.8h-2.17V779h1.93l.15,1.75a5.15,5.15,0,0,1,4.12-2.14c2.74,0,3.81,1.91,3.81,4.44v6.1Z"/><path class="b" d="M296,789.19,291.31,784v5.24h-2.18V771.32h2.18v12.07L296,779h2.48l-5,4.52,5.21,5.63Z"/><path class="b" d="M311.11,773.32h-6.35v-2h15.09v2H313.5v15.87h-2.39Z"/><path class="b" d="M327.07,783.83h-7.31c-.18,1.64.51,4,3.85,4a5.32,5.32,0,0,0,3.43-1.43v1.73a6.07,6.07,0,0,1-4.06,1.4,5.16,5.16,0,0,1-5.37-5.48,5.11,5.11,0,0,1,5.07-5.45,4.28,4.28,0,0,1,4.53,4.08A5.18,5.18,0,0,1,327.07,783.83Zm-4.36-3.6a2.77,2.77,0,0,0-2.77,2.17h5.13a1.14,1.14,0,0,0,0-.24C325.1,781.18,324.29,780.23,322.71,780.23Z"/><path class="b" d="M337.86,789.19l-3.1-3.84-3.13,3.84h-2.41L333.6,784l-4.18-5h2.42l3,3.66,3-3.66h2.33L336,784l4.36,5.18Z"/><path class="b" d="M346.12,780.47v8.72H344v-8.72h-2.06V779H344v-3.43h2.17V779h2v1.43Z"/><path class="b" d="M355.67,782.25h6v1.67h-6Z"/><path class="b" d="M370.19,771.32h5.55c6.94,0,9.95,4,9.95,8.94s-3,8.93-9.95,8.93h-5.55Zm5.57,15.79c5.82,0,7.46-3.28,7.46-6.85s-1.64-6.85-7.46-6.85h-3.19v13.7Z"/><path class="b" d="M397.56,783.83h-7.3c-.18,1.64.51,4,3.85,4a5.27,5.27,0,0,0,3.42-1.43v1.73a6,6,0,0,1-4,1.4,5.16,5.16,0,0,1-5.37-5.48,5.11,5.11,0,0,1,5.07-5.45,4.28,4.28,0,0,1,4.53,4.08A4.62,4.62,0,0,1,397.56,783.83Zm-4.35-3.6a2.77,2.77,0,0,0-2.77,2.17h5.13a1.14,1.14,0,0,0,0-.24C395.6,781.18,394.79,780.23,393.21,780.23Z"/><path class="b" d="M403.8,780.47v8.72h-2.18v-8.72h-2V779h2v-3.9c0-3,1.31-4.2,3.61-4.2a4.44,4.44,0,0,1,1.19.2v1.46a4.24,4.24,0,0,0-.89-.14c-1.19,0-1.73.56-1.73,2.47V779h2.65v1.43Z"/><path class="b" d="M417.25,789.19l-.12-1.61a4.82,4.82,0,0,1-3.94,2c-2.71,0-4.95-2.23-4.95-5.48s2.24-5.45,4.95-5.45a4.92,4.92,0,0,1,3.94,2l.12-1.61h1.94v10.15Zm-6.83-5.06c0,2.5,1.64,3.78,3.28,3.78a3.81,3.81,0,0,0,0-7.59C412.06,780.32,410.42,781.63,410.42,784.13Z"/><path class="b" d="M431,789.19l-.15-1.75a5.15,5.15,0,0,1-4.12,2.14c-2.74,0-3.81-1.91-3.81-4.44V779h2.17v6c0,1.94.81,2.8,2.36,2.8s3.31-1.28,3.31-3V779H433v10.15Z"/><path class="b" d="M436.72,789.19V771.32h2.18v17.87Z"/><path class="b" d="M446.06,780.47v8.72h-2.18v-8.72h-2.06V779h2.06v-3.43h2.18V779h2v1.43Z"/><path class="b" d="M455.39,787.41l.54-2.21a7.29,7.29,0,0,0,5.42,2.44c2.12,0,3.76-1.19,3.76-3.12s-.89-2.83-4.23-3.73-5-2.71-5-5.21,2.09-4.64,5.75-4.64a8.06,8.06,0,0,1,4.86,1.63l-.53,1.88a8.06,8.06,0,0,0-4.33-1.58c-2.23,0-3.52,1-3.52,2.71,0,1.28.81,2.36,3.61,3.1,3.85,1,5.61,2.68,5.61,5.63,0,3.48-2.92,5.27-6,5.27A8.4,8.4,0,0,1,455.39,787.41Z"/><path class="b" d="M473.79,780.47v8.72h-2.18v-8.72h-2.05V779h2.05v-3.43h2.18V779h2v1.43Z"/><path class="b" d="M487.18,789.19l-.12-1.61a4.78,4.78,0,0,1-3.93,2c-2.72,0-4.95-2.23-4.95-5.48s2.23-5.45,4.95-5.45a4.89,4.89,0,0,1,3.93,2l.12-1.61h1.94v10.15Zm-6.83-5.06c0,2.5,1.64,3.78,3.28,3.78a3.81,3.81,0,0,0,0-7.59C482,780.32,480.35,781.63,480.35,784.13Z"/><path class="b" d="M496.28,780.47v8.72H494.1v-8.72H492V779h2.06v-3.43h2.18V779h2v1.43Z"/><path class="b" d="M510.05,783.83h-7.3c-.18,1.64.51,4,3.85,4a5.27,5.27,0,0,0,3.42-1.43v1.73a6,6,0,0,1-4,1.4,5.16,5.16,0,0,1-5.37-5.48,5.11,5.11,0,0,1,5.07-5.45,4.28,4.28,0,0,1,4.53,4.08A4.62,4.62,0,0,1,510.05,783.83Zm-4.35-3.6a2.77,2.77,0,0,0-2.77,2.17h5.13a1.14,1.14,0,0,0,0-.24C508.09,781.18,507.28,780.23,505.7,780.23Z"/><rect class="i" x="50" y="845" width="90" height="60"/><path class="b" d="M168.17,856.71H166l.3-1.69h2.14l.65-3.84h-2.17l.3-1.69h2.14l.69-3.9h1.6l-.65,3.9h2.89l.68-3.9h1.61l-.66,3.9h2.17l-.32,1.69h-2.12l-.68,3.84h2.2l-.33,1.69H174.3l-.68,3.92H172l.69-3.92h-2.92l-.69,3.92h-1.6ZM173,855l.66-3.84h-2.89l-.68,3.84Z"/><path class="b" d="M179.75,862.18V860a7,7,0,0,0,5,2.17,4,4,0,0,0,4.11-4.25c0-2.2-1.19-3.89-3.63-3.89a3.89,3.89,0,0,0-2.89,1.16l-1-1.08,6.39-6.47h-7.91v-2h11.07v1.19l-5.36,5.44a5.32,5.32,0,0,1,5.57,5.68c0,3.71-2.71,6-6.34,6A7.8,7.8,0,0,1,179.75,862.18Z"/><path class="b" d="M194,858.67a5.41,5.41,0,0,1,4.07-5.2,4.28,4.28,0,0,1-3-4.16c0-2.47,2.56-4.31,5.44-4.31s5.42,1.84,5.42,4.31a4.27,4.27,0,0,1-3,4.16,5.41,5.41,0,0,1,4.08,5.2c0,3.12-2.86,5.26-6.49,5.26S194,861.79,194,858.67Zm10.74-.29a4.26,4.26,0,0,0-8.48,0c0,2.2,1.87,3.77,4.25,3.77S204.69,860.58,204.69,858.38Zm-1-8.77a3.23,3.23,0,0,0-6.43,0,3.22,3.22,0,0,0,6.43,0Z"/><path class="b" d="M209.3,861.79l5.15-5.35c1.64-1.69,3.25-3.59,3.25-6,0-2.56-1.49-3.45-3.22-3.45a7.33,7.33,0,0,0-4.73,2v-2.14a8,8,0,0,1,4.79-1.78c3.27,0,5.51,1.87,5.51,5.2,0,3.09-2.12,5.32-3.54,6.75l-4.5,4.43h8.42v2H209.3Z"/><path class="b" d="M223.29,862.18V860a6.84,6.84,0,0,0,5,2.17,4.13,4.13,0,0,0,4.11-4.43c0-2.2-1.19-4-3.63-4a3.64,3.64,0,0,0-3.63,2.35l-1.19-.75v-9.69h10v2h-8.16v5.52a4.82,4.82,0,0,1,3.34-1.27,5.47,5.47,0,0,1,5.53,5.85,6,6,0,0,1-6.34,6.24A7.8,7.8,0,0,1,223.29,862.18Z"/><path class="b" d="M238.89,847.79H237v-1.6l4.17-1v18.19h-2.26Z"/><path class="b" d="M245.35,862.18V860a7,7,0,0,0,5,2.17,4,4,0,0,0,4.1-4.25c0-2.2-1.19-3.89-3.63-3.89a3.88,3.88,0,0,0-2.88,1.16l-1-1.08,6.4-6.47h-7.91v-2h11.07v1.19l-5.36,5.44a5.32,5.32,0,0,1,5.56,5.68c0,3.71-2.7,6-6.33,6A7.78,7.78,0,0,1,245.35,862.18Z"/><path class="b" d="M167.43,881.25h2.38v7.43h9.85v-7.43H182v17.84h-2.38v-8.42h-9.85v8.42h-2.38Z"/><path class="b" d="M185.94,885.5v-2.38h2.17v2.38Zm0,13.59V889h2.17v10.14Z"/><path class="b" d="M196.42,905a8.42,8.42,0,0,1-4.2-1.25v-1.87a7.21,7.21,0,0,0,4.43,1.37c1.7,0,3.4-1,3.4-4v-1.6a4.73,4.73,0,0,1-3.81,1.84c-2.71,0-4.94-2.26-4.94-5.44s2.23-5.47,4.94-5.47a4.82,4.82,0,0,1,3.93,2l.11-1.61h1.94v10C202.22,903.9,199.06,905,196.42,905Zm.32-14.77c-1.63,0-3.27,1.28-3.27,3.77s1.64,3.81,3.27,3.81a3.81,3.81,0,0,0,0-7.58Z"/><path class="b" d="M213.8,899.09v-6c0-1.93-.81-2.79-2.35-2.79s-3.31,1.28-3.31,3v5.8H206V881.25h2.17v9.45a5,5,0,0,1,4-2.14c2.74,0,3.81,1.91,3.81,4.43v6.1Z"/><path class="b" d="M224.16,890.17c0-5.77,4.34-9.3,9.49-9.3a10.91,10.91,0,0,1,6.19,1.87v2.47a8.91,8.91,0,0,0-6.19-2.35c-4.11,0-7,2.85-7,7.31s2.91,7.31,7,7.31a8.91,8.91,0,0,0,6.19-2.35v2.47a10.91,10.91,0,0,1-6.19,1.87C228.5,899.47,224.16,895.94,224.16,890.17Z"/><path class="b" d="M248.17,899.53A5.53,5.53,0,1,1,254,894,5.7,5.7,0,0,1,248.17,899.53Zm0-9.33a3.82,3.82,0,1,0,3.69,3.8A3.62,3.62,0,0,0,248.17,890.2Z"/><path class="b" d="M264.9,899.09v-6c0-1.93-.8-2.79-2.35-2.79s-3.3,1.28-3.3,3v5.8h-2.18V889H259l.15,1.75a5.11,5.11,0,0,1,4.1-2.14c2.74,0,3.81,1.91,3.81,4.43v6.1Z"/><path class="b" d="M274.22,890.38v8.71H272v-8.71H270V889H272v-3.42h2.18V889h2v1.43Z"/><path class="b" d="M281.33,893.2v5.89h-2.17V889h1.93l.15,1.75a4.8,4.8,0,0,1,4-2.14v2.2C283.26,890.41,281.33,891.51,281.33,893.2Z"/><path class="b" d="M295.94,899.09l-.12-1.61a4.8,4.8,0,0,1-3.92,2c-2.71,0-4.94-2.23-4.94-5.47s2.23-5.44,4.94-5.44a4.89,4.89,0,0,1,3.92,2l.12-1.61h1.94v10.14ZM289.13,894c0,2.5,1.63,3.78,3.27,3.78a3.81,3.81,0,0,0,0-7.58C290.76,890.23,289.13,891.54,289.13,894Z"/><path class="b" d="M304.6,899.47a7.49,7.49,0,0,1-3.86-1.13l.41-1.63a6.92,6.92,0,0,0,3.48,1.16c1.19,0,1.94-.48,1.94-1.46,0-.74-.57-1.25-2.23-1.63-2.24-.54-3.13-1.73-3.13-3.13,0-1.6,1-3.09,3.63-3.09a6.94,6.94,0,0,1,3.25,1L307.7,891a5.87,5.87,0,0,0-2.86-.92c-1.25,0-1.72.53-1.72,1.28s.65,1.16,1.87,1.45c2.41.57,3.48,1.73,3.48,3.3C308.47,898.13,307.07,899.47,304.6,899.47Z"/><path class="b" d="M315,890.38v8.71h-2.17v-8.71h-2.05V889h2.05v-3.42H315V889h2v1.43Z"/><path class="b" d="M325.23,881.25h5.54c6.93,0,9.93,4,9.93,8.92s-3,8.92-9.93,8.92h-5.54ZM330.8,897c5.8,0,7.43-3.26,7.43-6.83s-1.63-6.84-7.43-6.84h-3.19V897Z"/><path class="b" d="M352.16,899.09l-.11-1.61a4.81,4.81,0,0,1-3.93,2c-2.71,0-4.94-2.23-4.94-5.47s2.23-5.44,4.94-5.44a4.91,4.91,0,0,1,3.93,2l.11-1.61h1.94v10.14ZM345.35,894c0,2.5,1.64,3.78,3.27,3.78a3.81,3.81,0,0,0,0-7.58C347,890.23,345.35,891.54,345.35,894Z"/><path class="b" d="M360,893.2v5.89h-2.17V889h1.94l.14,1.75a4.81,4.81,0,0,1,4-2.14v2.2C362,890.41,360,891.51,360,893.2Z"/><path class="b" d="M373.39,899.09l-4.71-5.24v5.24h-2.17V881.25h2.17v12l4.71-4.34h2.47l-5,4.52,5.2,5.62Z"/><path class="b" d="M383.06,892.16h6v1.66h-6Z"/><path class="b" d="M402.23,883.24h-6.34v-2h15.05v2h-6.33v15.85h-2.38Z"/><path class="b" d="M418.15,893.74h-7.29c-.18,1.63.5,4,3.84,4a5.34,5.34,0,0,0,3.42-1.43v1.73a6,6,0,0,1-4.05,1.39,5.15,5.15,0,0,1-5.35-5.47,5.09,5.09,0,0,1,5-5.44,4.28,4.28,0,0,1,4.53,4.08A4.69,4.69,0,0,1,418.15,893.74Zm-4.35-3.6a2.75,2.75,0,0,0-2.76,2.17h5.11a1.14,1.14,0,0,0,0-.24C416.18,891.09,415.38,890.14,413.8,890.14Z"/><path class="b" d="M428.92,899.09l-3.09-3.84-3.13,3.84h-2.41l4.38-5.15-4.17-5h2.41l3,3.66,3-3.66h2.32l-4.13,5,4.34,5.18Z"/><path class="b" d="M437.17,890.38v8.71H435v-8.71h-2.06V889H435v-3.42h2.17V889h2v1.43Z"/><path class="b" d="M446.9,894.39c0-2.2,1.61-3.63,3.48-4.82a9.14,9.14,0,0,1-1.51-4.48c0-2.53,2.26-4.34,5.08-4.34,2.59,0,4.5,1.54,4.5,3.62,0,2.8-2.86,4-5.39,5.5a40,40,0,0,0,4.43,5.17,13.6,13.6,0,0,0,.72-4.9h4.58v1.51h-2.86a11.7,11.7,0,0,1-1.13,4.67c1.61,1.46,2.59,1.78,3.63,1.78a2.64,2.64,0,0,0,2-1l.53.81a3.63,3.63,0,0,1-3,1.72,6.44,6.44,0,0,1-4.41-1.6,6.16,6.16,0,0,1-4.37,1.6C450,899.59,446.9,898,446.9,894.39Zm9.34,2.44a40.78,40.78,0,0,1-4.93-5.86,4.3,4.3,0,0,0-2.12,3.51c0,1.93,1.73,3.51,4.2,3.51A3.82,3.82,0,0,0,456.24,896.83Zm.15-12.46c0-1.31-1.1-2-2.44-2a2.71,2.71,0,0,0-2.94,2.71,6.44,6.44,0,0,0,1.13,3.47C454.34,887.29,456.39,886.19,456.39,884.37Z"/><path class="b" d="M472,881.25h2.38v17.84H472Z"/><path class="b" d="M483.18,899.41a5.4,5.4,0,1,1,0-10.79,5.7,5.7,0,0,1,3.54,1.16v1.82a4.69,4.69,0,0,0-3.36-1.28,3.71,3.71,0,0,0,0,7.4,4.73,4.73,0,0,0,3.36-1.28v1.81A5.64,5.64,0,0,1,483.18,899.41Z"/><path class="b" d="M494.85,899.53a5.53,5.53,0,1,1,5.86-5.53A5.69,5.69,0,0,1,494.85,899.53Zm0-9.33a3.82,3.82,0,1,0,3.69,3.8A3.62,3.62,0,0,0,494.85,890.2Z"/><path class="b" d="M511.57,899.09v-6c0-1.93-.8-2.79-2.35-2.79s-3.3,1.28-3.3,3v5.8h-2.17V889h1.93l.15,1.75a5.13,5.13,0,0,1,4.11-2.14c2.73,0,3.81,1.91,3.81,4.43v6.1Z"/><path class="b" d="M520.47,899.47a7.49,7.49,0,0,1-3.86-1.13l.41-1.63a6.92,6.92,0,0,0,3.48,1.16c1.19,0,1.94-.48,1.94-1.46,0-.74-.57-1.25-2.23-1.63-2.24-.54-3.13-1.73-3.13-3.13,0-1.6,1-3.09,3.63-3.09a6.94,6.94,0,0,1,3.25,1l-.39,1.52a5.87,5.87,0,0,0-2.86-.92c-1.25,0-1.72.53-1.72,1.28s.65,1.16,1.87,1.45c2.41.57,3.48,1.73,3.48,3.3C524.34,898.13,522.94,899.47,520.47,899.47Z"/><rect class="j" x="51" y="955" width="90" height="60"/><path class="b" d="M168.2,966.25H166l.3-1.71h2.17l.66-3.88h-2.2l.3-1.72h2.17l.7-3.94h1.62l-.66,3.94H174l.69-3.94h1.63l-.66,3.94h2.19l-.33,1.72h-2.13l-.7,3.88h2.23l-.33,1.71H174.4l-.69,4h-1.63l.7-4h-3l-.69,4h-1.62Zm4.85-1.71.66-3.88h-2.92l-.69,3.88Z"/><path class="b" d="M179.91,971.79v-2.26a7.07,7.07,0,0,0,5,2.2,4,4,0,0,0,4.16-4.31c0-2.22-1.2-3.94-3.67-3.94a4,4,0,0,0-2.93,1.18l-1-1.09L188,957h-8v-2h11.2v1.2l-5.42,5.51a5.38,5.38,0,0,1,5.63,5.74c0,3.76-2.74,6.11-6.42,6.11A7.93,7.93,0,0,1,179.91,971.79Z"/><path class="b" d="M194.28,971.79v-2.26a7.05,7.05,0,0,0,5,2.2,4,4,0,0,0,4.16-4.31c0-2.22-1.21-3.94-3.68-3.94a4,4,0,0,0-2.92,1.18l-1-1.09,6.47-6.55h-8v-2h11.21v1.2l-5.42,5.51a5.38,5.38,0,0,1,5.63,5.74c0,3.76-2.74,6.11-6.42,6.11A7.9,7.9,0,0,1,194.28,971.79Z"/><path class="b" d="M208.65,971.79v-2.26a7.05,7.05,0,0,0,5,2.2,4,4,0,0,0,4.16-4.31c0-2.22-1.21-3.94-3.68-3.94a4,4,0,0,0-2.92,1.18l-1-1.09,6.47-6.55h-8v-2h11.2v1.2l-5.42,5.51a5.38,5.38,0,0,1,5.63,5.74c0,3.76-2.74,6.11-6.41,6.11A7.88,7.88,0,0,1,208.65,971.79Z"/><path class="b" d="M223,971.79v-2.26a7,7,0,0,0,5,2.2,4,4,0,0,0,4.15-4.31c0-2.22-1.2-3.94-3.67-3.94a3.93,3.93,0,0,0-2.92,1.18l-1-1.09,6.48-6.55h-8v-2h11.2v1.2l-5.42,5.51a5.38,5.38,0,0,1,5.63,5.74c0,3.76-2.74,6.11-6.41,6.11A7.88,7.88,0,0,1,223,971.79Z"/><path class="b" d="M237.39,971.79v-2.26a7,7,0,0,0,5,2.2,4,4,0,0,0,4.16-4.31c0-2.22-1.2-3.94-3.67-3.94a3.93,3.93,0,0,0-2.92,1.18l-1-1.09,6.48-6.55h-8v-2h11.2v1.2l-5.42,5.51a5.38,5.38,0,0,1,5.63,5.74c0,3.76-2.74,6.11-6.42,6.11A7.88,7.88,0,0,1,237.39,971.79Z"/><path class="b" d="M251.75,971.79v-2.26a7.05,7.05,0,0,0,5,2.2,4,4,0,0,0,4.16-4.31c0-2.22-1.21-3.94-3.68-3.94a4,4,0,0,0-2.92,1.18l-1-1.09,6.47-6.55h-8v-2H263v1.2l-5.42,5.51a5.38,5.38,0,0,1,5.63,5.74c0,3.76-2.74,6.11-6.42,6.11A7.9,7.9,0,0,1,251.75,971.79Z"/><path class="b" d="M167.45,991.09h5.6c7,0,10,4.06,10,9s-3,9-10,9h-5.6Zm5.63,15.94c5.87,0,7.53-3.31,7.53-6.92s-1.66-6.92-7.53-6.92h-3.23V1007Z"/><path class="b" d="M194.7,1009.13l-.12-1.62a4.88,4.88,0,0,1-4,2c-2.74,0-5-2.26-5-5.54s2.26-5.5,5-5.5a5,5,0,0,1,4,2l.12-1.62h2v10.25Zm-6.89-5.11c0,2.53,1.65,3.82,3.31,3.82a3.86,3.86,0,0,0,0-7.67C189.46,1000.17,187.81,1001.49,187.81,1004Z"/><path class="b" d="M202.66,1003.18v6h-2.2V998.88h2l.15,1.77a4.84,4.84,0,0,1,4-2.16v2.22C204.61,1000.35,202.66,1001.46,202.66,1003.18Z"/><path class="b" d="M216.18,1009.13l-4.76-5.29v5.29h-2.2v-18h2.2v12.18l4.76-4.39h2.5l-5.06,4.57,5.27,5.68Z"/><path class="b" d="M229.79,1003.72h-7.37c-.19,1.65.51,4.09,3.88,4.09a5.38,5.38,0,0,0,3.46-1.44v1.74a6.1,6.1,0,0,1-4.09,1.42,5.22,5.22,0,0,1-5.42-5.54,5.15,5.15,0,0,1,5.12-5.5,4.31,4.31,0,0,1,4.57,4.12A4.71,4.71,0,0,1,229.79,1003.72Zm-4.39-3.64a2.79,2.79,0,0,0-2.8,2.2h5.18a1.14,1.14,0,0,0,0-.24C227.81,1001,227,1000.08,225.4,1000.08Z"/><path class="b" d="M236.39,1009.53a7.61,7.61,0,0,1-3.91-1.15l.42-1.65a6.92,6.92,0,0,0,3.52,1.17c1.21,0,2-.48,2-1.47,0-.75-.57-1.27-2.26-1.66-2.26-.54-3.16-1.74-3.16-3.16,0-1.62,1-3.12,3.67-3.12a6.86,6.86,0,0,1,3.28,1l-.39,1.53a5.86,5.86,0,0,0-2.89-.93c-1.26,0-1.74.54-1.74,1.29s.66,1.18,1.89,1.48c2.44.57,3.53,1.74,3.53,3.34C240.31,1008.17,238.89,1009.53,236.39,1009.53Z"/><path class="b" d="M246.9,1000.32v8.81h-2.2v-8.81h-2.07v-1.44h2.07v-3.46h2.2v3.46h2v1.44Z"/><path class="b" d="M262,993.1h-6.41v-2h15.24v2H264.4v16H262Z"/><path class="b" d="M278.11,1003.72h-7.38c-.18,1.65.51,4.09,3.88,4.09a5.41,5.41,0,0,0,3.47-1.44v1.74a6.12,6.12,0,0,1-4.1,1.42,5.22,5.22,0,0,1-5.42-5.54,5.15,5.15,0,0,1,5.12-5.5,4.32,4.32,0,0,1,4.58,4.12A4.71,4.71,0,0,1,278.11,1003.72Zm-4.4-3.64a2.8,2.8,0,0,0-2.8,2.2h5.18a1.14,1.14,0,0,0,0-.24C276.12,1001,275.31,1000.08,273.71,1000.08Z"/><path class="b" d="M289,1009.13l-3.13-3.87-3.16,3.87h-2.44l4.42-5.2-4.21-5h2.44l3,3.7,3-3.7h2.35l-4.19,5,4.4,5.23Z"/><path class="b" d="M297.36,1000.32v8.81h-2.2v-8.81h-2.08v-1.44h2.08v-3.46h2.2v3.46h2v1.44Z"/><path class="b" d="M307,1002.13h6.09v1.68H307Z"/><path class="b" d="M321.66,991.09h6c4.12,0,5.9,2.37,5.9,5.29a4.83,4.83,0,0,1-3.74,5l5.48,7.73h-2.8l-5.18-7.45h-3.22v7.45h-2.41Zm6,8.57c2.71,0,3.52-1.63,3.52-3.28s-.81-3.28-3.52-3.28h-3.56v6.56Z"/><path class="b" d="M346.15,1003.72h-7.38c-.18,1.65.51,4.09,3.89,4.09a5.38,5.38,0,0,0,3.46-1.44v1.74a6.1,6.1,0,0,1-4.1,1.42,5.22,5.22,0,0,1-5.42-5.54,5.15,5.15,0,0,1,5.12-5.5,4.32,4.32,0,0,1,4.58,4.12A4.71,4.71,0,0,1,346.15,1003.72Zm-4.4-3.64a2.8,2.8,0,0,0-2.8,2.2h5.18a1.14,1.14,0,0,0,0-.24C344.16,1001,343.35,1000.08,341.75,1000.08Z"/><path class="b" d="M355.79,1009.53a4.81,4.81,0,0,1-3.86-1.87V1015h-2.19V998.88h1.95l.12,1.62a4.88,4.88,0,0,1,4-2c2.74,0,5,2.25,5,5.53S358.53,1009.53,355.79,1009.53Zm-.54-9.36a3.86,3.86,0,0,0,0,7.67c1.68,0,3.34-1.32,3.34-3.85S356.93,1000.17,355.25,1000.17Z"/><path class="b" d="M364,1009.13v-18h2.2v18Z"/><path class="b" d="M378.53,1009.13l-.12-1.62a4.88,4.88,0,0,1-4,2c-2.74,0-5-2.26-5-5.54s2.26-5.5,5-5.5a5,5,0,0,1,4,2l.12-1.62h2v10.25Zm-6.9-5.11c0,2.53,1.66,3.82,3.32,3.82a3.86,3.86,0,0,0,0-7.67C373.29,1000.17,371.63,1001.49,371.63,1004Z"/><path class="b" d="M389.25,1009.47a5.46,5.46,0,1,1,0-10.92,5.79,5.79,0,0,1,3.59,1.17v1.83a4.82,4.82,0,0,0-3.41-1.29,3.75,3.75,0,0,0,0,7.49,4.82,4.82,0,0,0,3.41-1.29v1.83A5.73,5.73,0,0,1,389.25,1009.47Z"/><path class="b" d="M404.76,1003.72h-7.37c-.18,1.65.51,4.09,3.88,4.09a5.36,5.36,0,0,0,3.46-1.44v1.74a6.1,6.1,0,0,1-4.09,1.42,5.22,5.22,0,0,1-5.42-5.54,5.15,5.15,0,0,1,5.12-5.5,4.31,4.31,0,0,1,4.57,4.12A4.71,4.71,0,0,1,404.76,1003.72Zm-4.39-3.64a2.79,2.79,0,0,0-2.8,2.2h5.18a1.14,1.14,0,0,0,0-.24C402.78,1001,402,1000.08,400.37,1000.08Z"/><path class="b" d="M411.36,1009.53a7.61,7.61,0,0,1-3.91-1.15l.42-1.65a6.92,6.92,0,0,0,3.52,1.17c1.21,0,2-.48,2-1.47,0-.75-.57-1.27-2.26-1.66-2.26-.54-3.16-1.74-3.16-3.16,0-1.62,1.05-3.12,3.67-3.12a7,7,0,0,1,3.29,1l-.4,1.53a5.86,5.86,0,0,0-2.89-.93c-1.26,0-1.74.54-1.74,1.29s.66,1.18,1.89,1.48c2.44.57,3.53,1.74,3.53,3.34C415.28,1008.17,413.86,1009.53,411.36,1009.53Z"/><path class="b" d="M423.8,991.09h6c3.68,0,5.24,2.13,5.24,4.72a4.78,4.78,0,0,1-1.89,3.55,4.92,4.92,0,0,1,2.86,4.48c0,2.92-1.78,5.29-5.9,5.29H423.8Zm6,7.46c2.26,0,3-1.36,3-2.74s-.7-2.71-3-2.71h-3.55v5.45Zm.31,8.57c2.71,0,3.52-1.63,3.52-3.28s-.81-3.28-3.52-3.28h-3.86v6.56Z"/><path class="b" d="M438.86,1009.13v-18h2.2v18Z"/><path class="b" d="M453.38,1009.13l-.12-1.62a4.89,4.89,0,0,1-4,2c-2.74,0-5-2.26-5-5.54s2.26-5.5,5-5.5a5,5,0,0,1,4,2l.12-1.62h2v10.25Zm-6.9-5.11c0,2.53,1.66,3.82,3.31,3.82a3.85,3.85,0,0,0,0-7.67C448.14,1000.17,446.48,1001.49,446.48,1004Z"/><path class="b" d="M464.1,1009.47a5.46,5.46,0,1,1,0-10.92,5.79,5.79,0,0,1,3.59,1.17v1.83a4.82,4.82,0,0,0-3.41-1.29,3.75,3.75,0,0,0,0,7.49,4.82,4.82,0,0,0,3.41-1.29v1.83A5.73,5.73,0,0,1,464.1,1009.47Z"/><path class="b" d="M477.66,1009.13l-4.76-5.29v5.29h-2.2v-18h2.2v12.18l4.76-4.39h2.5l-5.06,4.57,5.27,5.68Z"/></svg>