<svg xmlns="http://www.w3.org/2000/svg" viewBox="0 0 1920 1080"><defs><style>.cls-1{fill:#f2f2f2;}.cls-2{font-size:28px;}.cls-11,.cls-2,.cls-6{font-family:MrEavesModOT-Reg, Mr Eaves Mod OT;}.cls-3{letter-spacing:-0.01em;}.cls-4{letter-spacing:-0.05em;}.cls-5{letter-spacing:-0.01em;}.cls-6{font-size:24px;}.cls-10,.cls-7{fill:none;stroke-miterlimit:10;}.cls-7{stroke:#000;stroke-linecap:round;stroke-width:3px;}.cls-8{fill:#fff;}.cls-9{fill:#333;}.cls-10{stroke:#333;}.cls-11{font-size:43.48px;}.cls-12{letter-spacing:-0.05em;}.cls-13{letter-spacing:-0.04em;}</style></defs><g id="Layer_2" data-name="Layer 2"><g id="Layer_1-2" data-name="Layer 1"><rect class="cls-1" x="390.5" y="0.5" width="1139" height="1079"/><path d="M1529,1V1079H391V1H1529m1-1H390V1080H1530V0Z"/><text class="cls-2" transform="translate(862.39 75.53)">Main Content A<tspan class="cls-3" x="162.45" y="0">r</tspan><tspan x="170.32" y="0">ea</tspan></text><rect class="cls-1" x="1630.5" y="0.5" width="289" height="1079"/><path d="M1919,1V1079H1631V1h288m1-1H1630V1080h290V0Z"/><text class="cls-2" transform="translate(1711.65 75.53)">Section TBD</text><rect class="cls-1" x="0.5" y="0.5" width="289" height="1079"/><path d="M289,1V1079H1V1H289m1-1H0V1080H290V0Z"/><text class="cls-2" transform="translate(49.83 58.73)">Lt. Side Na<tspan class="cls-4" x="110.91" y="0">v</tspan><tspan x="120.23" y="0">. Menu</tspan><tspan x="-14.62" y="33.6">Expands to sh</tspan><tspan class="cls-5" x="125.38" y="33.6">o</tspan><tspan x="138.32" y="33.6">w links</tspan></text><text class="cls-6" transform="translate(99.99 436.73)">Menu Btn.</text><line class="cls-7" x1="112.5" y1="448.75" x2="177.5" y2="448.75"/><line class="cls-7" x1="112.5" y1="470.83" x2="177.5" y2="470.83"/><line class="cls-7" x1="112.5" y1="493.25" x2="177.5" y2="493.25"/><rect class="cls-8" x="48.75" y="181.19" width="192.5" height="96.5"/><path class="cls-9" d="M241,181.44v96H49v-96H241m.5-.5H48.5v97h193v-97Z"/><line class="cls-10" x1="48.5" y1="180.94" x2="241.5" y2="277.94"/><line class="cls-10" x1="48.5" y1="277.94" x2="241.5" y2="180.94"/><path d="M74.47,246.6V212.28h7v28.89H96.84v5.43Z"/><path d="M117.26,247.58c-10.53,0-18.71-7.61-18.71-18.14s8.18-18.13,18.71-18.13,18.53,7.61,18.53,18.13S127.73,247.58,117.26,247.58Zm0-30.72c-6.87,0-11.38,5.14-11.38,12.58S110.39,242,117.26,242s11.21-5.15,11.21-12.59S124,216.86,117.26,216.86Z"/><path d="M158.33,247.58c-9.9,0-18.25-7-18.25-18.14s8.69-17.9,18.7-17.9c4.52,0,9.33,1.31,12.19,3.49v6.35a17,17,0,0,0-11.5-4.24c-7.15,0-12.13,4.69-12.13,12.59,0,7.72,4.87,12.58,11.73,12.58a14.39,14.39,0,0,0,6.64-1.43v-6.69h-6.07V229H172.4V244.2A35.17,35.17,0,0,1,158.33,247.58Z"/><path d="M197,247.58c-10.52,0-18.7-7.61-18.7-18.14s8.18-18.13,18.7-18.13,18.54,7.61,18.54,18.13S207.46,247.58,197,247.58Zm0-30.72c-6.86,0-11.38,5.14-11.38,12.58S190.13,242,197,242s11.22-5.15,11.22-12.59S203.74,216.86,197,216.86Z"/><text class="cls-11" transform="translate(352.18 617.18) rotate(-90)">S<tspan class="cls-12" x="20.74" y="0">P</tspan><tspan class="cls-13" x="39.35" y="0">A</tspan><tspan x="63.18" y="0">CING</tspan></text><text class="cls-11" transform="translate(1592.18 617.18) rotate(-90)">S<tspan class="cls-12" x="20.74" y="0">P</tspan><tspan class="cls-13" x="39.35" y="0">A</tspan><tspan x="63.18" y="0">CING</tspan></text></g></g></svg>