<svg xmlns="http://www.w3.org/2000/svg" viewBox="0 0 770.64 467.1"><path d="M403.83,110.92a35.78,35.78,0,0,1-1.73,10.67,32.85,32.85,0,0,1-13,16.87,32,32,0,0,1-9.88,4.34l-1.31.33c-.44.11-.9.15-1.34.23a27.11,27.11,0,0,1-2.69.35l-2.7.14-2.71-.14a30.51,30.51,0,0,1-10.43-2.82,32.23,32.23,0,0,1-8.82-6.24,36.89,36.89,0,0,1-6.44-8.66c-.43-.79-.8-1.61-1.2-2.42s-.68-1.67-1-2.5-.51-1.73-.9-2.56a5.9,5.9,0,0,0-1.8-2.41l0,0a2.53,2.53,0,0,1-1.15-2.25,2.92,2.92,0,1,1,5.47,1.42,4.32,4.32,0,0,0-.56,2.72,18.7,18.7,0,0,0,.74,2.45c.32.8.61,1.6,1,2.38s.72,1.56,1.13,2.31a35,35,0,0,0,6.09,8.24,30.28,30.28,0,0,0,8.3,5.91,28.89,28.89,0,0,0,9.81,2.69A30.7,30.7,0,0,0,400.38,121,31.94,31.94,0,0,0,402,110.94a30.22,30.22,0,0,0-1.85-10,32.11,32.11,0,0,0-12.75-15.51c-5.58-3.92-12.41-5.75-19.18-6.28a48.44,48.44,0,0,0-10.21.37,36,36,0,0,0-9.74,2.55,52.91,52.91,0,0,0-16.64,11.47,93.09,93.09,0,0,0-12.7,16.11c-7.33,11.63-12.8,24.36-17.5,37.28-1.17,3.24-2.28,6.5-3.39,9.75s-2.17,6.69-3.32,10c-2.27,6.66-4.53,13.32-6.89,19.95-3.78,10.65-7.64,21.28-11.78,31.81a4.49,4.49,0,0,0-.32,2.05,2.36,2.36,0,0,0,.51,1.39c.95,1,3.39,1.3,4.84.72l-1.23,3.94H251l1.27-3.11a6.93,6.93,0,0,0,5-.22,9.83,9.83,0,0,0,3.78-3.38,5.41,5.41,0,0,0,.62-1.28c4.11-12.32,8.62-24.51,13.22-36.66,2.49-6.58,5.07-13.12,7.65-19.67,1.28-3.28,2.63-6.52,4-9.79s2.79-6.64,4.35-9.89a193.44,193.44,0,0,1,10.22-19,165.59,165.59,0,0,1,12.35-17.76c2.24-2.84,4.61-5.56,7.09-8.19A95.89,95.89,0,0,1,328.37,90,61,61,0,0,1,346.88,78.6a39.43,39.43,0,0,1,10.7-2.38,54.63,54.63,0,0,1,10.85,0A47.75,47.75,0,0,1,379,78.49a41.49,41.49,0,0,1,5,2.11c.82.41,1.62.86,2.4,1.34.4.24.78.49,1.17.76l1.08.75A34.69,34.69,0,0,1,402,100.26,31.81,31.81,0,0,1,403.83,110.92Z" fill="#231f20"/><circle cx="340.32" cy="102.06" r="3.85" fill="#231f20"/><circle cx="352.32" cy="91.06" r="3.48" fill="#231f20"/><circle cx="367.32" cy="89.06" r="2.85" fill="#231f20"/><path d="M372,320.21h1.68L371.51,325H342.39l2.18-4.74h1.69c3.34,0,7.17-3.08,8.57-6.89l13.42-34.62,1.16,2.62a37.85,37.85,0,0,0,8.18,8.57l-9.09,23.43C367.1,317.13,368.67,320.21,372,320.21Z" fill="#231f20"/><path d="M529.56,108.44v.06a27.4,27.4,0,0,1-2,9.09,19.27,19.27,0,0,1-5.57,7.46,22.82,22.82,0,0,1-32.65-5.59,19,19,0,0,1-2.71-8.72,13.47,13.47,0,0,1,0-2.29l0-1.15c0-.38.07-.76.09-1.15.06-.76,0-1.55.06-2.33a12.78,12.78,0,0,0-.12-2.44,1.44,1.44,0,0,1,.17-.92,1.39,1.39,0,0,1,2.58.5,1.39,1.39,0,0,1-.27,1.05l-.06.07a9.79,9.79,0,0,0-1.85,4.14c-.08.37-.15.74-.2,1.11l0,1.13a13,13,0,0,0,.07,2.25,18.55,18.55,0,0,0,2.77,8.43,21.23,21.23,0,0,0,14.7,9.23c5.86.92,12.18-.44,16.68-4.26a18,18,0,0,0,5.08-7,25.84,25.84,0,0,0,1.77-8.62,25.75,25.75,0,0,0-2-9,16.64,16.64,0,0,0-5.61-7,19.5,19.5,0,0,0-4-2.11A23.18,23.18,0,0,0,512,89.21a31.08,31.08,0,0,0-9.23.22,45.06,45.06,0,0,0-17.19,7l-1.94,1.35c-.65.45-1.29.91-1.93,1.37-1.28.92-2.54,1.88-3.72,2.88a63.66,63.66,0,0,0-6.71,6.53A66.07,66.07,0,0,0,461,124.1l-7.73,17.55-1.45,3.15-.49,1.08L436,179.21l-3.23-4.63,2-4.14a6.84,6.84,0,0,0,.64-4.19,12,12,0,0,0-.86-2.13,6.43,6.43,0,0,0-3.24-2.39l-3.66-1.28c-13.2-4.57-29.39,9.78-31.09,13.87-4.7,5.52-10.26,25.08-3.44,36.56.88,1.49,8,13,18.37,10.29,7.18-1.85,12.46-14.4,12.46-14.4,1.17-3.56-5-2.18-6.91-2.74l1.19-2.75h20.22L437.28,204c-10.74,0-8.4,7-15.8,14.77-19.86,20.77-54-1.92-47.34-33.15,7-21.64,35.76-36.87,60-26.26a6.88,6.88,0,0,0,2.18.61,4,4,0,0,0,1.95-.23,6,6,0,0,0,3.05-2.92l5.47-11.43c1.18-2.42.38-9.14,0-12.95-.66-27.24-26-28.69-20.39-7.49,1.23,3.83,8.45,10.43,11.36,5.23,3.33-6.14,8.73,3.94,1.77,3.31a6.71,6.71,0,0,0-2.74-.71c-8.7,1.3-14.22-7.76-13.33-15.41,2.83-15.63,21.14-10,24.41,2.57a55.46,55.46,0,0,1,3.32,11.94c.17,1.09.32,2.19.44,3.29l6.06-12.68a69.57,69.57,0,0,1,11.18-16.14,63.14,63.14,0,0,1,7.2-6.67c2.56-2.07,5.27-3.8,8-5.61a47.67,47.67,0,0,1,18.31-6.9,33.12,33.12,0,0,1,9.89,0,25.52,25.52,0,0,1,4.83,1.29,21.73,21.73,0,0,1,4.41,2.42,18.42,18.42,0,0,1,6.08,7.87A27.29,27.29,0,0,1,529.56,108.44Z" fill="#231f20"/><path d="M767.53,386.22a115.14,115.14,0,0,1-4.21,13.16,101.89,101.89,0,0,1-5.77,12.51c-2.2,4-4.38,8.16-7.37,11.69-2,2.41-6.69,7.29-9.95,10.55-6.48,6.56-13.8,11.47-21.76,15.86-15.42,8.06-35.84,13.24-52.39,15.05-14.05,1.78-36.42,3.47-54.72.21-7.44-1.33-43.16-8.33-73.78-36.3-14-12.77-23.19-26.52-36.59-46.52a425.33,425.33,0,0,1-26.52-45.78c-10.05-20.23-14.22-31.55-15.85-35.25-.42-1-2.45-6.67-3.71-9.19s-3.46-3.6-4.74-4.44c11.5-.47,20-8,21.78-16.75,2.93-14.66-7.09-14.22-7.09-14.22a6.35,6.35,0,0,0-2.61.77,16.31,16.31,0,0,0-7.64,8.25c-6.78,15.71-20.69,47.64-20.69,47.72-1.63,3.81-.8,7,3.1,7h1.91s0,0,0,.06-2.47,4.68-2.54,4.68l-14.84.09a2.22,2.22,0,0,0-2,1.32c-1.91,4.26-8.66,17.69-12.1,24.31-2.48,5.11-4.9,10.47-7.31,15.62,0,0-1.22,2.57-1.22,2.62l.4,2.28a41.89,41.89,0,0,0,16.29,26.94c15.72,12,36.66,10.78,44.36-9.36,4.51-9.88,1.51-23.41-9.54-27.17-7.4-2.72-16.09,1.22-19.56,8.19-.22.4-.38.83-.57,1.25A17.45,17.45,0,0,0,429,376a24.68,24.68,0,0,0-.13,2.86s0,.62,0,.82a18.64,18.64,0,0,0,5.56,4.93,2.38,2.38,0,0,1,1,3,2.29,2.29,0,0,1-3.22,1c-13.73-8.43-13.44-28.38-2.3-38.83.34-.37.71-.72,1.05-1.09s.73-.69,1.09-1a4.2,4.2,0,0,0,.94-1.26,5.13,5.13,0,0,0,.58-1.94,3.08,3.08,0,1,1,2.77,3.37l-.3,0-.35-.07a3.47,3.47,0,0,0-2.92.75,17.09,17.09,0,0,0-2.05,2c-6.14,7.81-8,20.06-2.35,28.53l-.05-.95c0-.47.08-1.67.11-2.12a19.21,19.21,0,0,1,1.23-4.8c.18-.43.34-.88.55-1.3,3.51-7.41,12.61-11.68,20.49-9,11.94,3.82,15.49,18.2,10.88,28.9-7.84,21.81-30.72,23.68-47.82,11.09a45.35,45.35,0,0,1-17.55-26h0c-.66,1.41-2.73,5.16-5.06,6.8-7.21,5.41-18.43,1.64-20.68-7.11-3.11-11,8.91-20.43,18.76-14.42a5.32,5.32,0,0,0,2.12.54,1.57,1.57,0,0,1,1.67,1.24,1.63,1.63,0,0,1,0,.76.75.75,0,0,1,0,.16.77.77,0,0,1-.07.16,1.63,1.63,0,0,1-3.09-.48c-.19-1.51-1.46-2-2.66-2.46-8.59-3.19-17.48,5.09-14.53,13.84a10.87,10.87,0,0,0,7.07,6.86c5.8,1.65,11-1.6,12.89-7.19l4.18-10.7.53-1.36h0l.16-.4h0l4.84-12.4s14.47-32.58,15.57-35.16c0,0,16.65-38.46,22.48-51.88A4.16,4.16,0,0,0,436,256.8h-1.9L436.5,252l32.73.33c1.58,0,11.73.32,16.91,7.45,6.5,9,1.08,23.46-8,29.66a23.07,23.07,0,0,1-12.89,3.78,20.45,20.45,0,0,1,8.55,4.56c4.69,4.27,3.73,5.66,6.78,12.05.49,1,6.07,13.42,18.33,38.17,0,0,6.57,13.25,15.78,29.11,14.8,25.49,31.28,48.77,40.34,55.78,38,29.41,83.05,31.41,110.68,29.26,16.5-1.22,26-3.43,36.12-7.59a98.15,98.15,0,0,0,34.81-24.37l.17-.19a82.25,82.25,0,0,0,8.05-10.09,92,92,0,0,0,6.56-11.13,108.07,108.07,0,0,0,8.78-24.29,93.54,93.54,0,0,0,2.36-17.2,52.1,52.1,0,0,1-5.15,6.82,57.32,57.32,0,0,1-26.07,16.56,51.52,51.52,0,0,1-30.58.34,43.18,43.18,0,0,1-13.64-7.21A40.33,40.33,0,0,1,677,372.24a41.54,41.54,0,0,1-5.18-14.34,32.9,32.9,0,0,1,.75-15.21,29.18,29.18,0,0,1,8-12.87,33.62,33.62,0,0,1,13-7.54,32.34,32.34,0,0,1,14.94-1.14A22.9,22.9,0,0,1,721.74,328a23.48,23.48,0,0,1,5.85,13.54,36.18,36.18,0,0,1,0,7.43c-.12,1.23-.26,2.46-.48,3.67l-.06.31H727l0-.31c.19-1.22.3-2.45.4-3.68a36.31,36.31,0,0,0-.21-7.37,22.87,22.87,0,0,0-6-13.09,22.06,22.06,0,0,0-12.83-6.27,31.14,31.14,0,0,0-14.33,1.44,31.92,31.92,0,0,0-12.24,7.48,27.13,27.13,0,0,0-7.2,12.18,30.65,30.65,0,0,0-.35,14.16,39,39,0,0,0,5.31,13.21,37,37,0,0,0,9.68,10.3,39.22,39.22,0,0,0,12.66,6.13,46.73,46.73,0,0,0,27.8-1.32,51.4,51.4,0,0,0,22.65-15.95,45,45,0,0,0,9.1-19h0c0-.07,0-.13,0-.2a0,0,0,0,1-.08,0,61.16,61.16,0,0,0-5.34-16.2,58.08,58.08,0,0,0-15.79-19.58,68.17,68.17,0,0,0-22.45-11.64A97.73,97.73,0,0,0,692.63,299c-2.15-.09-4.28-.11-6.45-.09s-4.34,0-6.49.13a110.59,110.59,0,0,0-12.77,1.2c-8.38,1.34-16.6,3.86-23.6,8.3a42.1,42.1,0,0,0-9.3,8A40.42,40.42,0,0,0,627.64,327c-3.17,7.61-4,16.18-3.46,24.51a57.76,57.76,0,0,0,7,23.86c5.58,10.63,12.38,18.48,12.29,28.41-.35,16.32-16.36,29.63-32.5,27.41-20.56-1.93-31.17-27.39-20.24-44.2h0c-8.27,13.22-.55,31.37,13.85,36.06,14.53,5.66,31.75-4.28,33.94-19.75,1.2-9.78-3.07-18.53-8-27.63-6-11.1-12.84-22.73-11.81-37.43a47.45,47.45,0,0,1,3.17-13.6,46.88,46.88,0,0,1,7-12.39,48.14,48.14,0,0,1,10.6-9.65c8-5.33,17.07-8.35,26.15-10.06a102.54,102.54,0,0,1,13.69-1.59c2.27-.12,4.55-.19,6.75-.24s4.55-.06,6.84,0a114.66,114.66,0,0,1,13.81,1.16c2.3.33,4.59.77,6.88,1.25s4.55,1.11,6.8,1.82a74.37,74.37,0,0,1,25.27,13.16A66.87,66.87,0,0,1,756,318.39a66.13,66.13,0,0,1,11.63,22.71,0,0,0,0,1,0,0h0l0,0a75.15,75.15,0,0,1,2,8.72,77.12,77.12,0,0,1,.9,8.53A93.5,93.5,0,0,1,767.53,386.22Z" fill="#231f20"/><circle cx="446.58" cy="375.26" r="3.06" fill="#231f20"/><circle cx="606.36" cy="362.38" r="5.83" fill="#231f20"/><circle cx="704.36" cy="338.6" r="5.83" fill="#231f20"/><circle cx="626.35" cy="291.14" r="2.86" fill="#231f20"/><path d="M459.26,236.28a3.77,3.77,0,1,0,3.77,3.77A3.77,3.77,0,0,0,459.26,236.28Zm0,1.56c.56,0,1,1,1,2.21s-.46,2.22-1,2.22-1-1-1-2.22S458.69,237.84,459.26,237.84Zm-2.33,2.21a2.27,2.27,0,0,1,.92-1.84,6.56,6.56,0,0,0-.24,1.84,7,7,0,0,0,.24,1.86A2.32,2.32,0,0,1,456.93,240.05Zm3.74,1.85a6.58,6.58,0,0,0,.24-1.85,7,7,0,0,0-.23-1.84,2.33,2.33,0,0,1,0,3.69Z" fill="#231f20"/><path d="M534.52,157.32a3.77,3.77,0,1,0,3.77,3.77A3.77,3.77,0,0,0,534.52,157.32Zm0,1.56c.56,0,1,1,1,2.21s-.46,2.22-1,2.22-1-1-1-2.22S534,158.88,534.52,158.88Zm-2.33,2.21a2.27,2.27,0,0,1,.92-1.84,6.56,6.56,0,0,0-.24,1.84,7,7,0,0,0,.24,1.86A2.32,2.32,0,0,1,532.19,161.09Zm3.74,1.85a6.58,6.58,0,0,0,.24-1.85,7,7,0,0,0-.23-1.84,2.33,2.33,0,0,1,0,3.69Z" fill="#231f20"/><path d="M544.58,150a2.18,2.18,0,1,0,2.18,2.18A2.19,2.19,0,0,0,544.58,150Zm0,.9c.32,0,.59.58.59,1.28s-.27,1.28-.59,1.28-.59-.57-.59-1.28S544.25,150.86,544.58,150.86Zm-1.35,1.28a1.3,1.3,0,0,1,.53-1.06,3.83,3.83,0,0,0-.14,1.06,4.48,4.48,0,0,0,.14,1.08A1.37,1.37,0,0,1,543.23,152.14Zm2.16,1.07a3.91,3.91,0,0,0,.14-1.07,4.27,4.27,0,0,0-.13-1.06,1.34,1.34,0,0,1,0,2.13Z" fill="#231f20"/><path d="M728,361.19a3.2,3.2,0,1,1-3.35-5.34,3.45,3.45,0,0,0,2.41-2.94h.05a3.94,3.94,0,0,0,1.14,3.74h0A3.2,3.2,0,0,1,728,361.19Z" fill="#231f20"/><path d="M596.76,384.81c-2.53,0-5.06.4-6,2.17h0a6.12,6.12,0,0,0,.91-5.35C591.53,369.86,607.29,380.08,596.76,384.81Z" fill="#231f20"/><path d="M681.85,261.86A22.85,22.85,0,0,1,665.78,281a23.07,23.07,0,0,1-3.13.65c-1,.16-1.94.29-2.91.4-1.92.24-3.83.44-5.74.62-7.64.72-15.26,1.29-22.89,1.83l-.9.06a12.16,12.16,0,0,1,3.48,4,13.53,13.53,0,0,1,1.66,6.74,12.26,12.26,0,0,1-2.2,6.88,11.5,11.5,0,0,1-9.91,4.77,8.16,8.16,0,0,1-4-1.32,7.6,7.6,0,0,1-2.76-3.35A7.49,7.49,0,0,1,616,298a7,7,0,0,1,5.3-5.6,1.33,1.33,0,0,1,1.06,2.36l-.17.13a5,5,0,0,0-1.9,3.71,3.59,3.59,0,0,0,.39,1.78,3.81,3.81,0,0,0,1.14,1.33,5.15,5.15,0,0,0,4,.37,11.11,11.11,0,0,0,1.15-.36,6,6,0,0,0,1-.52,7.75,7.75,0,0,0,1.81-1.57,10,10,0,0,0-2.06-14.05,10.12,10.12,0,0,0-1.25-.79l-6.84.42c-3.79.21-7.66.4-11.55.43H581L570.5,313.32c-1.4,3.81.17,6.89,3.5,6.89h19.54a7.53,7.53,0,0,0,5.91-2.84,12,12,0,0,0,2.41-5.56,1.42,1.42,0,0,1,1.41-1.16h3.79l-4.19,9.56L600.69,325h-56.3l2.18-4.74h1.69c3.33,0,7.17-3.08,8.56-6.89l17.34-45.74,1.56-4.23c1.38-3.76-.18-6.82-3.48-6.82h-1.66l2.15-4.54h48.64l-2.3,4.76-4.84,9.61h-5.65a17.89,17.89,0,0,0,4.09-6l.25-.63c1.48-3.52,1.18-3-3.23-3H592l-1.27,3.32-.58,1.51-6.77,17.85a356.18,356.18,0,0,0,36.17,2c3.79,0,7.54-.3,11.33-.6,7.58-.61,15.16-1.37,22.67-2.38,1.87-.26,3.74-.53,5.59-.84.93-.15,1.84-.32,2.74-.5a21.49,21.49,0,0,0,2.45-.6,14.33,14.33,0,0,0,7.42-6.16,18.48,18.48,0,0,0,2.55-9.1,17.35,17.35,0,0,0-2-8.87A16.4,16.4,0,0,0,666,246a20.74,20.74,0,0,0-4.4-1.93c-.43-.16-1.53-.34-2.46-.56s-2-.46-2.94-.72a34.26,34.26,0,0,1-11.48-5.21,19.58,19.58,0,0,1-4.65-4.78,17,17,0,0,1-2.6-6.19c-.09-.54-.2-1.08-.25-1.63s-.1-1.07-.11-1.62,0-1.1,0-1.66.15-1.13.25-1.67a14,14,0,0,1,2.75-5.94A14.24,14.24,0,0,1,651.18,209a13.43,13.43,0,0,1,5.86,1.28,8.45,8.45,0,0,1,4.13,4.1,8.7,8.7,0,0,1,.31,5.65,22.25,22.25,0,0,0-.63,2.84,10.93,10.93,0,0,0,0,3.44,3.73,3.73,0,0,1,0,.47,2.88,2.88,0,0,1-1.85,2.74,2.81,2.81,0,1,1-1.59-5.39,5.2,5.2,0,0,0,4-4.1,7.63,7.63,0,0,0-.56-5.52,7.33,7.33,0,0,0-4.27-3.28,12.13,12.13,0,0,0-5.35-.43,11.63,11.63,0,0,0-8.51,5.2,10.16,10.16,0,0,0-1.36,4.61,11.6,11.6,0,0,0,0,1.18c0,.39.11.81.15,1.2s.17.81.25,1.21.23.78.34,1.17a12.09,12.09,0,0,0,2.37,4,14.45,14.45,0,0,0,3.67,3,30,30,0,0,0,9.6,3.36c.87.16,1.75.31,2.65.44a29,29,0,0,1,3.15.55,28.27,28.27,0,0,1,6.18,2.33,22.77,22.77,0,0,1,12.07,22.82Z" fill="#231f20"/><path d="M569.48,181.87a16.18,16.18,0,0,1-1.27,6.58,9.74,9.74,0,0,1-4.48,5,14.72,14.72,0,0,1-1.61.59,16.3,16.3,0,0,1-1.68.27c-.55,0-1.12,0-1.67,0s-1.12-.05-1.67-.16a10.19,10.19,0,0,1-5.81-3.19,10.3,10.3,0,0,1-2.51-6.12,13.49,13.49,0,0,1,.07-1.68,7.91,7.91,0,0,0,.06-.84c0-.29.07-.57.07-.87,0-.6.1-1.2.11-1.89s.1-1.38,0-2.3l0-.61a3.9,3.9,0,1,1,4.16,3.61h-.33a3.23,3.23,0,0,0-2.85,1.52,4.79,4.79,0,0,0-.62,3,9.63,9.63,0,0,0,2.4,5.65,9.34,9.34,0,0,0,5.39,2.85,10.43,10.43,0,0,0,6.07-.71,8.48,8.48,0,0,0,3.87-4.57,15,15,0,0,0,1-6.12,14,14,0,0,0-.45-3,16,16,0,0,0-1.24-2.79,13.47,13.47,0,0,0-4.16-4.43,15.56,15.56,0,0,0-11.65-2.19,14,14,0,0,0-9.38,6.68,27.25,27.25,0,0,0-3.5,9.89,47,47,0,0,1,2.07,6.62,59.89,59.89,0,0,1,1.31,7.49c.29,2.5.44,5,.53,7.49s-.05,5.08-.18,7.62c-.77,14.58-10.31,27.84-6.66,34.47a13.43,13.43,0,0,0,1.56,2.28h18.84l-2.3,4.76-4.84,9.61h-5.65a17.71,17.71,0,0,0,4.08-6l.26-.63c1.33-3.18,1.22-3.05-2.06-3h-18.9l-1.27,3.32-.58,1.51-6.77,17.85h27l-2.35,6.22h-27l-10.49,27.67c-1.4,3.81.17,6.89,3.5,6.89h19.54a7.53,7.53,0,0,0,5.91-2.84,12,12,0,0,0,2.41-5.56,1.42,1.42,0,0,1,1.41-1.16H541l-4.19,9.56L534.58,325h-56.3l2.18-4.74h1.69c3.33,0,7.17-3.08,8.56-6.89l17.34-45.74,1.56-4.23c.83-2.26.6-4.26-.44-5.5a3.78,3.78,0,0,0-3-1.32h-1.66l2.15-4.54h14.72a32.09,32.09,0,0,0,7.19-6.84,21,21,0,0,0,1.35-2c1.14-2,6.31-15,7-28.3.12-2.35.24-4.7.13-7-.07-1.65-.16-3.27-.3-4.87-.06-.76-.14-1.52-.23-2.27a51.06,51.06,0,0,0-3.17-13.19,3.42,3.42,0,0,0-.13-.34l-.67-1.58c-.24-.52-.52-1-.77-1.53-.49-1-1.14-2-1.71-2.94a30.11,30.11,0,0,0-4.31-5.16,35.28,35.28,0,0,0-11.45-7.13,38.2,38.2,0,0,0-13.41-2.46,39.08,39.08,0,0,0-25.37,9,36.43,36.43,0,0,0-4.87,4.83,44.91,44.91,0,0,0-4,5.67,40.07,40.07,0,0,0-5,12.94,32.51,32.51,0,0,0,.5,13.91,35.08,35.08,0,0,0,6.5,12.55,35.59,35.59,0,0,0,5,5.14c.88.82,1.88,1.47,2.83,2.2l1.52.95a12.68,12.68,0,0,0,1.56.88,28.61,28.61,0,0,0,6.7,2.56,26.53,26.53,0,0,0,3.55.58,25.53,25.53,0,0,0,3.61.14,27.55,27.55,0,0,0,7.52-1.31,29.61,29.61,0,0,1-12.24-3.18,30.51,30.51,0,0,1-3.34-2.06,25.46,25.46,0,0,1-7.69-8.34,25.54,25.54,0,0,1-2.87-6.71,28.41,28.41,0,0,1-.73-3.51c-.08-.59-.1-1.19-.16-1.77a13.09,13.09,0,0,1-.06-1.77,30.61,30.61,0,0,1,.74-6.91l.47-1.66.24-.82.32-.8.62-1.59.77-1.52a29.19,29.19,0,0,1,1.73-2.9c.31-.47.68-.9,1-1.34a16.56,16.56,0,0,1,1.05-1.3l1.13-1.24c.37-.41.81-.76,1.21-1.14a27.12,27.12,0,0,1,2.6-2.07A25.1,25.1,0,0,1,498,181.24a22.85,22.85,0,0,1,12.55,2.37,21.57,21.57,0,0,1,5.24,3.69,23.18,23.18,0,0,1,2.17,2.37,4.14,4.14,0,0,0,3.35,1.75l.2,0a3.28,3.28,0,1,1-3.61,2.92,3.67,3.67,0,0,1,.34-1.14,2.9,2.9,0,0,0-.29-3.54,20.22,20.22,0,0,0-2.19-2.34,21.82,21.82,0,0,0-5.27-3.61,22.37,22.37,0,0,0-12.44-2,23.74,23.74,0,0,0-14,6.92c-.37.38-.77.73-1.1,1.14l-1,1.23a12,12,0,0,0-.92,1.29c-.28.45-.59.88-.84,1.34a25.71,25.71,0,0,0-1.39,2.84,23.93,23.93,0,0,0,2.59,23.67l1,1.19,1.08,1.08a8.41,8.41,0,0,0,1.14,1c.4.31.77.66,1.19.94a20.69,20.69,0,0,0,2.59,1.56,19.08,19.08,0,0,0,2.75,1.2,21,21,0,0,0,5.85,1.08,21.19,21.19,0,0,0,5.84-.7l.39-.11a4.53,4.53,0,0,1,5.54,3.23,4.61,4.61,0,0,1,.1,1.84,2.59,2.59,0,0,1-.09.42,4.52,4.52,0,0,1-3.24,3.28,4.19,4.19,0,0,1-.85.14c-.77.05-1.54.07-2.3.07a28.09,28.09,0,0,1-8.82,2,25.54,25.54,0,0,1-3.71,0,26.9,26.9,0,0,1-3.68-.5,29,29,0,0,1-7-2.44,14.41,14.41,0,0,1-1.65-.87l-1.61-.94c-1-.72-2.07-1.38-3-2.19a37.36,37.36,0,0,1-5.32-5.2,38.69,38.69,0,0,1-7.27-13,36.19,36.19,0,0,1-1.32-14.89A42.19,42.19,0,0,1,463.5,184a41,41,0,0,1,9.34-11.86,43.38,43.38,0,0,1,28-10.27,42.82,42.82,0,0,1,15,2.61,38.82,38.82,0,0,1,13.05,8,34.55,34.55,0,0,1,5,5.94c.44.73.91,1.45,1.33,2.18a27.29,27.29,0,0,1,3.39-6.34l.5-.72c.18-.23.39-.44.58-.66.39-.44.76-.89,1.18-1.3l1.33-1.17a11.54,11.54,0,0,1,1.46-1,16.29,16.29,0,0,1,6.56-2.37,17.6,17.6,0,0,1,13.08,3.08,15.68,15.68,0,0,1,4.45,5.14,16.47,16.47,0,0,1,1.3,3.17A14.9,14.9,0,0,1,569.48,181.87Z" fill="#231f20"/><path d="M354.88,252.43s-8.61,22.44-8.67,23h-4.46c.12-.27,4.46-7.85,2-13.44a9.94,9.94,0,0,0-3.85-4.37,11.55,11.55,0,0,0-11-1,11.88,11.88,0,0,0-6.14,7c-1.53,4.61.31,8.83,1.77,12.08,3.91,8.64,8.2,8.17,11.71,15.7.88,1.89,3.93,8.43,1.85,16.07-2.34,8.6-9.57,12.73-11.11,13.56-7,3.75-13.74,2.62-18.37,1.85a30.84,30.84,0,0,1-3.11-.73,14.57,14.57,0,0,0-14.34,3.64c-4.34,4.47-5.93,11.33-.42,16.2a11.25,11.25,0,0,0,6.16,2.8,11.94,11.94,0,0,0,7.18-1.37,12.52,12.52,0,0,0,3.07-2.33,6,6,0,0,0,1.19-1.55,2.46,2.46,0,0,0-.44-2.32,3.11,3.11,0,1,1,4.34.76,3.29,3.29,0,0,1-1.14.5l-.22,0a4.83,4.83,0,0,0-1.41.51,3.08,3.08,0,0,0-.87.67,3.26,3.26,0,0,0-.57.82l-.56.84a15.69,15.69,0,0,1-10.5,6.32,16.19,16.19,0,0,1-9-1.15,17.22,17.22,0,0,1-7.47-6.23c-6.25-9.09-1.92-23,8.26-27.23,1.37-.57,3.44-1,5-.25h0c-.53-1.25-3.32-7.07-4-8.63a75,75,0,0,0-4.72-9.5c-1-1.48-1.83-3-2.9-4.43-.52-.71-1-1.43-1.55-2.13L279,286.15a23.47,23.47,0,0,0-1.72-2l-1.79-1.92h0l-1.91-1.78-.95-.89h0l-1-.8-2-1.61h0l-2.16-1.42c-1.42-1-3-1.73-4.48-2.59-.75-.43-1.57-.69-2.36-1.05s-1.56-.72-2.41-1l-2.53-.76c-.85-.26-1.69-.53-2.46-.68a30.84,30.84,0,0,0-10.13-.25,37.12,37.12,0,0,0-10,2.75,28.57,28.57,0,0,0-8.56,5.71,23.66,23.66,0,0,0-5.53,8.67c-.33.82-.53,1.64-.78,2.46h0a20.82,20.82,0,0,0-.34,2.53,22.86,22.86,0,0,0-.07,2.62h0a25.4,25.4,0,0,0,.29,2.61,22.61,22.61,0,0,0,1.45,5.12,23,23,0,0,0,2.58,4.71,25.13,25.13,0,0,0,18.23,10.75A20,20,0,0,0,251,315.52h0l1.19-.71c.19-.12.4-.23.59-.36l.53-.43,1.08-.87h0l.94-1a6.11,6.11,0,0,0,.88-1.08,10.05,10.05,0,0,0,.74-1.17,2.52,2.52,0,0,0,.16-1.46,3.73,3.73,0,0,0-.73-1.72,4.1,4.1,0,1,1,5.74.75,4.17,4.17,0,0,1-1.36.69l-.34.09a5.5,5.5,0,0,0-3,1.91,23.89,23.89,0,0,1-1.68,2.31l-.94,1.08h0l-1.1.93-.54.47-.6.39-1.22.77h0a20.82,20.82,0,0,1-11.1,2.24,26.13,26.13,0,0,1-10.92-3.2,29.77,29.77,0,0,1-4.7-3.28,27.54,27.54,0,0,1-6.87-9.13,24.35,24.35,0,0,1-1.89-5.46,27.25,27.25,0,0,1-.47-2.87h0a25.65,25.65,0,0,1-.1-2.91,26.49,26.49,0,0,1,.24-2.93h0c.22-.95.41-1.92.72-2.84a26.84,26.84,0,0,1,5.71-10.13,31.84,31.84,0,0,1,9.32-7,41.2,41.2,0,0,1,11.06-3.66,36,36,0,0,1,11.77-.29,28.37,28.37,0,0,1,2.89.63l2.83.7c.94.22,1.84.63,2.77.94s1.87.62,2.74,1.05a43.72,43.72,0,0,1,5.22,2.71c.83.51,1.67,1,2.49,1.55h0l2.36,1.75,1.17.88h0l1.1,1,2.2,1.94h0c.69.68,1.36,1.39,2,2.08a28.68,28.68,0,0,1,2,2.15l1.88,2.23c.61.76,1.17,1.55,1.75,2.33,1.2,1.53,2.18,3.2,3.26,4.81h0c2,3.33,5.38,10.47,5.41,10.55h0c5,14,8.38,17.55,14,19.81,1.89.76,8.35,2,12.89-2,4.9-4.3,3.87-11.61,3.63-12.74-2.07-9.55-9.92-14.07-14.22-21-3.4-5.45-3.6-13.6-.3-20.52.66-1.37,4.3-8.67,12.45-11.56,1.33-.47,8.51-3,14.74-.14A22.12,22.12,0,0,0,346,256c4.77.7,4.63-3.56,4.63-3.56h4.22Z" fill="#231f20" stroke="#231f20" stroke-miterlimit="10" stroke-width="0.75"/><path d="M328.81,331.81a3.77,3.77,0,1,0,3.77,3.77A3.77,3.77,0,0,0,328.81,331.81Zm0,1.56c.56,0,1,1,1,2.21s-.46,2.22-1,2.22-1-1-1-2.22S328.24,333.37,328.81,333.37Zm-2.33,2.21a2.27,2.27,0,0,1,.92-1.84,6.56,6.56,0,0,0-.24,1.84,7,7,0,0,0,.24,1.86A2.32,2.32,0,0,1,326.48,335.58Zm3.74,1.85a6.58,6.58,0,0,0,.24-1.85,7,7,0,0,0-.23-1.84,2.33,2.33,0,0,1,0,3.69Z" fill="#231f20"/><path d="M327.81,229.81a3.77,3.77,0,1,0,3.77,3.77A3.77,3.77,0,0,0,327.81,229.81Zm0,1.56c.56,0,1,1,1,2.21s-.46,2.22-1,2.22-1-1-1-2.22S327.24,231.37,327.81,231.37Zm-2.33,2.21a2.27,2.27,0,0,1,.92-1.84,6.56,6.56,0,0,0-.24,1.84,7,7,0,0,0,.24,1.86A2.32,2.32,0,0,1,325.48,233.58Zm3.74,1.85a6.58,6.58,0,0,0,.24-1.85,7,7,0,0,0-.23-1.84,2.33,2.33,0,0,1,0,3.69Z" fill="#231f20"/><path d="M315.61,175.5v.06C312,192.32,303,215,303,215c-1.4,3.81.17,6.89,3.5,6.89h1.69L306,226.58H285.39l2.18-4.74h1.69c3.34,0,7.76-3.08,9.16-6.89L311,183.43c1.56-4.47,4.71-11.4-.23-14.93-4.14-2.17-10.25.27-10.61,5.3-.62,3.64,3.17,7.9,6.9,5.77.43-.3,1.15-.41,1-1.37a1.15,1.15,0,1,1,.9.91c-1-.16-1.2.42-1.75.67a4.87,4.87,0,0,1-5,0c-4.38-2.43-4-9.77,0-12.16C308.83,163.9,316.15,169.13,315.61,175.5Z" fill="#231f20"/><path d="M285.39,254a30.32,30.32,0,0,1-3.48,13.3,34.22,34.22,0,0,1-8.64,10.47,28.82,28.82,0,0,1-5.86,3.6,28.4,28.4,0,0,1-3.22,1.22c-.56.16-1.15.34-1.72.46s-1.15.2-1.7.27a33.49,33.49,0,0,1-13.37-.75,28.76,28.76,0,0,1-11.75-6.28,27.76,27.76,0,0,1-7.49-10.78,27.11,27.11,0,0,1-1.64-12.77,30,30,0,0,1,1.48-6.27,32.14,32.14,0,0,1,1.27-3,5,5,0,0,0-.19-4l0-.12a4.77,4.77,0,0,1,2.16-6,4.64,4.64,0,1,1,2,8.79,3.51,3.51,0,0,0-3.38,1.55,26.4,26.4,0,0,0-1.29,2.88,29.23,29.23,0,0,0-.93,3,25.28,25.28,0,0,0-.48,3.12,22.69,22.69,0,0,0,2.33,12.15,26.21,26.21,0,0,0,7.87,9.31,29.22,29.22,0,0,0,10.91,5,30.29,30.29,0,0,0,12,.26c.36-.06.69-.13,1-.2a8.44,8.44,0,0,0,1-.25,23.61,23.61,0,0,0,3.47-1.37,24.34,24.34,0,0,0,4.88-3.24,30.47,30.47,0,0,0,7.22-9.32,25.42,25.42,0,0,0,2.62-11.25,30.25,30.25,0,0,0-2.27-11.46c-.37-.91-.78-1.8-1.22-2.65s-1-1.72-1.51-2.53a33.49,33.49,0,0,0-3.62-4.67c-5.34-5.86-12.57-9.86-20.23-12.58a98.82,98.82,0,0,0-11.89-3.32L234,215.49a8.05,8.05,0,0,0-8.43,3.56c-2.51,3.95-4.91,7.8-7.24,11.39l-7.45,10.82-3.65,5.15-9,12.74c-6.49,9.85-14.44,19.57-25.61,24.37-14.52,6.25-40.08,4.69-46.45-14.47-8.38-25.19,28-43.28,38.14-16.66a19.4,19.4,0,0,1,.83,9.35c-.06.41-.17.91-.29,1.39l-.86,2.8c0,.12-.09.24-.13.35a14.16,14.16,0,0,0-.6,2.39,12.63,12.63,0,0,0-.15,2.92l0,.21a2.88,2.88,0,1,1-3.26-2.65,5.12,5.12,0,0,0,3.95-2.88c.05-.1.09-.22.14-.34l.87-2.79c.11-.49.21-1,.28-1.41a19.21,19.21,0,0,0-.9-9.3c-8.95-22.39-38.56-9.89-37.42,10.37,2.19,21.41,29,25.18,44.64,18,10.54-4.5,17.63-14.4,23.49-23.85l4.34-6.3a22.51,22.51,0,0,1-12.8.16,15.88,15.88,0,0,1-9.63-9.17,14.26,14.26,0,0,1-.9-4.64,16.2,16.2,0,0,1,.51-4.64,15.06,15.06,0,0,1,4.95-7.73,14.67,14.67,0,0,1,8.44-3.26,20.57,20.57,0,0,1,4.45.3,11.65,11.65,0,0,1,4.24,1.5A5.54,5.54,0,0,1,201,226.9a6.92,6.92,0,0,1,.09,2.31,3.45,3.45,0,0,0,.38,2.55l.08.14a3,3,0,0,1-.61,3.67,2.89,2.89,0,1,1-3.27-4.72,3.57,3.57,0,0,1,.68-.27,1.86,1.86,0,0,0,1.52-1.58,6.07,6.07,0,0,0,.16-1.94,3.93,3.93,0,0,0-.72-1.75,4.5,4.5,0,0,0-1.48-1.21A10.41,10.41,0,0,0,194,223a18.12,18.12,0,0,0-4.1,0,12.89,12.89,0,0,0-7,3.35A12.6,12.6,0,0,0,179,233a13.69,13.69,0,0,0-.27,3.84,11.12,11.12,0,0,0,.86,3.67,12.26,12.26,0,0,0,4.88,5.61,13.59,13.59,0,0,0,7.13,1.91c6.47-.06,11.39-3.06,12.86-5.48l9.47-14.2-3.22-61.46c1.22-6.78-3.44-6-3.44-6h-5.34c1-1.45,2.08-2.89,3.11-4.34h28.45v5.56c-.05-.1-1.16-2.06-3-2.11s-3.76,1.81-3.78,4.44c-.05,9.83.87,23.35,2.48,42.21l28.26-41.47c3.15-4.74-.07-4.63-.07-4.63h-4.67v-4H272v3.11h-6.49a2.78,2.78,0,0,0-2.32,1.26c-5.21,8-17.37,26.76-29.52,45.5a1.35,1.35,0,0,0,.81,2.05l6.71,1.63a103.07,103.07,0,0,1,12.58,3.9,67.77,67.77,0,0,1,12,6A47.51,47.51,0,0,1,276,228.81a39.87,39.87,0,0,1,4,5.52c.61,1,1.12,2,1.66,3a32.76,32.76,0,0,1,1.37,3.18A35.5,35.5,0,0,1,285.39,254Z" fill="#231f20"/><path d="M92.38,109a21.82,21.82,0,0,0-1.49,4.48,15.85,15.85,0,0,0-.28,4.76,9.45,9.45,0,0,0,.16,1.19l.11.6.17.57a12.67,12.67,0,0,0,.81,2.26,19.42,19.42,0,0,0,6,7.26,28.8,28.8,0,0,0,8.31,4.38,35.59,35.59,0,0,0,9.19,1.82,29.53,29.53,0,0,0,9.36-.83,27.93,27.93,0,0,0,8.61-3.86,31.13,31.13,0,0,0,6.84-6.47,34,34,0,0,0,7.12-17.24,27.12,27.12,0,0,0-.59-9.45,29.27,29.27,0,0,0-3.86-8.65,41.2,41.2,0,0,0-13.76-12.67,51.56,51.56,0,0,0-17.58-6.39,44.08,44.08,0,0,0-35.59,9.08,48.77,48.77,0,0,0-18.17,32.28,43.36,43.36,0,0,0,2,18.91,39.84,39.84,0,0,0,1.78,4.46c.34.72.65,1.46,1,2.16l1.19,2.09a18.69,18.69,0,0,0,1.28,2l1.35,2,1.51,1.87a22.5,22.5,0,0,0,1.57,1.82l1.66,1.73c.54.59,1.17,1.09,1.76,1.64s1.17,1.09,1.81,1.57l1.91,1.46a22.22,22.22,0,0,0,2,1.36l2,1.31,2.12,1.15a23.8,23.8,0,0,0,2.14,1.08c.54.25,1.08.5,1.63.73,5,2.17,17.47,3.74,18.16,3.82a4.9,4.9,0,0,1,3.81,2.55,5,5,0,0,1-.6,5.33l-7.3,16.9a58.54,58.54,0,0,0-13.57,9.08,59.16,59.16,0,0,0-14.54,19.27,41.26,41.26,0,0,0-3.45,11.71,25.69,25.69,0,0,0,1.2,12.3c3.72,10.44,16.19,14.31,26.22,12.22,11-2.23,9.08-18.64-2.33-18.51-8.13-.27-13,9.91-8,16.12-6-.9-11.44-4.94-13.36-10.77a22.83,22.83,0,0,1-.77-10.94,38,38,0,0,1,3.45-10.73,55.7,55.7,0,0,1,14.09-17.76,56.92,56.92,0,0,1,8.42-5.91q-2.59,6-5.2,12L88,217.1a8.36,8.36,0,0,1-4.89,4.74,8,8,0,0,1-4.89,0q-1.26,3.33-2.51,6.67h57c2.18-5.53,4.55-10.77,6.73-16.3a28.43,28.43,0,0,0,.24-12.56,21.56,21.56,0,0,0-2.49-6.2,19.81,19.81,0,0,0-4.45-5.07,22.17,22.17,0,0,0-12.19-4.59c-.57,0-1.13-.08-1.7-.09,3.41-8.43,5.85-14.25,6.9-16.53a6.6,6.6,0,0,1,3.11-3.4,6.34,6.34,0,0,1,6.82,1.33l2.52-5.63h-33.1c-2.85,0-13.13-2.22-18.51-4.59a20,20,0,0,1-2-.95l-2-1-1.87-1.17a18.82,18.82,0,0,1-1.84-1.21l-1.77-1.31c-.61-.42-1.13-.94-1.69-1.41s-1.14-.94-1.65-1.47l-1.55-1.57a16.38,16.38,0,0,1-1.47-1.64l-1.42-1.69-1.28-1.79a18.32,18.32,0,0,1-1.22-1.84l-1.12-1.9c-.37-.64-.66-1.32-1-2a38.08,38.08,0,0,1-1.71-4.07,39.76,39.76,0,0,1-2.14-17.42A45.81,45.81,0,0,1,77.6,81.94a41.74,41.74,0,0,1,33.54-9,49.7,49.7,0,0,1,17,5.91,39.09,39.09,0,0,1,13.19,12A27.15,27.15,0,0,1,145,98.91a25.21,25.21,0,0,1,.6,8.83,32.25,32.25,0,0,1-6.66,16.43,29.54,29.54,0,0,1-6.45,6.18,26.33,26.33,0,0,1-8.1,3.7,31.47,31.47,0,0,1-17.74-.85,27.51,27.51,0,0,1-8-4.12A18.14,18.14,0,0,1,93,122.34a11.25,11.25,0,0,1-.75-2.06l-.17-.52-.1-.55a7.8,7.8,0,0,1-.15-1.08,14.86,14.86,0,0,1,.23-4.41,20.69,20.69,0,0,1,1.38-4.25,9.78,9.78,0,0,1,1.08-2,3.6,3.6,0,0,1,2.16-1.27,2.63,2.63,0,0,0,1.87-3.69,2.57,2.57,0,0,0-2.1-1.48,2.62,2.62,0,0,0-2.86,3l0,.13a5.25,5.25,0,0,1-.24,2.66C93.11,107.61,92.68,108.27,92.38,109ZM85,245.17c.28-5.73,4.17-8,8.05-7.76,8,.46,8,12.41-.05,13.1a28.28,28.28,0,0,1-6-.11A7.79,7.79,0,0,1,85,245.17Zm35.1-56.7a17.44,17.44,0,0,1,9.47,3.77,14.67,14.67,0,0,1,3.19,3.83,16,16,0,0,1,1.76,4.73,25.77,25.77,0,0,1-.11,10.81,11.29,11.29,0,0,1-1.26,5c-1.85,3.08-4.78,4.28-7.11,5.19-2.09.81-4.83.94-9.2.75-2.07-.09-4.5-.26-7.4-.45-1.62-.11-3.36-.25-4.15-1.49-1.2-1.88.71-5,1-5.48q.9-2.28,1.76-4.49c3.31-8.41,6.31-16,8.88-22.34A25,25,0,0,1,120.09,188.47Z" fill="#231f20"/><circle cx="91.99" cy="244.47" r="2.37" fill="#231f20"/><path d="M206.75,97.62c-.94,2.76-42,117.93-42,117.93-1.39,3.8.18,6.88,3.51,6.88h1.68l-2.17,4.74H138.62l2.17-4.74h1.7c3.33,0,7.16-3.08,8.56-6.88l42-117.93c21.84-61-42.93-88.89-92-88.89A88.65,88.65,0,0,0,36.23,158.1c3.08,4.21,6.58,8.43,9.36,13.19a34.37,34.37,0,0,1,3.34,7.7,36.29,36.29,0,0,1,1.33,8.27l.07,2.06c0,.72,0,1.44-.1,2.16a21.92,21.92,0,0,1-.73,4.27,24.29,24.29,0,0,1-3.63,7.8,25.47,25.47,0,0,1-13.72,9.89,25.84,25.84,0,0,1-8.52,1,26.65,26.65,0,0,1-8.44-1.75A23.92,23.92,0,0,1,2.3,201.32,20.75,20.75,0,0,1,0,192.92a25,25,0,0,1,1.18-8.43c.21-.66.44-1.32.67-2s.54-1.27.81-1.89A36.78,36.78,0,0,1,4.57,177c.34-.59.73-1.15,1.12-1.7s.73-1.16,1-1.79a14.38,14.38,0,0,0,1.4-4.77l.06-.53a5.6,5.6,0,1,1,4.88,6.23l-.28,0a5.26,5.26,0,0,0-2.25,0,5.45,5.45,0,0,0-1.86.74,9.53,9.53,0,0,0-2.63,2.7,18.18,18.18,0,0,0-3.13,7,22.3,22.3,0,0,0,13.36,25.21,22.51,22.51,0,0,0,7.49,1.55,22,22,0,0,0,19-10.16,20.45,20.45,0,0,0,2.8-6.71,18,18,0,0,0,.46-3.57,15.25,15.25,0,0,0,0-1.79l-.1-1.88a31,31,0,0,0-1.33-7.23,29.54,29.54,0,0,0-3.07-6.64c-2.59-4.25-6.4-9.07-9.58-13.22A99.38,99.38,0,0,1,9.17,97.62C9.17,43.92,52.87,4.68,106.4.4,166.18-4.38,228.47,34.21,206.75,97.62Z" fill="#231f20"/><path d="M425.66,270.8c0,8.37-2.44,12.55-5.43,15.29a22.85,22.85,0,0,1-16.54,5.56,18.15,18.15,0,0,1-8.36-2.93,25.11,25.11,0,0,1-5.22-4.35c5.91,1.35,12.75-1.05,17.27-6.65a18.14,18.14,0,0,0,3.88-15.22,7.77,7.77,0,0,0-7.58-6.07h-7.62c-4.89,0-5.88,1-6.45,2.47l-5,12.8-.82,2.12-5.13-11.57h0l-2.16-4.88.94-2.43a3.57,3.57,0,0,1,3.33-2.29h36.67a22.71,22.71,0,0,1,3.47,3.79A24.09,24.09,0,0,1,425.66,270.8Z" fill="#231f20"/><path d="M420.23,286.09a17.88,17.88,0,0,1-5.27,4.83c-7.07,4.71-14.58,7.27-22.49,5.62a37,37,0,0,1-14.88-6.65,37.85,37.85,0,0,1-8.18-8.57l-1.16-2.62-26.88-60.64-22.46-50.65c-2.29-5.27-3.48-5.13-7.26-5.12h-4.29l.77-5.19h24.12l2.17,5.19L351,199.7l14.82-36.6c.77-2.11-.1-2.74-1.95-2.74h-.93l1.21-3.71h15.32l-1.21,3.71h-1.81c-2.8,0-4,.63-4.75,2.74l-17.63,43.53,22.47,50.73,2.16,4.88h0l5.13,11.57,1.25,2.83a28.19,28.19,0,0,0,5,7.72,25.11,25.11,0,0,0,5.22,4.35,18.15,18.15,0,0,0,8.36,2.93C411,292.11,417.86,288.1,420.23,286.09Z" fill="#231f20" stroke="#a7a9ac" stroke-miterlimit="10"/><circle cx="119.31" cy="105.82" r="5.39" fill="#231f20"/><circle cx="505.21" cy="106.43" r="5.39" fill="#231f20"/></svg>